<svg width="266" height="49" fill="none" xmlns="http://www.w3.org/2000/svg"><path fill-rule="evenodd" clip-rule="evenodd" d="M5.746 36.21c4.288 4.295 15.008 9.88 23.584 1.288 8.576-8.591 6.432-31.358 6.432-31.358S13.465 4.422 4.889 13.013C-3.687 21.604.6 31.055 5.746 36.21zm7.986-5.44c1.537-1.37 5.637-4.078 9.742-3.94 4.106.136 5.048-1.003 5.393-2.057.772-2.356-.432-5.63-6.262-7.54-5.831-1.912-12.961.77-14.788 5.912-1.461 4.113 1.13 6.797 2.61 7.626.463.228 1.913.942 3.305 0z" fill="#0070C7"/><path d="M65.332 22.824c1.488.456 2.628 1.224 3.42 2.304.792 1.056 1.188 2.364 1.188 3.924 0 1.392-.372 2.616-1.116 3.672-.72 1.032-1.764 1.836-3.132 2.412-1.344.576-2.928.864-4.752.864h-9.576c-.984 0-1.74-.264-2.268-.792-.528-.528-.792-1.284-.792-2.268V13.68c0-.984.264-1.74.792-2.268.528-.528 1.284-.792 2.268-.792h9.216c2.664 0 4.776.6 6.336 1.8 1.584 1.176 2.376 2.772 2.376 4.788 0 1.296-.348 2.448-1.044 3.456-.696.984-1.668 1.704-2.916 2.16zm-10.584-2.232h4.716c1.248 0 2.16-.192 2.736-.576.576-.384.864-.996.864-1.836 0-.888-.288-1.536-.864-1.944-.576-.408-1.488-.612-2.736-.612h-4.716v4.968zm5.364 10.404c1.32 0 2.256-.204 2.808-.612.576-.432.864-1.128.864-2.088 0-.96-.288-1.644-.864-2.052-.552-.432-1.488-.648-2.808-.648h-5.364v5.4h5.364zm24.023-13.068c.816-.072 1.464.12 1.944.576.48.432.72 1.08.72 1.944 0 .96-.228 1.656-.684 2.088-.432.432-1.224.708-2.376.828l-1.08.108c-1.2.144-2.064.528-2.592 1.152-.504.6-.756 1.428-.756 2.484v6.156c0 .984-.312 1.728-.936 2.232-.6.48-1.356.72-2.268.72-.912 0-1.68-.24-2.304-.72-.6-.504-.9-1.248-.9-2.232V20.808c0-.912.3-1.62.9-2.124.624-.504 1.368-.756 2.232-.756.888 0 1.596.24 2.124.72.552.48.828 1.152.828 2.016v.684c.384-1.056 1.008-1.872 1.872-2.448.888-.576 1.812-.888 2.772-.936l.504-.036zm12.13-.072c2.735 0 4.751.66 6.047 1.98 1.32 1.296 1.98 3.276 1.98 5.94V33.3c0 .912-.276 1.632-.828 2.16-.528.504-1.272.756-2.232.756-.84 0-1.536-.24-2.088-.72-.528-.48-.816-1.128-.864-1.944a3.985 3.985 0 01-1.692 2.016c-.792.48-1.74.72-2.844.72-1.224 0-2.328-.24-3.312-.72-.984-.504-1.764-1.188-2.34-2.052-.552-.888-.828-1.884-.828-2.988 0-1.272.324-2.28.972-3.024.672-.768 1.728-1.32 3.168-1.656 1.44-.336 3.384-.504 5.832-.504h.972v-.432c0-.84-.192-1.44-.576-1.8-.384-.384-1.032-.576-1.944-.576-.984 0-2.424.336-4.32 1.008-.552.192-1.02.288-1.404.288-.6 0-1.08-.216-1.44-.648-.36-.432-.54-.996-.54-1.692 0-.528.108-.96.324-1.296.216-.336.564-.636 1.044-.9.84-.432 1.896-.78 3.168-1.044a18.394 18.394 0 013.744-.396zm-1.009 14.148c.864 0 1.572-.3 2.124-.9.552-.624.828-1.416.828-2.376v-.432h-.576c-1.536 0-2.628.144-3.276.432-.648.264-.972.72-.972 1.368 0 .552.168 1.008.504 1.368.36.36.816.54 1.368.54zm15.832 4.212c-.912 0-1.68-.24-2.304-.72-.6-.504-.9-1.248-.9-2.232V20.88c0-.984.3-1.716.9-2.196.624-.504 1.392-.756 2.304-.756.912 0 1.668.252 2.268.756.624.48.936 1.212.936 2.196v12.384c0 .984-.312 1.728-.936 2.232-.6.48-1.356.72-2.268.72zm0-20.808c-1.08 0-1.944-.276-2.592-.828-.624-.576-.936-1.332-.936-2.268 0-.936.312-1.68.936-2.232.648-.552 1.512-.828 2.592-.828 1.056 0 1.908.276 2.556.828.648.552.972 1.296.972 2.232 0 .936-.324 1.692-.972 2.268-.624.552-1.476.828-2.556.828zm18.837 2.448c2.112 0 3.684.636 4.716 1.908 1.032 1.248 1.548 3.156 1.548 5.724v7.776c0 .912-.288 1.632-.864 2.16-.576.528-1.356.792-2.34.792-.984 0-1.764-.264-2.34-.792-.576-.528-.864-1.248-.864-2.16v-7.488c0-1.056-.192-1.824-.576-2.304-.36-.48-.912-.72-1.656-.72-.96 0-1.728.312-2.304.936-.552.6-.828 1.416-.828 2.448v7.128c0 .912-.288 1.632-.864 2.16-.576.528-1.356.792-2.34.792-.984 0-1.764-.264-2.34-.792-.576-.528-.864-1.248-.864-2.16V20.808c0-.84.3-1.524.9-2.052.6-.552 1.38-.828 2.34-.828.912 0 1.632.252 2.16.756.552.504.828 1.164.828 1.98a6.14 6.14 0 012.412-2.088c.984-.48 2.076-.72 3.276-.72zm21.725 1.872c.264-.6.624-1.044 1.08-1.332.456-.288.96-.432 1.512-.432.792 0 1.5.264 2.124.792.624.528.936 1.164.936 1.908 0 .408-.096.804-.288 1.188l-9.54 19.116c-.288.6-.672 1.044-1.152 1.332-.456.288-.96.432-1.512.432-.792 0-1.5-.264-2.124-.792-.6-.504-.9-1.128-.9-1.872 0-.408.108-.828.324-1.26l2.34-4.716-6.12-12.24c-.192-.432-.288-.816-.288-1.152 0-.768.336-1.416 1.008-1.944.672-.552 1.428-.828 2.268-.828.576 0 1.104.156 1.584.468.504.288.888.732 1.152 1.332l3.816 8.28 3.78-8.28z" fill="#0070C7"/><path d="M190.782 12.456c.24-.672.624-1.188 1.152-1.548a3.23 3.23 0 011.8-.54c.792 0 1.476.252 2.052.756.6.504.9 1.188.9 2.052 0 .384-.096.864-.288 1.44L189.162 34.2c-.24.672-.684 1.2-1.332 1.584-.624.36-1.32.54-2.088.54s-1.464-.18-2.088-.54a3.001 3.001 0 01-1.296-1.584l-4.68-13.356-4.896 13.356a3.184 3.184 0 01-1.332 1.584c-.624.36-1.308.54-2.052.54-.768 0-1.464-.18-2.088-.54a3.001 3.001 0 01-1.296-1.584l-7.272-19.584a4.143 4.143 0 01-.252-1.368c0-.888.312-1.584.936-2.088a3.433 3.433 0 012.232-.792c.672 0 1.284.18 1.836.54.576.336.984.852 1.224 1.548l4.932 14.184 5.22-14.184c.24-.672.624-1.188 1.152-1.548a3.23 3.23 0 011.8-.54c.648 0 1.236.18 1.764.54.528.36.912.888 1.152 1.584l4.896 14.472 5.148-14.508zm14.924 5.4c2.736 0 4.752.66 6.048 1.98 1.32 1.296 1.98 3.276 1.98 5.94V33.3c0 .912-.276 1.632-.828 2.16-.528.504-1.272.756-2.232.756-.84 0-1.536-.24-2.088-.72-.528-.48-.816-1.128-.864-1.944a3.985 3.985 0 01-1.692 2.016c-.792.48-1.74.72-2.844.72-1.224 0-2.328-.24-3.312-.72-.984-.504-1.764-1.188-2.34-2.052-.552-.888-.828-1.884-.828-2.988 0-1.272.324-2.28.972-3.024.672-.768 1.728-1.32 3.168-1.656 1.44-.336 3.384-.504 5.832-.504h.972v-.432c0-.84-.192-1.44-.576-1.8-.384-.384-1.032-.576-1.944-.576-.984 0-2.424.336-4.32 1.008-.552.192-1.02.288-1.404.288-.6 0-1.08-.216-1.44-.648-.36-.432-.54-.996-.54-1.692 0-.528.108-.96.324-1.296.216-.336.564-.636 1.044-.9.84-.432 1.896-.78 3.168-1.044a18.394 18.394 0 013.744-.396zm-1.008 14.148c.864 0 1.572-.3 2.124-.9.552-.624.828-1.416.828-2.376v-.432h-.576c-1.536 0-2.628.144-3.276.432-.648.264-.972.72-.972 1.368 0 .552.168 1.008.504 1.368.36.36.816.54 1.368.54zm23.103-.36c1.608.096 2.412.816 2.412 2.16 0 .84-.324 1.464-.972 1.872-.648.408-1.572.576-2.772.504l-1.008-.072c-2.16-.168-3.804-.816-4.932-1.944-1.104-1.152-1.656-2.748-1.656-4.788v-6.372h-1.044c-1.92 0-2.88-.792-2.88-2.376 0-1.56.96-2.34 2.88-2.34h1.044v-2.34c0-.912.288-1.632.864-2.16.576-.552 1.356-.828 2.34-.828.984 0 1.764.276 2.34.828.576.528.864 1.248.864 2.16v2.34h1.98c1.92 0 2.88.78 2.88 2.34 0 1.584-.96 2.376-2.88 2.376h-1.98v6.912c0 .456.132.84.396 1.152.288.312.648.48 1.08.504l1.044.072zm18.514-1.332c.552 0 .996.216 1.332.648.36.432.54.996.54 1.692 0 .96-.468 1.692-1.404 2.196-.816.408-1.788.756-2.916 1.044-1.104.264-2.124.396-3.06.396-1.968 0-3.684-.372-5.148-1.116-1.464-.744-2.592-1.812-3.384-3.204-.792-1.392-1.188-3.024-1.188-4.896 0-1.776.372-3.36 1.116-4.752.768-1.416 1.824-2.508 3.168-3.276 1.368-.792 2.904-1.188 4.608-1.188 1.656 0 3.108.36 4.356 1.08 1.248.72 2.208 1.74 2.88 3.06.696 1.32 1.044 2.868 1.044 4.644 0 .552-.132.984-.396 1.296-.24.288-.6.432-1.08.432h-9.504c.168 1.152.54 1.98 1.116 2.484.576.504 1.428.756 2.556.756.6 0 1.152-.06 1.656-.18a20.332 20.332 0 001.692-.576c.36-.144.708-.264 1.044-.36.36-.12.684-.18.972-.18zm-6.156-8.136c-.84 0-1.512.276-2.016.828-.504.528-.804 1.308-.9 2.34h5.652c-.144-2.112-1.056-3.168-2.736-3.168zm22.254-4.248c.816-.072 1.464.12 1.944.576.48.432.72 1.08.72 1.944 0 .96-.228 1.656-.684 2.088-.432.432-1.224.708-2.376.828l-1.08.108c-1.2.144-2.064.528-2.592 1.152-.504.6-.756 1.428-.756 2.484v6.156c0 .984-.312 1.728-.936 2.232-.6.48-1.356.72-2.268.72-.912 0-1.68-.24-2.304-.72-.6-.504-.9-1.248-.9-2.232V20.808c0-.912.3-1.62.9-2.124.624-.504 1.368-.756 2.232-.756.888 0 1.596.24 2.124.72.552.48.828 1.152.828 2.016v.684c.384-1.056 1.008-1.872 1.872-2.448.888-.576 1.812-.888 2.772-.936l.504-.036z" fill="#094067"/></svg>