<svg width="116" height="209" fill="none" xmlns="http://www.w3.org/2000/svg"><path d="M40.786 35.78c9.282 0 16.806-7.524 16.806-16.806 0-9.281-7.524-16.806-16.806-16.806S23.98 9.693 23.98 18.974c0 9.282 7.524 16.806 16.806 16.806z" fill="#2F2E41"/><path d="M103.465 80.512a5.972 5.972 0 01-5.866 2.58 5.963 5.963 0 01-4.096-2.648 5.545 5.545 0 01-.29-.508l-26.484-2.555a9.766 9.766 0 01-8.612-7.86l-1.504-7.925 10.336-1.608 1.854 6.347 25.82 6.343c.2-.175.413-.337.635-.483a5.966 5.966 0 018.207 8.317z" fill="#AE6E79"/><path d="M69.438 65.377l-11.545 3.12a2.443 2.443 0 01-2.991-1.72l-4.044-14.969a6.722 6.722 0 0112.471-4.818l7.644 14.92a2.442 2.442 0 01-1.535 3.467z" fill="#0070C7"/><path d="M62.75 202.828h6.647l3.162-25.636h-9.81l.002 25.636z" fill="#AE6E79"/><path d="M82.215 208.999L61.326 209v-8.071h12.818a8.072 8.072 0 018.071 8.07z" fill="#094067"/><path d="M3.512 196.351l6.219 2.347 12.014-22.866-9.177-3.464-9.056 23.983z" fill="#AE6E79"/><path d="M19.542 209L0 201.621l2.85-7.55 11.992 4.528a8.072 8.072 0 014.7 10.401zM62.54 196.874a2.438 2.438 0 01-2.317-1.689l-16.952-52.35a.814.814 0 00-1.51-.096L18.27 192.724a2.442 2.442 0 01-2.98 1.277l-9.252-3.084a2.45 2.45 0 01-1.587-2.938l14.39-54.509a124.19 124.19 0 003.255-17.58 39.852 39.852 0 0112.857-25.413 18.543 18.543 0 005.837-11.093l.039-.273 21.074 3.327 13.35 108.93a2.449 2.449 0 01-1.788 2.651l-10.286 2.77a2.448 2.448 0 01-.637.085z" fill="#094067"/><path d="M47.462 35.7c7.354 0 13.316-5.96 13.316-13.315 0-7.354-5.962-13.315-13.316-13.315-7.354 0-13.315 5.961-13.315 13.315 0 7.354 5.962 13.315 13.315 13.315z" fill="#AE6E79"/><path d="M60.21 85.565l-.126-.003-20.891-1.045a2.426 2.426 0 01-2.305-2.188l-2.855-27.826A12.564 12.564 0 0149.931 41.13a12.183 12.183 0 014.47 2.3c14.696 12.068 9.958 33.936 8.155 40.35a2.43 2.43 0 01-2.346 1.786z" fill="#0070C7"/><path d="M42.418 103.446a5.971 5.971 0 01-5.397-3.456 5.965 5.965 0 01-.065-4.876c.078-.179.165-.354.262-.524L24.676 71.126a9.765 9.765 0 011.773-11.525l5.765-5.64 7.064 7.714-4.258 5.06 9.023 25.01c.257.07.508.157.753.261a5.965 5.965 0 01-2.378 11.44z" fill="#AE6E79"/><path d="M36.17 66.733l-8.992-7.885a2.442 2.442 0 01-.226-3.443l10.223-11.658a6.722 6.722 0 0110.92 7.714L39.907 66.09a2.44 2.44 0 01-3.737.643z" fill="#0070C7"/><path d="M38.894 35.32c1.215.43 2.704.81 3.66-.084.934-.872.764-2.467.214-3.642-.55-1.175-1.403-2.22-1.664-3.5-.375-1.832.594-3.737 1.977-4.932 1.383-1.195 3.123-1.823 4.823-2.427l9.32-3.313c2.308-.82 4.794-1.784 6.085-3.942 1.868-3.123.16-7.587-2.904-9.41-3.064-1.822-6.935-1.482-10.241-.201-1.829.709-3.568 1.685-5.46 2.184-3.731.985-7.975.102-11.255 2.206-2.854 1.832-4.179 5.57-4.083 9.067.097 3.497 1.384 6.827 2.742 10.026.809 1.903 1.672 3.827 3.04 5.34 1.37 1.514 3.347 2.573 5.323 2.294l-1.577.333z" fill="#2F2E41"/><path d="M26.69 21.685c5.989 0 10.843-4.854 10.843-10.842C37.533 4.854 32.68 0 26.691 0S15.848 4.854 15.848 10.843c0 5.988 4.854 10.842 10.843 10.842z" fill="#2F2E41"/><path d="M114.63 73.431l-.192-.026.724-5.27a3.078 3.078 0 00-2.631-3.47l-11.168-1.536a3.079 3.079 0 00-3.47 2.631l-3.975 28.918a3.08 3.08 0 002.632 3.47l11.167 1.535a3.08 3.08 0 003.47-2.632l2.735-19.894.193.026.515-3.752z" fill="#094067"/><path d="M112.18 66.21l-1.39-.19a1.052 1.052 0 01-.232.951 1.042 1.042 0 01-.92.34l-6.102-.84a1.037 1.037 0 01-.794-.574 1.03 1.03 0 01.033-.98l-1.298-.178a2.198 2.198 0 00-2.193 1.066c-.145.248-.24.523-.28.808L95.22 94.156a2.194 2.194 0 001.874 2.472l10.703 1.471a2.196 2.196 0 002.472-1.874l3.786-27.543a2.193 2.193 0 00-1.874-2.472z" fill="#FAFAFA"/><path d="M104.589 89.077a5.963 5.963 0 005.963-5.963 5.963 5.963 0 10-11.926 0 5.964 5.964 0 005.963 5.963z" fill="#0070C7"/><path fill-rule="evenodd" clip-rule="evenodd" d="M101.827 84.86c.577.823 2.168 2.04 3.811.882 1.644-1.158 1.942-4.935 1.942-4.935s-3.59-.914-5.234.244c-1.643 1.158-1.213 2.822-.519 3.81zm1.457-.66c.29-.18 1.036-.505 1.702-.366.667.14.853-.02.939-.182.193-.363.09-.931-.808-1.409-.897-.477-2.137-.243-2.581.544a1.024 1.024 0 00.209 1.32c.069.05.285.207.539.093z" fill="#FAFAFA"/></svg>