<svg width="115" height="212" fill="none" xmlns="http://www.w3.org/2000/svg"><path d="M40.253 159.062s11.315 15.884 11.968 16.101c.652.218 5.222-3.699 5.222-3.699s-5.657-13.708-7.398-14.36c-1.74-.653-9.792 1.958-9.792 1.958zM20.453 158.627l-5.657 15.884 6.092 2.393 10.444-20.671-10.879 2.394z" fill="#FFB8B8"/><path d="M13.925 171.682l-8.92 23.282s.652 1.305 0 1.523c-.653.217-2.176 3.699-2.176 3.916 0 .218-1.523.435-1.523 1.088S0 207.366 0 207.366s2.393 5.222 3.917 3.699c1.523-1.523 2.175-4.569 2.175-4.569l2.176-5.658s-.217-3.046 1.306-3.481c1.523-.435 2.393-5.875 2.393-5.875s2.394-2.393 2.829-3.046c.435-.653 8.05-12.185 7.398-12.402-.653-.218-8.268-4.352-8.268-4.352zM50.915 174.728l6.528-4.352s11.314 20.671 11.314 21.106c0 .435-.435 1.741 0 2.176.435.435 4.134 7.398 6.528 8.051 2.393.653 2.828 3.264.87 3.699-1.958.435-4.57 1.523-5.222 0a23.955 23.955 0 00-1.306-2.611s-2.175.653-2.393.217a19.979 19.979 0 01-.653-1.958s-1.74-3.046-1.74-4.134c0-1.088-1.088-1.306-1.088-1.306s-2.394-5.657-3.917-6.527c-1.523-.871-2.828-5.222-2.828-5.222l-6.093-9.139zM24.37 140.35s-9.34 24.809-8.034 24.809c1.306 0 37.423.786 38.51-.955 1.089-1.741-9.37-19.068-9.806-19.285-.435-.218-20.67-4.569-20.67-4.569z" fill="#094067"/><path d="M115 54.421v.326A54.423 54.423 0 0123.476 94.24 54.422 54.422 0 016.158 54.42a54.152 54.152 0 0110.007-31.457 49.548 49.548 0 011.628-2.18 54.432 54.432 0 0180.447-5.65A54.275 54.275 0 01115 54.421z" fill="#9FD5FF"/><path d="M17.793 20.784a.303.303 0 01.075.044c.292.24-.075.704-.03 1.085.052.489.703.596 1.196.644.492.052 1.114.448.88.885-1.236.426-2.487.007-3.75-.478A54.152 54.152 0 006.159 54.421c0 1.17.037 2.33.11 3.48.104.076.218.137.338.182.37.14.8.114 1.14.314.27.16.452.44.722.589.774.422 1.847-.389 2.57.115.186.17.362.35.528.54.667.578 1.763.19 2.533.622.496.278.751.833 1.018 1.337.662 1.258 1.736 2.495 3.154 2.595.447-.02.895-.006 1.34.044.437.1.866.482.796.922-.122.76.252 1.588.152 2.347-.181 1.389-2.147 1.996-2.314 3.384 0 .306-.018.61-.052.915-.089.362-.363.658-.459 1.021-.185.685.307 1.37.844 1.83.54.462 1.185.862 1.481 1.506.311.685.16 1.48.26 2.225.221 1.625 1.625 2.828 3.068 3.606.463.193.874.492 1.2.873.37.537.333 1.244.459 1.885.303 1.566 1.621 2.858 1.658 4.453.026 1.137-.603 2.166-.98 3.236a7.466 7.466 0 00-.337 3.495 54.665 54.665 0 006.711 4.868c.129-.189.223-.4.278-.622a1.23 1.23 0 00-.574-1.273c.398-.15.76-.383 1.063-.681a1.042 1.042 0 00.192-1.178c.652.082 1.426.122 1.855-.377.344-.4.322-1 .185-1.507-.137-.511-.366-1.003-.37-1.533a27.57 27.57 0 004.524-.152 2.937 2.937 0 00-1.377-1.725c.68-.115 1.3-.93 1.514-1.584a4.036 4.036 0 00.03-2.048 1.09 1.09 0 01-.023-.533c.11-.234.302-.42.54-.522l3.377-1.94c.201-.1.384-.235.54-.396.352-.418.3-1.044.12-1.558-.182-.515-.471-1-.541-1.54-.208-1.618 1.525-2.78 2.11-4.306a6.465 6.465 0 00.318-1.884c.048-.689.052-1.485-.474-1.925-.507-.426-1.295-.33-1.825-.726-.485-.363-.651-1.063-1.18-1.355-.482-.267-1.082-.096-1.619-.222-.94-.219-1.532-1.303-2.495-1.403-.54-.06-1.155.207-1.6-.108-.392-.281-.406-.84-.48-1.314a3.672 3.672 0 00-2.962-2.969c-.56-.089-1.166-.056-1.644-.363-.481-.31-.7-.892-1.08-1.325-.608-.692-1.57-.94-2.47-1.151-1.222-.286-2.442-.572-3.662-.86-.647-.155-1.484-.236-1.836.334a2.506 2.506 0 00-.215.685 2.124 2.124 0 01-1.991 1.495 2.354 2.354 0 00-1.385-1.073 8.738 8.738 0 01-1.125-.267 1.577 1.577 0 01-.681-2.188 1.965 1.965 0 00-.337-2.358c-.622-.56-1.522-.696-2.359-.64-.218-.478.148-1.015.54-1.363.397-.344.875-.685.96-1.203.137-.815-.904-1.433-1.692-1.192-.789.244-1.292 1.01-1.625 1.766a5.327 5.327 0 01-.656 1.255 1.287 1.287 0 01-1.244.51c-.651-.166-.9-.94-1.044-1.591a10.38 10.38 0 01-.348-2.67 3.484 3.484 0 011.007-2.428c1.078-.992 2.736-.896 4.191-.737a1.067 1.067 0 01.111-1.407 1.6 1.6 0 011.451-.355c.44.09.834.327 1.122.67.415.504.533 1.188.844 1.759.315.573 1.018 1.062 1.592.755.5-.267.578-.955.456-1.507-.126-.548-.39-1.085-.345-1.647.085-1.07 1.2-1.718 2.18-2.159.982-.44 2.104-1.036 2.26-2.102.006-.208.046-.413.118-.608.108-.174.26-.317.44-.414 2.862-1.892 5.775-3.81 9.048-4.843.17-.055.189.004.363-.037.244-.14.081-.53-.152-.685-.233-.155-.544-.277-.603-.551-.041-.2.077-.4.107-.604a.754.754 0 00-.988-.762c-.263-.348.255-.752.677-.87a18.505 18.505 0 013.869-.63.688.688 0 01.44.074.523.523 0 01.034.719 4.06 4.06 0 01-.589.536 1.617 1.617 0 00-.422 1.626c.685.348 1.425.707 2.184.585.755-.123 1.425-.974 1.07-1.652-.33-.633-1.325-.777-1.495-1.47-.2-.81.947-1.532.688-2.324-.111-.348-.459-.556-.725-.804a2.19 2.19 0 01-.478-2.42 2.759 2.759 0 01-2.414-.756c-.577-.581-1.037-1.503-1.858-1.474-.752.023-1.4.9-2.103.634-.174-.067-.356-.2-.522-.123a.433.433 0 00-.196.323c-.178.855.13 1.828-.337 2.569-.508.803-1.681.914-2.296 1.64-.333.392-.462.922-.77 1.336-.307.415-.955.681-1.325.319a1.824 1.824 0 00-.496-2.222 4.77 4.77 0 00-1.096-.533 6.498 6.498 0 01-1.225-.68 1.215 1.215 0 01-.448-.482c-.081-.25-.07-.52.03-.763a3.117 3.117 0 012.476-2.05c.489-.067 1.059-.045 1.385-.42.17-.195.259-.495.51-.573a.745.745 0 01.47.056c.612.214 1.219.43 1.83.644.203.093.428.13.651.107a.438.438 0 00.382-.463c-.06-.303-.526-.448-.482-.755a.48.48 0 01.152-.259 6.543 6.543 0 015.187-2.047c.23.381-.134.829-.44 1.151-.305.326-.549.903-.179 1.151.15.079.317.117.485.111.45.06.888.193 1.296.393a24.65 24.65 0 011.862.903c-.09-.397-.074-.81.045-1.2a.815.815 0 01.962-.521c.363.14.548.622.937.666.514.06.718-.703.503-1.177-.214-.474-.644-.866-.677-1.388-.026-.348.107-.782-.17-.993a.737.737 0 00-.33-.118l-6.978-1.281c-.415-.078-1.011-.018-1.03.4-.01.237.2.47.108.685-.1.23-.426.21-.663.292a.9.9 0 00-.518.952c.063.385.212.75.437 1.07-.456-.19-1.14-.223-1.596-.415a6.139 6.139 0 00-.4-1.537.542.542 0 00-.707-.436c-.6.092-1.2.181-1.8.274a.696.696 0 00-.41.159c-.233.248-.004.644-.011.985a.923.923 0 01-.715.796 2.693 2.693 0 01-1.14-.015l-2.517-.389a4.124 4.124 0 001.903-1.273c.333-.393.51-1.126.03-1.311a1.15 1.15 0 00-.438-.033c-1.14.007-2.04-.944-3.106-1.348a3.055 3.055 0 00-1.048-.192l-1.192 1.462z" fill="#2CB67D"/><path d="M42.977 107.987a9.352 9.352 0 100-18.704 9.352 9.352 0 000 18.704z" fill="#2F2E41"/><path d="M38.513 103.36s-3.046 6.745-3.917 6.963c-.87.217 7.18 4.134 7.18 4.134s1.524-8.268 2.176-8.704c.653-.435-5.44-2.393-5.44-2.393zM74.197 106.841l5.875-.435s6.962-7.398 7.397-5.004c.436 2.393-5.657 7.615-5.657 7.615l-8.05.871.435-3.047z" fill="#FFB8B8"/><path d="M43.082 108.364a6.31 6.31 0 100-12.62 6.31 6.31 0 000 12.62z" fill="#FFB8B8"/><path d="M45.91 111.628s4.788-.217 5.005 0c.218.218 3.264 0 3.264 0s8.268-1.958 8.92-2.611c.654-.652 11.533-3.481 11.968-2.176.435 1.306 1.523 3.917.435 4.352-1.088.435-30.462 7.833-30.462 7.833l.87-7.398z" fill="#FAFAFA"/><path d="M44.065 100.522c3.562 0 6.45-1.733 6.45-3.87s-2.888-3.87-6.45-3.87c-3.562 0-6.45 1.733-6.45 3.87 0 2.138 2.888 3.87 6.45 3.87z" fill="#2F2E41"/><path d="M15.014 88.564L8.486 78.555s1.614-10.5-.562-8.541C5.748 71.972 5.06 79.88 5.06 79.88l7.56 11.513 2.394-2.829z" fill="#FFB8B8"/><path d="M31.332 109.017v-2.176s-5.657-3.699-5.44-4.351c.218-.653-.434-1.088-.434-1.088s-.653-.871-.653-1.088c0-.218-.87-.435-.87-.435l-5.44-6.31s-3.046-6.093-3.7-5.875c-.652.217-4.133 1.523-3.698 2.393.435.87 12.62 19.583 12.62 19.583s.653 4.134 1.74 4.134c1.088 0 5.875-4.787 5.875-4.787z" fill="#FAFAFA"/><path d="M36.663 106.732s-1.958 1.524-2.393 1.741c-.435.218-3.046-1.958-3.482-1.958-.435 0-6.092 6.527-6.092 6.527s1.051 1.211 0 7.398c-.394 2.321-1.177 12.241-1.177 13.546 0 1.306-4.263 4.514-.346 7.343 3.916 2.828 22.629 5.874 22.846 4.134.218-1.741-2.175-6.31-1.087-8.486 1.087-2.176 1.087-10.227 1.087-10.227l1.306-8.485 1.088-6.746s-5.113-1.414-5.549-1.414c-.435 0-2.393 3.046-6.2-3.373z" fill="#FAFAFA"/><path d="M39.706 92.662a3.87 3.87 0 100-7.74 3.87 3.87 0 000 7.74z" fill="#2F2E41"/><path d="M34.546 86.696a3.87 3.87 0 013.467-3.85 3.87 3.87 0 100 7.698 3.87 3.87 0 01-3.467-3.848z" fill="#2F2E41"/><path d="M114.93 57.19a1.338 1.338 0 01-1.133.537c-1.159-.1-1.648-1.77-2.795-1.958a.448.448 0 00-.304.03c-.17.092-.2.322-.211.514-.048.955-.089 1.947.285 2.829.544 1.288 1.955 2.369 1.659 3.735-1.592-.737-2.421-2.525-2.795-4.239-.378-1.714-.437-3.513-1.111-5.135-.515.655-1.588.115-2.055-.574-.444-.651-.718-1.406-1.147-2.07-.43-.658-1.089-1.25-1.874-1.287-.825-.037-1.543.529-2.173 1.066a5.034 5.034 0 00-1.351 1.503c-.44.888-.326 1.932-.348 2.92-.022 1.067-.248 2.196-.977 2.981-.73.781-2.074 1.055-2.877.348a3.244 3.244 0 01-.803-1.447 70.42 70.42 0 01-2.177-7.767c-.133.6-.663 1.373-1.166 1.021a1.04 1.04 0 01-.267-.348c-.94-1.588-2.677-2.543-4.435-3.117-1.755-.57-3.602-.837-5.338-1.466a13.652 13.652 0 01-2.773-1.38 2.184 2.184 0 00-.134 2.228 1.785 1.785 0 002.007.84c.385-.126.71-.392 1.092-.526.381-.129.896-.066 1.063.304.162.352-.082.778.04 1.148.182.559 1.03.603 1.326 1.114a1.03 1.03 0 01-.278 1.192 4.99 4.99 0 01-1.118.689c-1.244.692-2.129 1.873-3.217 2.791-1.089.922-2.625 1.592-3.92 1.003.306-1.566-1.556-2.713-1.9-4.272-.115-.514-.055-1.059-.215-1.558-.233-.726-.877-1.222-1.403-1.77a6.96 6.96 0 01-1.906-5.053c.03-.645.148-1.3 0-1.93-.145-.625-.667-1.232-1.31-1.206-1.47.066-3.325.178-4.096-1.077-.277-.448-.396-1.104.004-1.448.282-.24.696-.218 1.063-.181 1.107.107 2.21.218 3.317.325.774.075 1.61.137 2.277-.266.666-.404.955-1.481.337-1.958-.448-.349-1.256-.33-1.389-.882-.107-.462.404-.984.126-1.373-.196-.274-.64-.2-.91.007a5.955 5.955 0 01-.767.67c-.53.274-1.159.011-1.729-.166-.57-.178-1.333-.193-1.606.337-.311.588.27 1.366-.034 1.958-.407.781-1.777.337-2.347 1.01-.652.77.444 1.926.226 2.91a1.814 1.814 0 01-1.788-.1 1.73 1.73 0 01-.748-1.613c.052-.445.285-.9.13-1.318a1.538 1.538 0 00-.782-.715c-1.073-.596-2.147-1.19-3.22-1.78-.3.555.077 1.24.551 1.658.47.415 1.063.73 1.373 1.277a1.68 1.68 0 01-.629 2.214.39.39 0 01-.322.056.447.447 0 01-.207-.278c-.567-1.455-1.422-2.888-2.784-3.647-1.366-.762-3.325-.603-4.22.674-.212.304-.356.652-.541.974-.981 1.706-3.091 2.513-5.061 2.462a.976.976 0 01-.552-.13c-.318-.218-.303-.685-.255-1.07l.207-1.629c.002-.332.13-.651.36-.892.366-.289.892-.107 1.358-.115a1.711 1.711 0 001.559-1.203 1.935 1.935 0 00-.54-1.925c-.212-.2-.497-.452-.386-.722a.6.6 0 01.419-.281c.833-.24 1.717-.304 2.535-.593.822-.285 1.618-.87 1.815-1.717.059-.26.085-.574.318-.704a1.03 1.03 0 01.37-.074 1.802 1.802 0 001.544-1.877c.392-.274.944-.07 1.325.222.378.293.715.678 1.178.804.862.237 1.695-.53 2.591-.534.378 0 .766.134 1.118.004.36-.13.574-.485.848-.748.278-.266.759-.425 1.014-.14-.074-.537-.144-1.07-.218-1.603a3.15 3.15 0 002.565-.467c-.933-.314-1.862-.63-2.795-.944a.603.603 0 01-.263-.14c-.203-.219 0-.56.163-.808.396-.596.463-1.577-.188-1.873-.445-.203-.952.04-1.378.278-.68.378-1.362.759-2.043 1.136-.063.39.41.611.703.87a1.18 1.18 0 01-.77 2.063 1.479 1.479 0 01.263 1.247l-1.374.1a.589.589 0 01-.444-.089c-.148-.13-.126-.359-.163-.551a1.192 1.192 0 00-1.007-.878 3.474 3.474 0 00-1.403.13.855.855 0 01-.607-.015.606.606 0 01-.237-.304 1.548 1.548 0 01.311-1.488 8.522 8.522 0 011.17-1.077 6.82 6.82 0 002.032-3.147c.756-.318 1.537-.748 2.296-1.066a9.17 9.17 0 011.906-.64 9.011 9.011 0 011.87-.09c.851.015 1.707.03 2.558.049.76-.032 1.52.077 2.24.322.7.289 1.318.914 1.366 1.67a.514.514 0 01-.167.47.6.6 0 01-.322.074c-.707.022-1.007.2-1.714.225.448.478.952.982 1.603 1.067 1.148.148 1.973-1.04 2.503-2.074a1.01 1.01 0 001.055.937c.284-.049.554-.155.796-.31a15.656 15.656 0 017.423-1.919.8.8 0 01.61-.88c.53-.104 1.004.351 1.26.825.251.474.41 1.022.817 1.377.404.355 1.185.337 1.344-.174.156-.492-.359-.914-.785-1.207-.429-.289-.877-.825-.588-1.255 2.177-.485 4.372-.966 6.604-1.062a2.81 2.81 0 001.111-.193.863.863 0 00.518-.914 2.525 2.525 0 01-2.628-.992c2.291-.19 4.69-.356 6.893.159l1.929 1.636c-.367.381-.855.74-.589 1.122a.821.821 0 00.678.233c.466.007.933.018 1.395.018a54.275 54.275 0 0116.571 34.712c-.777-.03-1.492.955-1.392 1.814.119.996.837 1.795 1.351 2.654.086.14.162.284.23.433l-.07 2.444z" fill="#2CB67D"/></svg>