<svg width="115" height="246" fill="none" xmlns="http://www.w3.org/2000/svg"><path d="M106.131 154.451a21.14 21.14 0 01-.321-3.145c0-1.266-1.714-2.387-1.714-2.387s-1.059-2.457-1.765-2.82-2.885-3.578-2.885-3.578a2.932 2.932 0 00-.656-1.735 24.821 24.821 0 01-1.785-2.702c-.294-.36-.147-.613-.589-2.711a3.276 3.276 0 00-.082-.315c0-.047-.03-.089-.047-.136a3.544 3.544 0 00.832-3.667 1.484 1.484 0 00-.417-.649c-.497-.407-1.291-.239-1.803-.625l.544-2.413c.13-.59.197-1.336-.318-1.655a2.699 2.699 0 00-.606-.204c-.882-.295-1.394-1.23-1.623-2.129a7.32 7.32 0 01-.177-2.655c.1-.856.35-1.688.442-2.546a7.006 7.006 0 00-1.08-4.525 3.471 3.471 0 00-1.426-1.351c-.544-.245-1.177-.295-1.686-.59-1.094-.699-1.038-2.36-1.911-3.313-.874-.953-2.42-.95-3.694-.623-1.274.328-2.541.885-3.847.747-.841-.095-1.63-.478-2.474-.567a2.582 2.582 0 00-.723.033v-.027c-.624.112-1.197.46-1.344 1.053a1.613 1.613 0 00-.041.431c0 .345.082.705.088 1.036a.985.985 0 01-.239.728c-.167.18-.414.275-.588.46a.736.736 0 00-.215.543c0 .525.654.988 1.092 1.201h.017a7.787 7.787 0 00-2.291 5.528 7.896 7.896 0 001.317 4.312 7.866 7.866 0 003.46 2.88l-.062.192c-.124.379-.268.751-.432 1.115a2.187 2.187 0 00-1.848.206c-.84.59-2.485.543-2.923.434-.438-.109-5-.688-5.368-.543-.367.145-1.094-.504-1.567.363-.474.867-.694 1.336-1.177 1.554-.482.219-1.314.903-1.203 1.048.112.144-1.205 1.011-1.205 1.011s-1.133 1.18-1.789 1.337c-.656.156-2.044 1.05-2.044 1.05l-1.608 1.263s-1.203.182-.839-.649c.365-.832-.659-1.88-.659-1.88s-2.044-4.156-2.044-5.014c0-.859-1.679-4.52-1.679-4.52l-.206-.02-.094-.269c-.309-.87-.709-1.938-1.015-2.563-.588-1.195-.95-1.319-.95-1.319s-7.082-5.333-11.682-3.708c-4.6 1.625 8.397 6.469 9.565 6.977.409.177.703.749.909 1.419a6.06 6.06 0 00-2.515 2.268s2.812 6.251 2.885 7.806c.074 1.554 1.935 5.899 1.935 5.899s.695 3.219 4.453 3.036c0 0 5.185.956 6.318 0 1.132-.956 2.153-1.705 2.703-1.814.404-.134.76-.385 1.02-.723 0 0-1.714 10.841-2.556 11.782-.84.941-8.273 13.112-5.605 15.289a53.268 53.268 0 006.679 4.425c.226.112.906-1.023 1.876-1.829v.629c.018 4.33.589 10.914 1.377 12.389 1.176 2.168.694 6.36.694 6.36.618.292 1.29.454 1.973.475l.115.443c.644 2.439 1.688 6.212 2.22 7.215.804 1.519 1.386 6.328 1.386 6.328s.476 4.72.294 5.383c-.07.251.238 2.216.724 4.72-.295 3.39-.853 9.924-.948 12.287v.171a.694.694 0 010 .079v.145c-.009.149-.003.298.018.445.037.225.02.456-.05.673a11.783 11.783 0 01-.791 1.894 9.029 9.029 0 00-.353.914c-.294.13-.653.446-.853 1.216-.365 1.41-.912 5.31-.912 5.31s-.22 2.386-.655 2.929c-.436.543-.883 3.938 2.226 4.372 3.109.433 4.453-1.652 4.453-1.652l-.109-9.464v-.017c.063-.08.117-.166.162-.257v-.024c.02-.044.044-.091.064-.144l.027-.071.047-.115a.165.165 0 010-.041c.302-.907.392-1.87.265-2.817v-.121V229.39v-.056c0-.063.006-.128.017-.194v-.036l.018-.115v-.05c0-.038 0-.077.023-.118a.128.128 0 010-.029c.03-.136.065-.295.103-.425v-.033l.044-.141c.045-.151.095-.295.148-.455v-.029c0-.047.032-.095.05-.139v-.017c.053-.145.108-.295.161-.419l.015-.039.047-.118.015-.035.112-.263.861 2.67s.477 1.988.22 2.457c-.255.469.295 2.422.657 2.458l-.338 2.457a37.67 37.67 0 00-.327 4.086c-.023.156-.047.295-.065.389-.235 1.26.33 3.212.33 3.212 2.882 3.419 6.317.266 6.317.266s.4-1.808 0-2.168c-.4-.36-.22-1.664-.22-1.664s.182-3.218.217-5.567c.036-2.348-1.914-4.424-1.914-4.424l-.11.097c-.355-.92-.76-1.994-.676-2.475.148-.832-.403-9.614-.403-9.614.204-2.354.247-4.72.13-7.08.047-.398.091-.79.135-1.18.22-1.888.4-3.501.47-4.348v-.1c.018-.227.027-.39.024-.466 0-.295 0-.631.03-1 .067-1.015.226-2.145.226-2.145l.765-4.664s.588-2.277 1.426-3.54l.1-.159c.033-.056.065-.118.1-.183l.015-.026c.032-.062.068-.127.1-.195l.015-.027c.117-.233.244-.501.376-.796 0-.024.02-.044.03-.068l.1-.224c0-.03.023-.059.038-.089.015-.029.062-.15.094-.224a.812.812 0 00.038-.091c.038-.089.08-.18.118-.275l.056-.135c.026-.068.056-.136.085-.204l.07-.18c.021-.044.039-.088.056-.132l.08-.204c0-.03.026-.062.038-.091.209-.523.409-1.039.588-1.508l.162-.425c1.87.115 3.141.219 3.141.219s.588-4.228.4-7.009c-.123-1.9.23-4.29.462-5.605.026-.145.05-.275.074-.393l.05.042c.914.722 1.57-1.664 1.57-1.664s-.247-2.227-.588-4.926l-.035-.269c.527.113 1.06.195 1.597.245 0 0 .294-.027.697-.077a19.278 19.278 0 003.511 1.593l1.944-3.599c.366-.746.794-1.459 1.28-2.132.588-.723 2.664-3.036 2.629-3.47-.035-.433.694-2.929 1.424-4.05.729-1.121 1.02-3.375.985-3.554zm-8.106 2.746c-.767.324-1.497 2.133-1.532 2.675-.035.543-.841 2.927-1.68 3.216-.773.265-2.25 1.628-2.485 1.847-.24.02-.514.053-.8.1-.32-2.28-.638-4.168-.84-4.549-.59-1.086.643-4.555.643-4.555s.12-3.504.883-4.336c.761-.832.588-2.929.588-2.929s.182-.868.256-1.263c.073-.395 1.085 0 1.094 0 0 0 1.97 1.083 2.264 2.708.294 1.626 2.447 4.446 2.447 4.446s-.329.976 0 1.475c.33.498-.07.84-.838 1.165z" fill="url(#paint0_linear)"/><path d="M82.488 231.191s2.102 2.023 2.063 4.319c-.038 2.295-.238 5.443-.238 5.443s-.192 1.275.238 1.628 0 2.122 0 2.122-3.695 3.085-6.799-.26c0 0-.604-1.911-.353-3.143.25-1.231.95-6.767.95-6.767l4.14-3.342zM71.631 230.37s-.967-.107-1.353 1.303-.968 5.321-.968 5.321-.231 2.386-.696 2.93c-.465.544-.927 3.94 2.36 4.372 3.286.431 4.718-1.653 4.718-1.653l-.117-9.48-3.944-2.793z" fill="#444053"/><path d="M87.21 187.913s-1.973 5.414-2.817 6.669c-.844 1.255-1.424 3.519-1.424 3.519l-.769 4.624a25.312 25.312 0 00-.257 3.12c.036 1.041-1.902 16.208-1.902 16.208l-3.072 3.839s-1.353 2.689-1.134 3.812c.218 1.123-.147 2.906-.598 3.442 0 0-.072 3.519-.183 4.302-.11.783.404 3.015 0 3.408-.404.393-5.78.217-5.926-.431-.146-.648.658-3.765.658-3.765l.476-3.012s.951-1.648.733-2.188c-.219-.539.4-1.791.437-1.9.035-.108 1.026-1.865.843-2.545-.182-.681 1.152-15.149 1.152-15.149l3.766-25.926 10.018 1.973z" fill="#AE6E79"/><path opacity=".1" d="M87.21 187.908s-.298.815-.708 1.886c-.652 1.69-1.592 4.016-2.11 4.784-.84 1.255-1.426 3.52-1.426 3.52l-.769 4.628a25.537 25.537 0 00-.254 3.121c0 .411-.281 3.03-.64 6.048a1587.326 1587.326 0 01-1.262 10.164l-3.072 3.839s-.156.294-.35.757c-.386.88-.93 2.308-.784 3.045.218 1.111-.147 2.903-.598 3.443 0 0-.075 3.52-.183 4.303-.108.783.404 3.012 0 3.408-.404.396-5.78.217-5.926-.428-.146-.645.658-3.766.658-3.766l.476-3.015s.951-1.649.73-2.188c-.222-.54.404-1.793.44-1.901.035-.109 1.026-1.866.843-2.546-.14-.519.598-9.017.942-13.047l.192-2.091 3.24-22.31.263-1.798.263-1.824 10.036 1.968z" fill="#000"/><path d="M83.92 242.012c.032.398-5.079.976-5.809.543-.73-.434 0-5.807 0-5.807l.333-2.45c-.356-.038-.898-1.985-.648-2.454.25-.469-.215-2.45-.215-2.45l-.847-2.654-.518-1.625c-.842-1.861-2.061-7.169-2.818-11.133-.477-2.489-.78-4.45-.712-4.7.18-.649-.295-5.373-.295-5.373s-.588-4.798-1.366-6.311c-.526-1.003-1.554-4.769-2.19-7.198a266.915 266.915 0 01-.547-2.144s5.44-.457 8.74-.617c1.516-.073 2.582-.082 2.458.042-.124.123-.156.784-.15 1.739.015 2.475.36 6.827.724 7.998.504 1.622 1.007 6.488.792 6.96-.215.471-.144 3.606-.144 3.606.37 1.274.584 2.588.636 3.913a53.004 53.004 0 01-.124 7.046s.539 8.764.395 9.593c-.145.828 1.15 3.426 1.15 3.931 0 .504.36 3.931.36 3.931s.771 5.219.795 5.614z" fill="#AE6E79"/><path opacity=".1" d="M87.21 187.713s-.295.733-.7 1.694a155.671 155.671 0 00-7.14-.237c-.886 0-1.754 0-2.575.026-1.742.048-3.248.174-4.208.417a12.45 12.45 0 01-3.75.432 214.42 214.42 0 01-.55-1.916s5.458-.408 8.768-.55l.26-1.639 9.896 1.773z" fill="#000"/><path opacity=".4" d="M111.003 187.585h-2.334v-2.106h2.334v2.106zm-.035-3.173h-2.264c0-3.273 3.397-3.08 3.397-5.151a1.98 1.98 0 00-.669-1.453 2.364 2.364 0 00-1.594-.595 2.413 2.413 0 00-1.592.624 2.03 2.03 0 00-.672 1.462h-2.263c.026-1.081.512-2.11 1.354-2.867.843-.757 1.974-1.184 3.154-1.188 1.18-.004 2.315.414 3.163 1.166.849.751 1.344 1.776 1.379 2.857.013 2.582-3.38 2.878-3.38 5.145h-.013z" fill="#0070C7"/><path d="M96.986 169.921l.098 1.209s-5.19-1.98-4.927-4.413c.263-2.434 0-2.159 0-2.159l4.17.413.66 4.95z" fill="#094067"/><path opacity=".1" d="M96.986 169.921l.098 1.209s-5.19-1.98-4.927-4.413c.263-2.434 0-2.159 0-2.159l4.17.413.66 4.95z" fill="#000"/><path d="M76.647 127.716l.398-.191 1.115 1.302-.912 1.989-1.556-.637.361-1.59.594-.873zM45.25 126.14a5.728 5.728 0 012.472-2.189 5.853 5.853 0 013.288-.48v4.054h-2.502l-1.958-.487-1.3-.898z" fill="#4C4981"/><path opacity=".1" d="M45.25 126.14a5.728 5.728 0 012.472-2.189 5.853 5.853 0 013.288-.48v4.054h-2.502l-1.958-.487-1.3-.898z" fill="#000"/><path d="M87.21 136.327l-.64.674-.418.44-2.44 2.556-6.303.692-3.355-.874-.83-.217s0-1.64.15-3.607c.213-2.523.722-5.587 1.94-6.422a4.747 4.747 0 001.417-1.75c.244-.473.448-.964.61-1.468.025-.066.043-.128.064-.194.275-.88.473-1.782.592-2.695 0 0 .805-.434 1.924-.939 2.92-1.328 7.96-3.162 6.207.939a15.802 15.802 0 00-.659 1.843 5.307 5.307 0 00-.073.273c-.585 2.282-.198 3.667.238 4.431.074.132.158.258.253.377.12.16.262.301.424.419l.726 4.49.06.372.114.66z" fill="#AE6E79"/><path opacity=".1" d="M89.679 153.96l-1.137 2.984s-.924.039-2.366.084c-4.868.157-15.593.356-16.072-.903a3.222 3.222 0 01-.168-.991c-.063-1.917.826-4.862.826-4.862s.512-5.892.512-6.148c0-.256-.44-4.384-.44-4.384l.88-3.312 2.45-1.731s1.098 1.695 1.756 1.84c.658.144 1.538.96 1.538.96s2.157 1.325 2.854.587c.697-.737 6.109-3.977 6.109-3.977l2.854 3.167.404 16.686z" fill="#000"/><path d="M89.679 154.786l-1.137 2.981s-.925.043-2.368.088h-.14c-.623.021-1.336.042-2.096.057-3.87.09-9.2.114-11.987-.301-1.048-.151-1.733-.367-1.847-.663a2.657 2.657 0 01-.132-.548 5.374 5.374 0 01-.036-.442c-.063-1.919.826-4.864.826-4.864s.512-5.893.512-6.149c0-.256-.44-4.384-.44-4.384l.88-3.313 1.685-1.186.767-.542c.257.388.538.76.84 1.114.237.319.553.57.917.726.661.147 1.538.96 1.538.96s2.158 1.325 2.856.588c.53-.563 3.822-2.59 5.342-3.515.467-.286.77-.463.77-.463l.383.427 2.472 2.741.395 16.688z" fill="#FAFAFA"/><path opacity=".1" d="M86.388 157.825c-4.932.193-15.8.433-16.285-1.109a4.736 4.736 0 01-.17-1.218l16.112 1.036.343 1.291z" fill="#000"/><path d="M91.325 174.672l-.606 1.297s-.084.386-.192.999c-.227 1.32-.582 3.701-.448 5.599.177 2.776-.393 6.99-.393 6.99s-13.097-1.117-16.939 0c-3.842 1.117-5.733 0-5.733 0s.465-4.179-.676-6.342c-.777-1.473-1.324-8.051-1.341-12.377 0-1.995.099-3.507.346-3.814.783-.972 4.127-10.703 4.127-10.703l.763.041 2.037.109 11.583.619 1.82.097.192.59 5.46 16.895z" fill="#444053"/><path opacity=".1" d="M75.896 174.343c.373.087.74.2 1.1.338 1.397.399 2.847-.149 4.25-.517a17.261 17.261 0 015.142-.548c-.309 0-.8.311-1.103.416-.397.138-.8.267-1.202.382a21.824 21.824 0 01-7.334.785c-.753-.048-2.058.04-2.702-.396a2.662 2.662 0 011.85-.46zM68.54 172.03c.228.035.453.083.672.143 1.303.287 2.688.034 4.012-.22-.33.385-.926.55-1.521.655a9.035 9.035 0 01-2.963.084c-.308-.048-1.083-.134-1.234-.382-.253-.366.743-.316 1.034-.28zM78.16 168.993c-.74.239-1.5.398-2.27.476-.6.03-1.2.017-1.797-.037l-2.908-.196-1.454-.1c-.171 0-.872 0-.526-.371.175-.181 1.146-.065 1.396-.075.482-.016.967-.026 1.454-.028.962 0 1.927 0 2.89.063 1.079.056 2.14.143 3.216.268zM74.87 169.811c-.489-.025-1.118.329-1.62.406a8.824 8.824 0 01-1.696.08 8.004 8.004 0 01-3.266-.812c2.192.136 4.39.217 6.582.326zM85.107 152.202c.387.02.775-.015 1.155-.105.383-.089.723-.338.949-.697a.496.496 0 00-.402.071 6.124 6.124 0 01-3.712.498c.602.287 1.372.23 2.01.233zM86.235 150.45a3.463 3.463 0 001.799-.711c-1.017.109-1.98.447-2.982.624a5.192 5.192 0 01-2.778-.217c1.151.476 2.734.492 3.96.304zM83.097 143.974a.582.582 0 01-.426-.105c-.63-.356-1.25-.728-1.863-1.115-.596-.379-1.316-.764-1.825-1.242 1.252 1.115 2.418 2.057 4.114 2.462zM86.03 123.678c-.329.845.16-.69 0 0-1.315 1-4.414 3.847-6.155 3.847-1.177 0-1.53-.229-2.537-.716.305-1.02.522-2.068.649-3.131 0 0 10.442-6.153 8.043 0z" fill="#000"/><path d="M51.01 124.497l-3.117 2.205s-.026-.44-.105-1.043c-.155-1.142-.504-2.854-1.256-3.185-1.144-.508-13.884-5.352-9.365-6.981 4.518-1.629 11.452 3.711 11.452 3.711s.357.124.928 1.316c.292.627.693 1.694.995 2.566.278.787.468 1.411.468 1.411z" fill="#AE6E79"/><path opacity=".1" d="M51.01 124.193l-3.183 2.509s-.027-.501-.108-1.187c1.572-.747 2.529-2.398 2.804-2.926.293.894.487 1.604.487 1.604z" fill="#000"/><path d="M62.268 131.93l-.679-.181s-1.112 1.17-1.756 1.325c-.645.155-2.003 1.036-2.003 1.036l-1.578 1.253s-1.17.181-.822-.644-.644-1.861-.644-1.861-2.006-4.115-2.006-4.975c0-.86-1.657-4.472-1.657-4.472s-2.078 4.045-5.872 2.757c0 0 2.758 6.189 2.828 7.729.07 1.539 1.897 5.832 1.897 5.832s.682 3.187 4.368 3.008c0 0 5.085.945 6.194 0 1.11-.945 2.11-1.688 2.635-1.797.524-.108 1.001-.714 1.001-.714v-4.255l-1.906-4.041z" fill="#094067"/><path opacity=".1" d="M59.98 136.908c.5.622 1.09 1.071 1.726 1.313a1.056 1.056 0 01-.497-.364c-.35-.363-.684-.76-1.022-1.145-.273-.312-.614-.832-.95-.959.22.421.47.809.744 1.155zM60.226 138.198c.212.237.383.508.508.8.21.826.198 1.694-.037 2.514l-1.055-2.531c-.183-.431-.367-.863-.587-1.275-.097-.176-.705-.91-.635-1.062.187-.432 1.61 1.311 1.806 1.554zM55.947 135.753s1.434 3.715.515 4.113l-.516-4.113zM91.324 174.559l-.592 1.317s-.082.391-.188 1.014a.52.52 0 01-.284-.135c-.872-.733-5.979-6.255-6.232-11.158a93.2 93.2 0 01-.037-8.122c.017-.436.034-.7.034-.756 0 0 3.968-5.05 3.516-6.839-.453-1.789-1.498-11.367-1.498-11.367l-.153-1.257-.265-2.123-.632-5.14.655.162c.11.16.244.302.395.422l.678 4.52 2.352 2.722.384 16.572-1.082 2.962s-.88.042-2.252.086h-.134l5.335 17.12z" fill="#000"/><path d="M93.439 147.42s-1.006-.404-1.076 0a57.79 57.79 0 01-.253 1.277s.179 2.124-.588 2.964c-.768.841-.883 4.388-.883 4.388s-1.211 3.512-.638 4.61c.209.397.532 2.393.856 4.786.206 1.495.409 3.137.588 4.639.326 2.728.57 4.986.57 4.986s-.65 2.414-1.55 1.681c-.899-.733-6.175-6.254-6.433-11.157a90.046 90.046 0 01-.047-7.909c.023-.625.047-.978.047-.978s4.099-5.049 3.631-6.84c-.467-1.792-1.546-11.367-1.546-11.367l-.189-1.48-.203-1.592-.046-.35-.65-5.085c.114.027 4.149.954 4.681 1.496.532.541 3.823 1.316 3.823 1.316a2.87 2.87 0 011.306.781c.36.375.613.841.735 1.349.032.101.055.209.08.32.431 2.123.293 2.378.587 2.746.294.368-2.802 9.419-2.802 9.419z" fill="#094067"/><path opacity=".1" d="M92.147 169.485c-1.678-.265-4.17-.878-4.113-2.231.05-1.265 1.978-1.721 3.438-1.883.235 1.321.467 2.782.675 4.114z" fill="#000"/><path d="M96.252 168.749c-.061.129-.304.24-.65.338-.814.191-1.64.324-2.473.398 0 0-5.168-.404-5.095-2.709.055-1.653 2.39-2.093 3.7-2.191.29-.027.581-.039.873-.036 0 0 3.867 3.728 3.645 4.2z" fill="#AE6E79"/><path opacity=".1" d="M96.251 169.118c-.062.139-.312.26-.668.367-1.383-1.928-3.313-4.403-4.258-4.621l.287-.276a8.38 8.38 0 01.896-.039s3.971 4.055 3.743 4.569z" fill="#000"/><path opacity=".4" d="M25.263 189.441h-5.302v-5.173h5.302v5.173zm-.077-7.8h-5.141c0-8.041 7.712-7.57 7.712-12.661a5.026 5.026 0 00-.398-1.939 5.074 5.074 0 00-2.783-2.732 5.143 5.143 0 00-1.96-.376 5.275 5.275 0 00-3.627 1.53 5.18 5.18 0 00-1.53 3.599h-5.141a10.148 10.148 0 013.043-7.109A10.338 10.338 0 0122.563 159a10.336 10.336 0 017.224 2.898 10.146 10.146 0 013.1 7.085c.008 6.36-7.7 7.087-7.7 12.658z" fill="#0070C7"/><path d="M95.203 137.398l1.42.221a26.14 26.14 0 001.704 2.737c.382.499.6 1.113.625 1.753 0 0 2.084 3.247 2.743 3.612.659.364 1.667 2.848 1.667 2.848s1.633 1.131 1.633 2.409c.029 1.065.134 2.127.313 3.176.037.182-.242 2.448-.937 3.582-.696 1.134-1.392 3.636-1.355 4.084.037.447-1.945 2.776-2.499 3.504a15.01 15.01 0 00-1.216 2.156l-1.84 3.65s-3.89-6.024-5.314-6.352c0 0 1.596-1.606 2.394-1.899.798-.292 1.565-2.686 1.6-3.247.033-.562.73-2.374 1.456-2.687.727-.314 1.114-.657.801-1.17-.312-.514 0-1.493 0-1.493s-2.05-2.848-2.329-4.478c-.278-1.63-2.152-2.737-2.152-2.737l-1.077-2.776 2.363-6.893z" fill="#094067"/><path opacity=".1" d="M100.854 151.417c.788-.534 1.78-.836 2.812-.855-.661.091-1.357.208-1.841.579a3.74 3.74 0 00-.51.521c-.165.19-1.51 1.562-1.71 1.345-.333-.318.978-1.404 1.249-1.59zM97.084 149.739c.194-.019.38-.097.54-.225.159-.129.285-.303.366-.506a4.57 4.57 0 00.283-1.284c.093-.741.223-1.476.392-2.199a1.147 1.147 0 00-.055-.888 3.198 3.198 0 00-.28-.657c-.234.296-.301.985-.397 1.382-.12.491-.229.986-.333 1.48-.054.237-.485 2.897-.516 2.897zM75.998 129.207s.068 3.328-.45 4.847c-.164.473-.42 1.345-.697 2.323-.302 1.085-.634 2.3-.889 3.251l-.424 1.59s-1.17 9.943-1.472 14.681c0 .083 0 .169-.017.248-.017.266-.046.544-.088.831-.674 4.705-4.56 11.961-5.866 12.541a3.888 3.888 0 00-1.098.789c0-2.001.096-3.517.337-3.825.761-.975 4.014-10.735 4.014-10.735l.742.042a5.473 5.473 0 01-.034-.435c-.06-1.883.781-4.773.781-4.773s.484-5.784.484-6.035c0-.252-.416-4.304-.416-4.304l.832-3.251 1.594-1.165c.198-2.509.671-5.556 1.8-6.387a4.666 4.666 0 001.317-1.741c.224.033-.184-.174-.184-.174l-.266 1.682z" fill="#000"/><path d="M76.515 127.641a2.037 2.037 0 00-1.78.208c-.81.593-2.392.543-2.814.436-.423-.107-4.816-.691-5.175-.546-.36.145-1.056-.507-1.513.365-.457.872-.667 1.341-1.124 1.557-.457.217-1.268.908-1.15 1.053.118.145-1.15 1.014-1.15 1.014l2.565 8.602s-1.654 10.88-2.461 11.823c-.808.943-7.982 13.166-5.414 15.343a51.02 51.02 0 006.434 4.45c.288.145 1.3-1.813 2.706-2.43 1.406-.617 5.767-8.779 6.037-13.421.27-4.642 1.513-14.979 1.513-14.979s1.512-5.659 2.038-7.184c.526-1.524.457-4.864.457-4.864l.831-1.427z" fill="#094067"/><path d="M88.034 118.886a7.823 7.823 0 01-7.817 7.816 7.814 7.814 0 01-5.526-13.343 7.82 7.82 0 018.517-1.694 7.821 7.821 0 014.826 7.221z" fill="#AE6E79"/><path opacity=".1" d="M96.26 135.085a3.048 3.048 0 01-.5.519c-.59.474-1.375.874-1.449 1.623.02.243-.01.488-.089.718-.189.328-.653.299-1.023.236a1.769 1.769 0 01-.867-.322c-.388-.334-.423-.931-.72-1.351a1.824 1.824 0 00-1.478-.659c-.554-.018-1.104.107-1.657.131a4.503 4.503 0 01-1.063-.072 4.39 4.39 0 01-1.065-.319 3.076 3.076 0 01-.352-.167 4.628 4.628 0 01-1.02-.716c-.542-.501-.992-1.192-.947-1.935.026-.456.23-.877.296-1.327.222-1.289-.628-2.506-1.548-3.427-.367-.367-.757-.722-1.124-1.095a5.455 5.455 0 01-1.323-1.902 5.71 5.71 0 01-.236-2.386c.083-.815.106-1.634.068-2.452-.272-2.899-2.728-5.121-5.184-6.329l-.11-.056a7.894 7.894 0 012.632-1.991 7.83 7.83 0 016.435-.086 7.875 7.875 0 012.683 1.919 7.966 7.966 0 011.673 2.857 8.008 8.008 0 01-.626 6.456 7.92 7.92 0 01-2.19 2.476c-.026.093-.05.185-.07.275-.569 2.29-.193 3.68.23 4.446.116.027 4.175.952 4.71 1.492.536.539 3.847 1.312 3.847 1.312.503.135.96.404 1.325.779.364.376.62.843.743 1.353z" fill="#000"/><path d="M74.26 111.852c.163-.184.408-.277.573-.455.51-.549 0-1.446.186-2.17.2-.804 1.198-1.154 2.03-1.069.832.084 1.612.464 2.444.557 1.293.144 2.544-.411 3.804-.736 1.26-.324 2.783-.341 3.65.614.868.955.81 2.582 1.89 3.274.498.318 1.127.353 1.667.584a3.41 3.41 0 011.41 1.335 6.933 6.933 0 011.07 4.471c-.092.848-.34 1.671-.44 2.518-.102.88-.043 1.77.176 2.629.228.876.72 1.822 1.603 2.103.204.044.402.112.59.201.51.316.443 1.058.313 1.636l-.525 2.398c.504.379 1.29.216 1.77.616.193.174.336.396.414.643a3.47 3.47 0 01.073 2.082 3.501 3.501 0 01-1.133 1.755c-.59.465-1.372.856-1.446 1.586a1.63 1.63 0 01-.089.704c-.185.322-.652.292-1.02.231a1.782 1.782 0 01-.862-.315c-.39-.328-.422-.912-.718-1.324a1.826 1.826 0 00-1.475-.645c-.555-.018-1.101.105-1.656.131a4.92 4.92 0 01-3.48-1.244c-.542-.493-.988-1.168-.947-1.898.027-.444.23-.859.295-1.3.219-1.259-.625-2.453-1.543-3.356-.918-.902-1.995-1.735-2.444-2.935-.56-1.487-.017-3.146-.168-4.723-.271-2.842-2.718-5.015-5.17-6.201-.547-.277-1.476-.981-.842-1.697z" fill="#444053"/><path opacity=".1" d="M93.781 136.388c-.394-.335-.426-.924-.724-1.342a1.853 1.853 0 00-1.49-.657c-.561-.018-1.116.106-1.673.133a4.948 4.948 0 01-3.526-1.264c-.549-.498-.996-1.185-.954-1.922.026-.453.232-.873.298-1.317.223-1.28-.632-2.491-1.56-3.405-.926-.915-2.011-1.759-2.467-2.976-.564-1.504 0-3.186-.167-4.788-.278-2.881-2.749-5.084-5.223-6.286-.578-.281-1.517-.995-.876-1.72.16-.187.408-.282.575-.462.516-.554 0-1.466.19-2.197.038-.146.101-.283.189-.406-.623.116-1.193.465-1.345 1.057-.182.735.328 1.644-.188 2.2-.166.181-.414.276-.578.459-.64.726.298 1.442.876 1.72 2.478 1.203 4.949 3.408 5.223 6.286.152 1.602-.396 3.284.17 4.791.453 1.214 1.541 2.073 2.468 2.976s1.789 2.123 1.56 3.402c-.126.433-.226.873-.299 1.318-.042.737.408 1.424.957 1.921a4.936 4.936 0 003.523 1.265c.56-.027 1.112-.149 1.673-.134a1.846 1.846 0 011.49.658c.298.417.33 1.009.724 1.341.257.18.558.289.87.317.373.068.844.092 1.032-.231a.798.798 0 00.084-.427 1.722 1.722 0 01-.832-.31z" fill="#000"/><path d="M50.192 119.298H29.629V99.105h20.577l-.014 20.193zm-.298-30.446H29.927c0-31.38 29.929-29.545 29.929-49.397 0-10.935-8.98-19.695-19.953-19.695-10.972 0-19.95 9.445-19.95 20.006H0a39.579 39.579 0 013.02-15.228 39.688 39.688 0 018.647-12.91 39.844 39.844 0 0112.955-8.62A39.954 39.954 0 0139.903 0c22.04 0 39.903 17.523 39.903 39.455 0 24.823-29.926 27.649-29.926 49.397h.014z" fill="#0070C7"/><path opacity=".4" d="M77.587 90.502h-2.121v-2.106h2.121v2.106zm-.032-3.174h-2.069c0-3.27 3.085-3.08 3.085-5.15a2.062 2.062 0 00-.603-1.457 2.033 2.033 0 00-1.452-.591 2.093 2.093 0 00-1.446.624 2.126 2.126 0 00-.611 1.461h-2.058a4.163 4.163 0 011.232-2.867 4.098 4.098 0 012.867-1.187 4.098 4.098 0 012.875 1.165 4.163 4.163 0 011.254 2.857c.011 2.571-3.074 2.878-3.074 5.145zM12.603 84.743H8.786v-3.748h3.817v3.748zm-.056-5.665H8.845c0-5.832 5.553-5.493 5.553-9.184a3.675 3.675 0 00-2.29-3.389 3.689 3.689 0 00-1.412-.273c-.98.02-1.914.419-2.605 1.113a3.772 3.772 0 00-1.098 2.608H3.291a7.39 7.39 0 012.148-5.238 7.41 7.41 0 0110.472-.041 7.39 7.39 0 012.19 5.22c-.006 4.614-5.554 5.142-5.554 9.184z" fill="#0070C7"/><defs><linearGradient id="paint0_linear" x1="71.176" y1="246.025" x2="71.176" y2="107.747" gradientUnits="userSpaceOnUse"><stop stop-color="gray" stop-opacity=".25"/><stop offset=".54" stop-color="gray" stop-opacity=".12"/><stop offset="1" stop-color="gray" stop-opacity=".1"/></linearGradient></defs></svg>