<svg width="337" height="383" fill="none" xmlns="http://www.w3.org/2000/svg"><path d="M52.97 256.371c-32.05 28.301-64.632 71.268-48.875 95.85C19.853 376.803 83.95 383 148.313 383c64.097 0 128.461-6.404 161.844-38.835 33.651-32.432 36.322-91.099 4.274-119.399-32.049-28.507-99.083-26.648-148.491-18.592-49.141 7.85-80.922 21.897-112.97 50.197z" fill="#FAFAFA"/><path d="M311 74.625v36.643a1.307 1.307 0 01-.361.902c-.231.24-.544.375-.87.376h-.876v190.886c0 5.282-2.021 10.348-5.619 14.083-3.598 3.735-8.478 5.834-13.566 5.834H174.815c-2.519 0-5.013-.516-7.34-1.517a19.135 19.135 0 01-6.223-4.318 19.985 19.985 0 01-4.158-6.461 20.596 20.596 0 01-1.459-7.621V119.24h-.634a.851.851 0 01-.614-.262.92.92 0 01-.256-.636V97.488a.929.929 0 01.254-.64.868.868 0 01.616-.264h.634v-7.855h-.639a.894.894 0 01-.643-.28.96.96 0 01-.265-.669V67.21c0-.25.096-.489.266-.665a.894.894 0 01.642-.277h.639V55.545h-.65a.78.78 0 01-.57-.245.83.83 0 01-.175-.272.876.876 0 01-.061-.32V43.483a.855.855 0 01.235-.594.796.796 0 01.571-.248h.65V19.91c.001-5.28 2.021-10.345 5.618-14.079C164.85 2.098 169.729 0 174.815 0h114.893c5.087 0 9.966 2.098 13.564 5.832 3.598 3.734 5.62 8.798 5.621 14.08v53.435h.876c.326.001.639.136.87.376.23.239.36.563.361.902z" fill="#094067"/><path d="M299.706 23.85v276.301c-.001 3.351-1.284 6.563-3.567 8.932-2.282 2.369-5.378 3.699-8.605 3.699h-109.98a11.778 11.778 0 01-4.661-.955 12.138 12.138 0 01-3.951-2.738 12.642 12.642 0 01-2.638-4.1 13.04 13.04 0 01-.923-4.838v-276.3c0-1.66.315-3.304.927-4.837a12.671 12.671 0 012.638-4.1 12.158 12.158 0 013.949-2.739 11.787 11.787 0 014.659-.961h16.46v2.192c0 2.76 1.056 5.406 2.936 7.357 1.88 1.952 4.429 3.048 7.087 3.048h55.933c2.659 0 5.208-1.096 7.088-3.047 1.879-1.952 2.935-4.598 2.935-7.358v-2.192h17.541c1.599 0 3.182.326 4.659.96a12.142 12.142 0 013.949 2.74 12.675 12.675 0 012.639 4.1c.611 1.533.926 3.177.925 4.836z" fill="#fff"/><path d="M286.658 249.917H178.877a2 2 0 00-2 2v11.063a2 2 0 002 2h107.781a2 2 0 002-2v-11.063a2 2 0 00-2-2zm0-26.779H178.877a2 2 0 00-2 2v11.063a2 2 0 002 2h107.781a2 2 0 002-2v-11.063a2 2 0 00-2-2zm0-26.779H178.877a2 2 0 00-2 2v11.063a2 2 0 002 2h107.781a2 2 0 002-2v-11.063a2 2 0 00-2-2zm-.224-108.233H178.653a2 2 0 00-2 2v72.99a2 2 0 002 2h107.781a2 2 0 002-2v-72.99a2 2 0 00-2-2z" fill="#0070C7"/><path fill-rule="evenodd" clip-rule="evenodd" d="M221.877 137.316c3.738 3.889 13.085 8.943 20.562 1.167s5.607-28.383 5.607-28.383-19.44-1.555-26.917 6.221-3.739 16.33.748 20.995zm6.962-4.922c1.34-1.241 4.915-3.692 8.494-3.568 3.58.124 4.401-.907 4.703-1.861.672-2.132-.377-5.095-5.461-6.825-5.084-1.73-11.3.698-12.893 5.351-1.274 3.723.986 6.153 2.275 6.903.405.206 1.669.853 2.882 0z" fill="#FAFAFA"/><path d="M201.281 314.11l52.274 8.91-13.264 20.249s-36.67-12.959-46.032-12.959c-9.363 0 7.022-16.2 7.022-16.2zm-66.318-3.24v19.44l18.724-4.05-1.559-13.769-17.165-1.621z" fill="#FFB8B8"/><path d="M82.688 275.232s39.011-46.978 51.494-44.548c12.484 2.43 17.945 17.009 17.945 17.009l7.022 72.087s-24.967 2.43-24.967 0-4.681-54.268-4.681-54.268-36.67 84.237-56.175 28.349l9.362-18.629z" fill="#D0CDE1"/><path d="M19.491 306.821s.78 42.434 24.187 44.864c23.406 2.43 49.153-18.135 49.153-18.135l42.132-20.954s49.933 27.433 64.757 20.144c0 0 15.605-17.01 5.462-21.869-10.143-4.86-.78 0-.78 0l-60.077-32.399s-11.703-3.24-31.988 5.67c-20.286 8.909-47.594 12.959-47.594 12.959l-45.252 9.72z" fill="#D0CDE1"/><path d="M155.248 323.02s-12.483 4.86-16.384 4.05c-3.901-.81-7.802 2.43-7.802 7.29 0 4.859-4.682 16.199 2.34 17.009 7.022.81 35.89-.81 42.132 1.62 0 0 28.087.81 25.747-11.34-2.341-12.149-14.044-11.339-14.044-11.339s-31.989-1.62-31.989-7.29zm91.285 2.43s1.561-4.86 3.901-4.86c2.341 0 21.066 3.24 23.407 2.43 2.34-.81 29.648-2.43 24.966 11.34-4.681 13.769-20.285 15.389-20.285 15.389s-28.088-3.24-31.989-2.43-17.945 0-15.604-4.05c2.34-4.05 17.165-11.339 15.604-17.819z" fill="#55423D"/><path d="M175.513 209.109l4.281 18.33c.048.204.04.418-.022.619l-19.416 62.991a1.144 1.144 0 01-.445.608 1.07 1.07 0 01-.714.182 1.087 1.087 0 01-.666-.323 1.166 1.166 0 01-.321-.687l-2.686-24.539a1.183 1.183 0 01.047-.484l17.822-56.782c.074-.237.221-.442.418-.584a1.068 1.068 0 011.329.053c.186.158.317.374.373.616z" fill="#094067"/><path d="M173.939 210.657l3.952 15.727-17.125 57.437-3.952-17.778 17.125-55.386z" fill="#fff"/><path d="M44.573 159.914s10.073 16.586 6.476 21.077c-3.598 4.49 26.99 4.603 26.99 4.603s-4.595-24.128-3.243-29.68l-30.223 4z" fill="#FFB8B8"/><path d="M92.051 212.055l-1.56 34.018s.78 44.548-6.242 47.788c-3.55 1.636-10.681 4.925-17.274 8.521-4.946 2.689-9.589 5.54-12.18 7.994a9.002 9.002 0 00-1.755 2.114c-3.12 5.67-23.406 4.86-28.087.81-4.682-4.049-1.56 4.86-5.462 6.48-3.776 1.571-9.011-11.275-5.805-30.455.102-.64.219-1.287.344-1.944 3.58-18.588-2.044-63.112-1.178-80.316a31.36 31.36 0 01.397-3.92c2.341-12.959 32.208-39.332 37.794-28.098 6.881 13.867 22.689 1.199 25.404-5.111 15.604-.81 21.066 18.63 21.066 18.63l-5.462 23.489z" fill="#91BCDD"/><path d="M87.655 296.129c.658 2.052 68.5-.684 69.159-1.367a15.058 15.058 0 001.449-2.735 104.487 104.487 0 001.185-2.736l-2.634-22.14-67.183-2.476s-1.68 18.763-2.022 27.352a21.288 21.288 0 00.046 4.102z" fill="#094067"/><path opacity=".1" d="M87.655 296.129c.658 2.052 68.5-.684 69.159-1.367a15.033 15.033 0 001.449-2.736H87.609a21.306 21.306 0 00.046 4.103zm22.394-19.829l.177-.037-.836 8.242H92.924V276.3h17.125zm38.202-6.155l1.317 19.147h-29.639v-19.147h28.322z" fill="#000"/><path d="M95.952 258.223l21.066 11.339s12.483-13.769 20.285-3.24c7.802 10.53-22.626 13.77-22.626 13.77s-26.527-6.48-27.307-15.39c-.78-8.909 8.582-6.479 8.582-6.479z" fill="#FFB8B8"/><path opacity=".1" d="M66.975 302.382c-1.927 3.783-4.19 7.711-4.572 9.299-.258 1.077-3.113.453-7.607-1.305-9.012-3.539-24.631-11.647-39.206-19.755a12.21 12.21 0 01-1.903-1.296 64.61 64.61 0 01.343-1.943c3.581-18.589-2.044-63.113-1.178-80.317l6.64-2.3 13.263 12.959v55.078s34.33 19.439 36.67 21.059c1.194.826-.453 4.593-2.45 8.521z" fill="#000"/><path d="M60.842 288.192l12.484 3.239s14.044-17.819 28.868-11.339c14.824 6.48-18.725 19.439-18.725 19.439s-17.945 9.72-24.967 1.62c-7.022-8.1 2.34-12.959 2.34-12.959z" fill="#FFB8B8"/><path d="M19.491 200.715l-7.022 2.43s-18.725 71.277 3.121 83.427c21.846 12.149 46.033 24.299 46.813 21.059.78-3.24 9.363-16.2 7.022-17.82-2.34-1.62-36.67-21.059-36.67-21.059v-55.077l-13.264-12.96z" fill="#91BCDD"/><path opacity=".1" d="M30.024 230.279l-1.56 38.878 41.351 20.25-38.23-20.25-1.561-38.878z" fill="#000"/><path d="M88.15 181.276c.78.81 9.362 7.29 9.362 7.29s2.341 30.778-.78 37.258c-3.12 6.48-5.461 6.48-3.12 9.72 2.34 3.24 5.46.81 2.34 6.479-3.12 5.67-6.242 4.86-3.901 7.29 2.34 2.43 1.56 3.24 1.56 3.24l9.363 8.1s-5.744 9.498-13.015 8.798c-7.27-.699-13.512-37.147-13.512-37.147l11.703-51.028z" fill="#91BCDD"/><path d="M60.671 165.925c17.445 0 31.587-14.681 31.587-32.791s-14.142-32.791-31.587-32.791c-17.444 0-31.586 14.681-31.586 32.791s14.142 32.791 31.586 32.791z" fill="#55423D"/><path d="M58.502 168.316c12.927 0 23.406-10.879 23.406-24.298 0-13.42-10.48-24.299-23.406-24.299-12.927 0-23.407 10.879-23.407 24.299 0 13.419 10.48 24.298 23.407 24.298z" fill="#FFB8B8"/><path d="M63.258 107.234s-8.994 15.53-29.908 21.344c-20.913 5.814-.17 38.439-.17 38.439s-7.543-11.864 3.336-24.428c10.88-12.564 28.387-21.154 26.742-35.355zm2.647-.808c4.861 0 8.803-4.092 8.803-9.139s-3.942-9.139-8.803-9.139c-4.862 0-8.803 4.092-8.803 9.139s3.941 9.139 8.803 9.139z" fill="#55423D"/><path d="M276.298 61.904c5.936 0 10.748-4.996 10.748-11.158 0-6.162-4.812-11.158-10.748-11.158-5.936 0-10.748 4.996-10.748 11.158 0 6.162 4.812 11.158 10.748 11.158z" fill="#094067"/></svg>