<svg width="115" height="185" fill="none" xmlns="http://www.w3.org/2000/svg"><path d="M72.576 60.305a42.424 42.424 0 00-42.424 42.424c0 23.433 42.424 81.639 42.424 81.639S115 126.144 115 102.729a42.425 42.425 0 00-42.424-42.424zm0 64.263a21.837 21.837 0 1121.85-21.839 21.827 21.827 0 01-6.403 15.439 21.835 21.835 0 01-15.447 6.386v.014z" fill="#FF6E6C"/><path d="M54.285 23.892a16.546 16.546 0 00-3.408 3.177 15.416 15.416 0 00-2.681 4.99 13.744 13.744 0 00-.713 4.543l-5.277-4.506-6.791 1.522a21.229 21.229 0 003.64-4.578 22.983 22.983 0 002.139-4.802c.355-1.083.606-2.198.749-3.33 0 0 19.596-2.1 12.342 2.984z" fill="#FFB8B8"/><path d="M26.848 183.559c-.21.276-.463.516-.748.713l-10.368.243-6.951-5.298L8 180.875c-1.362.028-8-3.636-8-3.636l.774-1.929c0-.114.025-.228.039-.357.595-4.156 4.17-6.313 4.17-6.313l1.352-.578 8.239 1.993 2.57 4.852c2.392 5.062 4.945 5.515 6.278 5.315a3.736 3.736 0 012.642.564c1.576 1.087 1.28 2.117.784 2.773zM98.316 178.483c.325 2.178-9.436 5.137-9.436 5.137l-10.11-.31.028 1.091-7.922-.086-.05-2.185c0-.039-.025-.079-.035-.118-1.109-3.772.656-8.36.656-8.36l.784-1.383 7.865-2.378a52.67 52.67 0 005.286 4.242c3.33 2.382 6.06 2.043 8.777 1.708 2.496-.31 3.647.339 4.061 2.139.04.171.068.332.096.503z" fill="#343344"/><path d="M51.194 113.243c-.26.556-1.12 2.103-2.253 4.107-3.394 5.996-9.27 16.096-9.27 16.096-1.529 4.677-10.366 11.982-10.366 11.982s-6.517 13.258-11.052 18.278c-4.535 5.019-2.25 8.787-2.25 8.787l-11.012-3.836c1.879-1.408 4.456-8.021 4.456-8.021 4.553-15.397 16.531-28.52 16.531-28.52s4.517-5.294 5.209-10.77c.517-4.111 2.075-9.782 2.823-12.356a9.374 9.374 0 00.357-2.852v-.418a9.769 9.769 0 00-1.07-4.163 10.34 10.34 0 01-.884-7.487 8.557 8.557 0 011.07-2.531l2.691-.785 9.512-2.78s.588 2.075 1.383 5.034c1.857 6.923 4.852 18.691 4.125 20.235z" fill="#094067"/><path d="M81.486 170.96l-10.046 2.692s-.047-1.907-2.888-6.756c-2.841-4.848-9.55-22.983-10.542-30.331-.99-7.347-8.042-17.012-8.042-17.012s-.464-.949-1.034-2.203c-.528-1.159-1.141-2.574-1.562-3.744-.877-2.435-4.78-5.893-4.78-5.893-7.148-3.964-8.557-8.713-8.639-11.679a8.331 8.331 0 01.382-2.873l1.832-2.4 3.465-4.548 11.719-12.56 7.13 1.469.431 18.285c5.423 7.098 8.77 23.208 9.886 29.304a21.19 21.19 0 001.137 3.922c1.879 4.831 2.075 13.151 2.075 13.151s3.565 12.749 3.144 17.672c-.42 4.923 6.332 13.504 6.332 13.504z" fill="#094067"/><path d="M59.44 69.094s5.554 3.967 7.757 4.734c2.203.766 7.451 3.647 7.451 3.647s15.43 5.918 10.053 9.593c-5.375 3.676-12.391-4.634-12.391-4.634s-3.056-2.114-5.523-2.603c-2.467-.488-7.718-3.344-7.718-3.344l.37-7.393z" fill="#FFB8B8"/><path opacity=".1" d="M54.285 23.892a16.549 16.549 0 00-3.408 3.177c-.65.134-1.31.21-1.972.228-3.002.071-4.556-3.209-6.538-5.173.624-1.982-.435-1.215-.435-1.215s19.607-2.1 12.353 2.983z" fill="#000"/><path d="M48.645 26.752c5.879 0 10.645-4.766 10.645-10.645 0-5.88-4.766-10.646-10.645-10.646C42.765 5.461 38 10.227 38 16.107c0 5.879 4.766 10.645 10.645 10.645z" fill="#FFB8B8"/><path opacity=".1" d="M47.486 36.612l-5.28-4.516-6.791 1.522a21.228 21.228 0 003.64-4.578h.046a9.115 9.115 0 016.592 1.262c.873.545 1.713 1.14 2.517 1.783a13.745 13.745 0 00-.724 4.527zM58.488 75.122l.096 4.082c-.82-.824-4.916-4.71-3.8.92 1.24 6.253-6.025 10.79-6.025 10.79a27.27 27.27 0 01-1.69 2.1c-5.761 6.386-10.866 4.44-13.108 3.02a7.811 7.811 0 01-1.213-.923 1.93 1.93 0 01-.356-1.034 8.558 8.558 0 011.07-2.531l2.691-.784 3.465-4.55 11.718-12.559 7.152 1.469z" fill="#000"/><path d="M58.712 78.805s-5.18-5.476-3.921.773c1.258 6.25-6.028 10.791-6.028 10.791-8.464 11.665-16.011 4.196-16.011 4.196s-1.96-2.139 3.037-10.174c3.83-6.15 1.184-15.351-.267-19.326a50.759 50.759 0 01-1.587-5.244l-.356-1.426-.816-3.337a35.849 35.849 0 01-.892-11.918c.244-2.67.802-5.303 1.662-7.843.549-1.626 1.165-3.023 1.828-3.857a6.193 6.193 0 013.744-2.14 9.102 9.102 0 016.592 1.259 24.922 24.922 0 013.921 2.998c2.795 2.663-.474 3.013-.474 3.013-2.118 2.78 3.733 7.843 3.733 7.843s8.623 6.894 6.556 11.857c-2.068 4.962-.118 6.556 1.126 13.08 1.244 6.524-1.847 9.455-1.847 9.455z" fill="#FAFAFA"/><path opacity=".1" d="M47.939.595c-1.633.292-3.109 1.184-4.738 1.487-1.697.31-3.437-.029-5.159 0A12.435 12.435 0 0031.53 4.01a3.358 3.358 0 00-1.212 1.152 4.425 4.425 0 00-.356 1.782c-.482 6.371-5.024 11.669-9.85 15.854a6.548 6.548 0 00-1.637 1.783c-.492.937-.478 2.042-.485 3.101-.075 10.556-3.757 21.643-12.12 28.078 2.826 1.865 7.13.856 8.83-2.071a26.047 26.047 0 01-3.619 9.073c3.73-.078 6.478-3.376 8.688-6.381a17.779 17.779 0 01-2.495 10.666c4.99-.431 10.089-1.508 14.124-4.46 1.85-1.35 3.526-3.319 3.487-5.608-.022-1.308-.606-2.534-1.023-3.778-1.088-3.237-.827-7.32 1.868-9.42.508-.33.985-.706 1.426-1.122.617-.692.834-1.647.959-2.563a18.244 18.244 0 00-.332-6.71 4.938 4.938 0 01-.217-1.426c.06-1.009.82-1.854 1.682-2.374.863-.52 1.847-.806 2.763-1.237a9.486 9.486 0 005.305-8.378c0-1.023-.132-2.164.514-2.952.958-1.17 2.955-.77 4.103-1.754 1.087-.93.966-2.663 1.725-3.879.624-.998 1.783-1.529 2.628-2.331 4.235-3.929-4.92-9.07-8.346-8.46z" fill="#000"/><path opacity=".1" d="M47.04 40.923v.067l-6.723 9.116-4.125 5.594s-1.12 1.07-2.624 2.677l-.816-3.337a35.852 35.852 0 01-.891-11.918c1.558-3.108 3.233-5.194 4.802-6.591a6.242 6.242 0 0110.378 4.392z" fill="#000"/><path d="M47.91.05c-1.632.292-3.108 1.183-4.737 1.483-1.694.313-3.434-.029-5.16 0-2.302.025-4.553.689-6.502 1.918A3.359 3.359 0 0030.3 4.602a4.429 4.429 0 00-.356 1.783c-.478 6.37-5.023 11.668-9.85 15.853a6.607 6.607 0 00-1.637 1.783c-.488.934-.477 2.043-.485 3.101-.07 10.556-3.757 21.644-12.12 28.078 2.823 1.865 7.13.853 8.826-2.07a26.025 26.025 0 01-3.611 9.097c3.729-.078 6.478-3.38 8.688-6.385.308 3.73-.568 7.46-2.503 10.663 4.991-.431 10.09-1.508 14.128-4.46 1.847-1.35 3.526-3.319 3.487-5.607-.025-1.309-.606-2.535-1.023-3.78-1.091-3.236-.83-7.318 1.864-9.418.508-.332.986-.71 1.426-1.127.617-.688.835-1.643.96-2.56.302-2.239.188-4.514-.336-6.712a4.888 4.888 0 01-.214-1.426c.061-1.01.817-1.854 1.68-2.375.862-.52 1.85-.805 2.762-1.237a9.483 9.483 0 005.32-8.356c0-1.023-.136-2.164.513-2.956.959-1.165 2.952-.766 4.1-1.75 1.09-.93.966-2.663 1.725-3.879.624-.998 1.782-1.53 2.631-2.331C60.506 4.577 51.351-.56 47.91.05z" fill="#343344"/><path d="M46.484 40.391v.068l-6.727 9.127-4.121 5.597s-7.747 7.28-9.797 13.062a38.175 38.175 0 01-2.973 6.217 109.609 109.609 0 00-5.55 10.788 10.446 10.446 0 01-1.13 2.057 8.33 8.33 0 00-1.548 3.861s-2.26 8.517-8.225 10.292C.45 103.236 3.74 92.241 5.087 91.389c.756-.478 2.514-2.27 3.922-3.754a14.795 14.795 0 002.977-4.656l1.3-3.248S19.49 64.844 20.564 64c.313-.27.578-.59.784-.948a174.14 174.14 0 012.631-4.164c1.18-1.804 3.048-5.401 5.726-12.574.189-.506.378-.988.574-1.455 1.832-4.392 3.921-7.13 5.84-8.848a6.242 6.242 0 0110.366 4.381z" fill="#FFB8B8"/><path d="M46.63 40.36v.07l-6.848 9.295-9.665-4.813c1.865-4.474 3.99-7.27 5.947-9.013a6.356 6.356 0 0110.567 4.46z" fill="#FAFAFA"/><path opacity=".1" d="M38.153 33.136s7.262 3.116 10.827 3.305l-10.827-3.305z" fill="#000"/><path opacity=".1" d="M98.316 178.483c.325 2.178-9.436 5.137-9.436 5.137l-10.11-.31.028 1.091-7.922-.086-.05-2.185c0-.04-.025-.079-.035-.118l18.181.378 9.234-4.396c.053.157.082.317.11.489zM26.848 183.559c-.21.276-.463.516-.748.713l-10.368.243-6.951-5.298L8 180.875c-1.362.028-8-3.636-8-3.636l.774-1.929c0-.114.025-.228.039-.357l8.089 3.565 6.945 5.024 11.001.017z" fill="#343344"/><path opacity=".1" d="M33.928 93.036s3.9-8.282 7.922-10.845l-7.922 10.845zM49.443 56.088s2.286 4.257 9.209 2.624l-9.209-2.624z" fill="#000"/></svg>