<svg width="115" height="212" viewBox="0 0 115 212" fill="none" xmlns="http://www.w3.org/2000/svg">
<path d="M40.2534 159.062C40.2534 159.062 51.5679 174.946 52.2206 175.163C52.8734 175.381 57.4427 171.464 57.4427 171.464C57.4427 171.464 51.7855 157.756 50.0448 157.104C48.3041 156.451 40.2534 159.062 40.2534 159.062Z" fill="#FFB8B8"/>
<path d="M20.4532 158.627L14.7959 174.511L20.8883 176.904L31.3325 156.233L20.4532 158.627Z" fill="#FFB8B8"/>
<path d="M13.9255 171.682L5.00448 194.964C5.00448 194.964 5.65724 196.269 5.00448 196.487C4.35172 196.704 2.82861 200.186 2.82861 200.403C2.82861 200.621 1.30552 200.838 1.30552 201.491C1.30552 202.144 0 207.366 0 207.366C0 207.366 2.39344 212.588 3.91656 211.065C5.43967 209.542 6.0924 206.496 6.0924 206.496L8.26827 200.838C8.26827 200.838 8.05068 197.792 9.57378 197.357C11.0969 196.922 11.9672 191.482 11.9672 191.482C11.9672 191.482 14.3607 189.089 14.7958 188.436C15.231 187.783 22.8465 176.251 22.1938 176.034C21.541 175.816 13.9255 171.682 13.9255 171.682Z" fill="#094067"/>
<path d="M50.9151 174.728L57.4427 170.376C57.4427 170.376 68.7571 191.047 68.7571 191.482C68.7571 191.917 68.322 193.223 68.7571 193.658C69.1923 194.093 72.8913 201.056 75.2847 201.709C77.6782 202.362 78.1133 204.973 76.1551 205.408C74.1968 205.843 71.5858 206.931 70.933 205.408C70.5513 204.512 70.1154 203.64 69.6275 202.797C69.6275 202.797 67.4516 203.45 67.234 203.014C66.9829 202.373 66.7651 201.72 66.5813 201.056C66.5813 201.056 64.8406 198.01 64.8406 196.922C64.8406 195.834 63.7527 195.616 63.7527 195.616C63.7527 195.616 61.3592 189.959 59.8361 189.089C58.313 188.218 57.0075 183.867 57.0075 183.867L50.9151 174.728Z" fill="#094067"/>
<path d="M24.3696 140.35C24.3696 140.35 15.0307 165.159 16.3362 165.159C17.6417 165.159 53.759 165.945 54.8469 164.204C55.9348 162.463 45.4755 145.136 45.0403 144.919C44.6051 144.701 24.3696 140.35 24.3696 140.35Z" fill="#094067"/>
<path d="M115 54.4213V54.7471C114.993 55.5653 114.969 56.3797 114.93 57.1905C114.224 71.0658 108.238 84.1458 98.199 93.75C88.1599 103.354 74.8278 108.755 60.9348 108.846C47.0418 108.937 33.6401 103.711 23.4762 94.2388C13.3124 84.7668 7.15596 71.7662 6.26873 57.9013C6.19468 56.7499 6.15767 55.5899 6.15767 54.4213C6.13814 43.1498 9.63633 32.153 16.1645 22.9644C16.6865 22.224 17.2295 21.4971 17.7934 20.7839C18.1822 20.2878 18.582 19.8028 18.9855 19.3215C28.1723 8.43817 41.2588 1.58905 55.4374 0.243582C69.6161 -1.10189 83.7573 3.16349 94.8272 12.1246C95.4824 12.654 96.1266 13.2019 96.756 13.7609C97.2595 14.2089 97.7543 14.6667 98.2405 15.1344C107.816 24.2939 113.71 36.6402 114.811 49.8455C114.937 51.356 115 52.8812 115 54.4213Z" fill="#9FD5FF"/>
<path d="M17.7934 20.7838C17.8201 20.795 17.845 20.81 17.8675 20.8283C18.1599 21.0689 17.7934 21.5317 17.8379 21.913C17.8897 22.4017 18.5413 22.509 19.0336 22.5572C19.526 22.609 20.148 23.0051 19.9148 23.442C18.6782 23.8677 17.4269 23.4494 16.1645 22.9644C9.63633 32.153 6.13814 43.1498 6.15767 54.4213C6.15767 55.5912 6.19468 56.7512 6.26873 57.9013C6.37224 57.9768 6.48559 58.0379 6.60563 58.0827C6.97584 58.2234 7.40528 58.1975 7.74588 58.3974C8.01614 58.5566 8.19754 58.8379 8.46779 58.986C9.24154 59.4081 10.3152 58.5973 11.0371 59.1008C11.2237 59.2707 11.4004 59.4512 11.5665 59.6413C12.2328 60.2188 13.3287 59.8301 14.0987 60.2632C14.5948 60.5409 14.8503 61.0962 15.1168 61.5997C15.7795 62.8584 16.8531 64.0949 18.271 64.1949C18.7182 64.1744 19.1663 64.1892 19.6112 64.2393C20.048 64.3393 20.4775 64.7206 20.4071 65.1611C20.285 65.9201 20.6589 66.7494 20.5589 67.5083C20.3775 68.8966 18.4117 69.5037 18.2451 70.892C18.2445 71.1976 18.2272 71.5028 18.1933 71.8065C18.1044 72.1693 17.8305 72.4654 17.7342 72.8283C17.5491 73.5131 18.0415 74.198 18.5783 74.6571C19.1188 75.1199 19.763 75.5197 20.0591 76.1639C20.3701 76.8488 20.2183 77.6447 20.3183 78.3888C20.5404 80.0141 21.9435 81.2173 23.3873 81.9947C23.85 82.1881 24.2609 82.4873 24.5868 82.8684C24.957 83.4052 24.92 84.1123 25.0459 84.7528C25.3495 86.3188 26.6674 87.6108 26.7044 89.2064C26.7303 90.343 26.101 91.3722 25.7234 92.4421C25.3349 93.5637 25.2194 94.7617 25.3865 95.9369C27.4974 97.7272 29.7411 99.3546 32.0984 100.805C32.2267 100.616 32.3206 100.405 32.3761 100.183C32.4209 99.9378 32.39 99.6845 32.2875 99.4571C32.185 99.2296 32.0158 99.0387 31.8023 98.9097C32.2001 98.7594 32.5621 98.5273 32.8648 98.2285C33.0135 98.0755 33.1117 97.8806 33.1461 97.6701C33.1806 97.4596 33.1495 97.2436 33.0573 97.0512C33.7089 97.1327 34.4826 97.1734 34.9121 96.6736C35.2564 96.2738 35.2341 95.674 35.0972 95.1668C34.9602 94.6559 34.7307 94.1636 34.7269 93.6341C36.2366 93.7076 37.7497 93.6569 39.2509 93.4824C39.0337 92.7501 38.5397 92.1313 37.8738 91.7572C38.5549 91.6424 39.1732 90.8279 39.3879 90.1727C39.5736 89.5041 39.5838 88.799 39.4175 88.1254C39.3661 87.9523 39.3584 87.7691 39.3953 87.5923C39.5048 87.3575 39.6974 87.1716 39.9358 87.0703C41.0613 86.4224 42.1867 85.7758 43.3122 85.1304C43.513 85.0291 43.6956 84.8952 43.8527 84.7343C44.2044 84.3159 44.1526 83.6903 43.9711 83.1757C43.7897 82.6611 43.501 82.1761 43.4306 81.6356C43.2233 80.0177 44.9559 78.8553 45.5408 77.33C45.7397 76.7211 45.847 76.0861 45.8592 75.4456C45.9074 74.757 45.9111 73.9611 45.3854 73.5205C44.8782 73.0948 44.0896 73.1911 43.5602 72.7949C43.0752 72.4321 42.9086 71.7324 42.3792 71.4399C41.898 71.1734 41.2982 71.3437 40.7614 71.2178C39.8211 70.9994 39.2287 69.9147 38.2662 69.8147C37.7257 69.7555 37.1111 70.022 36.6669 69.7074C36.2744 69.426 36.2596 68.867 36.1856 68.3931C36.0541 67.655 35.6999 66.9748 35.1704 66.444C34.6409 65.9133 33.9617 65.5573 33.2239 65.424C32.6649 65.3352 32.0577 65.3685 31.5801 65.0612C31.0989 64.7502 30.8804 64.169 30.4991 63.7358C29.892 63.0435 28.9294 62.7955 28.0298 62.5845C26.8081 62.2994 25.5876 62.0131 24.3684 61.7256C23.7205 61.5701 22.8838 61.4886 22.5321 62.0588C22.4281 62.2756 22.3557 62.5062 22.3174 62.7437C22.1852 63.1709 21.9215 63.5455 21.5638 63.8141C21.2062 64.0827 20.7729 64.2315 20.3257 64.2393C20.0195 63.7166 19.5236 63.332 18.9411 63.1657C18.5605 63.1018 18.1845 63.0128 17.8157 62.8992C17.623 62.8048 17.4517 62.6721 17.3121 62.5092C17.1725 62.3463 17.0676 62.1567 17.0039 61.9519C16.9401 61.7471 16.9188 61.5314 16.9412 61.3181C16.9637 61.1048 17.0294 60.8983 17.1345 60.7112C17.3444 60.3355 17.4251 59.9012 17.3643 59.4752C17.3034 59.0491 17.1043 58.6549 16.7976 58.353C16.1756 57.7939 15.276 57.657 14.4393 57.7125C14.2209 57.2349 14.5874 56.6981 14.9798 56.3501C15.3759 56.0058 15.8535 55.6652 15.9387 55.1469C16.0757 54.3324 15.0354 53.7142 14.2468 53.9548C13.4583 54.1992 12.9548 54.9655 12.6216 55.7207C12.46 56.1664 12.2396 56.5884 11.9663 56.9758C11.8263 57.1674 11.6359 57.3165 11.4164 57.4067C11.1969 57.4968 10.9567 57.5245 10.7224 57.4867C10.0708 57.3201 9.82277 56.5463 9.67839 55.8947C9.44703 55.0239 9.33004 54.1266 9.33039 53.2255C9.33605 52.3156 9.69746 51.4439 10.3374 50.7969C11.4147 49.8048 13.0732 49.901 14.5282 50.0602C14.3723 49.8523 14.2976 49.5948 14.3181 49.3358C14.3385 49.0768 14.4527 48.8342 14.6392 48.6534C14.8339 48.4805 15.0679 48.3578 15.3208 48.2958C15.5737 48.2339 15.8379 48.2346 16.0905 48.298C16.5291 48.3888 16.9243 48.6249 17.2122 48.9681C17.6268 49.4716 17.7453 50.1565 18.0563 50.7266C18.371 51.3004 19.0744 51.7891 19.6482 51.4818C20.148 51.2153 20.2257 50.5267 20.1036 49.9751C19.9777 49.4271 19.7148 48.8903 19.7593 48.3276C19.8444 47.2577 20.9588 46.6098 21.9398 46.1693C22.9209 45.7287 24.0426 45.1327 24.1981 44.0665C24.2053 43.8591 24.2453 43.6542 24.3166 43.4593C24.4251 43.2854 24.5769 43.1425 24.7571 43.0447C27.6189 41.1529 30.5324 39.2352 33.8051 38.2023C33.9754 38.1468 33.9939 38.206 34.1679 38.1653C34.4122 38.0246 34.2494 37.6359 34.0161 37.4804C33.7829 37.3249 33.4719 37.2028 33.4127 36.9288C33.372 36.7289 33.4904 36.529 33.52 36.3254C33.5278 36.2024 33.5052 36.0794 33.4544 35.9671C33.4035 35.8549 33.3259 35.7568 33.2283 35.6815C33.1308 35.6063 33.0162 35.5561 32.8948 35.5353C32.7733 35.5146 32.6486 35.524 32.5316 35.5627C32.2687 35.2147 32.787 34.8112 33.2091 34.6927C34.4727 34.3466 35.7696 34.1356 37.0778 34.0634C37.2288 34.0384 37.3838 34.0645 37.5183 34.1374C37.6145 34.2302 37.6716 34.3563 37.6778 34.4899C37.684 34.6234 37.6389 34.7543 37.5517 34.8556C37.3735 35.0534 37.1764 35.2332 36.963 35.3924C36.7506 35.5987 36.5989 35.8594 36.5245 36.146C36.4501 36.4326 36.4558 36.7341 36.541 37.0177C37.2259 37.3657 37.9663 37.7248 38.7252 37.6026C39.4805 37.4804 40.1505 36.6289 39.7951 35.9514C39.4657 35.3184 38.4698 35.174 38.2995 34.4817C38.0996 33.6709 39.2472 32.949 38.9881 32.1568C38.877 31.8088 38.529 31.6014 38.2625 31.3534C37.9488 31.0446 37.7354 30.6484 37.6502 30.2165C37.565 29.7846 37.612 29.337 37.7849 28.9322C37.3515 29.0079 36.9062 28.9789 36.4863 28.8475C36.0664 28.7161 35.6841 28.4862 35.3711 28.177C34.7936 27.5957 34.3345 26.6739 33.5126 26.7035C32.7611 26.7257 32.1132 27.6031 31.4098 27.3366C31.2358 27.27 31.0544 27.1367 30.8878 27.2144C30.8329 27.2498 30.7867 27.2971 30.7527 27.3529C30.7187 27.4087 30.6978 27.4715 30.6916 27.5365C30.5139 28.3917 30.8212 29.3654 30.3547 30.1058C29.8475 30.9091 28.674 31.0202 28.0594 31.7458C27.7262 32.1382 27.5966 32.6677 27.2894 33.0823C26.9821 33.4969 26.3342 33.7635 25.964 33.4007C26.1453 33.029 26.195 32.6068 26.1048 32.2032C26.0147 31.7996 25.7901 31.4386 25.4679 31.1794C25.1269 30.9556 24.7587 30.7764 24.3721 30.6463C23.9403 30.4641 23.5294 30.2357 23.1467 29.9651C22.956 29.8489 22.801 29.6824 22.6987 29.4838C22.6179 29.2342 22.6283 28.9639 22.7283 28.7212C22.9158 28.1865 23.2454 27.713 23.6818 27.3517C24.1182 26.9903 24.6448 26.7547 25.2051 26.6702C25.6938 26.6036 26.2639 26.6258 26.5897 26.2519C26.76 26.0557 26.8488 25.7558 27.1005 25.6781C27.2591 25.645 27.4242 25.6645 27.5707 25.7336C28.1816 25.9483 28.7887 26.1631 29.3996 26.3778C29.6033 26.4712 29.8283 26.5083 30.0512 26.4851C30.1616 26.4709 30.2625 26.4151 30.3333 26.3292C30.4042 26.2432 30.4396 26.1335 30.4325 26.0224C30.3732 25.7188 29.9068 25.5744 29.9512 25.2671C29.9728 25.1667 30.026 25.0759 30.103 25.008C30.7633 24.3057 31.5706 23.758 32.4673 23.404C33.3639 23.0501 34.3277 22.8987 35.2897 22.9607C35.5192 23.342 35.1564 23.79 34.8491 24.1121C34.5455 24.4379 34.3012 25.0154 34.6714 25.2634C34.8208 25.3418 34.9879 25.38 35.1564 25.3745C35.6066 25.4349 36.0441 25.5674 36.4521 25.7669C37.0852 26.0409 37.7072 26.3444 38.3143 26.6702C38.2249 26.2733 38.2402 25.86 38.3587 25.4707C38.4256 25.2797 38.5613 25.1204 38.7392 25.0239C38.9171 24.9274 39.1247 24.9006 39.3213 24.9488C39.6841 25.0894 39.8692 25.5707 40.2579 25.6151C40.7725 25.6744 40.9761 24.9117 40.7614 24.4379C40.5467 23.964 40.1172 23.5716 40.0839 23.0496C40.058 22.7016 40.1913 22.2684 39.9136 22.0574C39.8149 21.992 39.7019 21.9514 39.5841 21.9389C37.2592 21.5132 34.933 21.0862 32.6056 20.658C32.191 20.5802 31.595 20.6395 31.5764 21.0578C31.5653 21.2948 31.7763 21.528 31.6838 21.7427C31.5838 21.9722 31.2581 21.9537 31.0211 22.0352C30.8431 22.1159 30.6962 22.2525 30.6027 22.4241C30.5092 22.5958 30.4741 22.7933 30.5028 22.9866C30.5661 23.3716 30.7154 23.7373 30.9397 24.0565C30.4843 23.8677 29.7994 23.8344 29.344 23.6419C29.2778 23.1146 29.1434 22.5982 28.9442 22.1055C28.9328 22.0271 28.9044 21.9522 28.8609 21.8859C28.8175 21.8197 28.76 21.7638 28.6926 21.7221C28.6252 21.6805 28.5495 21.6541 28.4708 21.6449C28.3921 21.6356 28.3123 21.6438 28.2371 21.6687C27.6374 21.7612 27.0376 21.8501 26.4379 21.9426C26.2873 21.9498 26.1431 22.0056 26.027 22.1018C25.7937 22.3499 26.0232 22.746 26.0158 23.0866C25.9941 23.277 25.9137 23.456 25.7857 23.5986C25.6576 23.7413 25.4883 23.8405 25.3013 23.8825C24.9245 23.959 24.5357 23.954 24.1611 23.8677C23.3207 23.7382 22.484 23.6086 21.6436 23.479C22.3854 23.2426 23.0452 22.8011 23.5465 22.2055C23.8797 21.8131 24.0574 21.08 23.5761 20.8949C23.434 20.8559 23.2857 20.8446 23.1393 20.8616C21.999 20.869 21.0994 19.9176 20.0332 19.514C19.698 19.389 19.3433 19.3238 18.9855 19.3215L17.7934 20.7838Z" fill="#2CB67D"/>
<path d="M42.9771 107.987C48.1422 107.987 52.3294 103.8 52.3294 98.6351C52.3294 93.47 48.1422 89.2828 42.9771 89.2828C37.812 89.2828 33.6248 93.47 33.6248 98.6351C33.6248 103.8 37.812 107.987 42.9771 107.987Z" fill="#2F2E41"/>
<path d="M38.5127 103.36C38.5127 103.36 35.4665 110.105 34.5961 110.323C33.7258 110.54 41.7765 114.457 41.7765 114.457C41.7765 114.457 43.2996 106.189 43.9523 105.753C44.6051 105.318 38.5127 103.36 38.5127 103.36Z" fill="#FFB8B8"/>
<path d="M74.1968 106.841L80.0716 106.406C80.0716 106.406 87.0343 99.0082 87.4695 101.402C87.9047 103.795 81.8123 109.017 81.8123 109.017L73.7616 109.888L74.1968 106.841Z" fill="#FFB8B8"/>
<path d="M43.082 108.364C46.5669 108.364 49.392 105.539 49.392 102.054C49.392 98.5696 46.5669 95.7445 43.082 95.7445C39.5971 95.7445 36.772 98.5696 36.772 102.054C36.772 105.539 39.5971 108.364 43.082 108.364Z" fill="#FFB8B8"/>
<path d="M45.9106 111.628C45.9106 111.628 50.6975 111.411 50.9151 111.628C51.1326 111.846 54.1789 111.628 54.1789 111.628C54.1789 111.628 62.4471 109.67 63.0999 109.017C63.7526 108.365 74.6319 105.536 75.0671 106.841C75.5023 108.147 76.5902 110.758 75.5023 111.193C74.4143 111.628 45.0402 119.026 45.0402 119.026L45.9106 111.628Z" fill="#FAFAFA"/>
<path d="M44.065 100.522C47.6271 100.522 50.5148 98.7895 50.5148 96.6522C50.5148 94.5149 47.6271 92.7823 44.065 92.7823C40.5028 92.7823 37.6151 94.5149 37.6151 96.6522C37.6151 98.7895 40.5028 100.522 44.065 100.522Z" fill="#2F2E41"/>
<path d="M15.0135 88.5641L8.48588 78.5552C8.48588 78.5552 10.1001 68.0557 7.92424 70.0139C5.74838 71.9722 5.05981 79.8803 5.05981 79.8803L12.62 91.3927L15.0135 88.5641Z" fill="#FFB8B8"/>
<path d="M31.3324 109.017V106.841C31.3324 106.841 25.6752 103.142 25.8927 102.49C26.1103 101.837 25.4576 101.402 25.4576 101.402C25.4576 101.402 24.8048 100.531 24.8048 100.314C24.8048 100.096 23.9345 99.8786 23.9345 99.8786L18.4948 93.5686C18.4948 93.5686 15.4486 87.4762 14.7959 87.6938C14.1431 87.9114 10.6617 89.2169 11.0969 90.0873C11.5321 90.9576 23.7169 109.67 23.7169 109.67C23.7169 109.67 24.3697 113.804 25.4576 113.804C26.5455 113.804 31.3324 109.017 31.3324 109.017Z" fill="#FAFAFA"/>
<path d="M36.6632 106.732C36.6632 106.732 34.7049 108.256 34.2698 108.473C33.8346 108.691 31.2236 106.515 30.7884 106.515C30.3532 106.515 24.696 113.042 24.696 113.042C24.696 113.042 25.7473 114.253 24.696 120.44C24.3017 122.761 23.5194 132.681 23.5194 133.986C23.5194 135.292 19.2563 138.5 23.1729 141.329C27.0894 144.157 45.8018 147.203 46.0194 145.463C46.237 143.722 43.8435 139.153 44.9315 136.977C46.0194 134.801 46.0194 126.75 46.0194 126.75L47.3249 118.265L48.4128 111.519C48.4128 111.519 43.2996 110.105 42.8644 110.105C42.4292 110.105 40.471 113.151 36.6632 106.732Z" fill="#FAFAFA"/>
<path d="M39.7056 92.6619C41.8429 92.6619 43.5755 90.9293 43.5755 88.792C43.5755 86.6547 41.8429 84.9221 39.7056 84.9221C37.5683 84.9221 35.8357 86.6547 35.8357 88.792C35.8357 90.9293 37.5683 92.6619 39.7056 92.6619Z" fill="#2F2E41"/>
<path d="M34.5457 86.6958C34.5458 85.7393 34.9001 84.8166 35.5403 84.1059C36.1805 83.3951 37.0612 82.9466 38.0125 82.8469C37.8786 82.833 37.7441 82.826 37.6094 82.8259C36.5831 82.8259 35.5987 83.2337 34.873 83.9594C34.1472 84.6852 33.7395 85.6695 33.7395 86.6958C33.7395 87.7222 34.1472 88.7065 34.873 89.4323C35.5987 90.158 36.5831 90.5658 37.6094 90.5658C37.7441 90.5657 37.8786 90.5587 38.0125 90.5448C37.0612 90.4451 36.1805 89.9966 35.5403 89.2858C34.9001 88.5751 34.5458 87.6524 34.5457 86.6958Z" fill="#2F2E41"/>
<path d="M114.93 57.1906C114.799 57.3658 114.628 57.5064 114.43 57.6C114.233 57.6936 114.015 57.7373 113.797 57.7274C112.638 57.6274 112.149 55.9577 111.002 55.7689C110.9 55.7429 110.793 55.7534 110.698 55.7986C110.528 55.8911 110.498 56.1206 110.487 56.3132C110.439 57.2683 110.398 58.2605 110.772 59.1416C111.316 60.4299 112.727 61.5109 112.431 62.877C110.839 62.1403 110.01 60.3522 109.636 58.6381C109.258 56.924 109.199 55.1248 108.525 53.5032C108.01 54.1585 106.937 53.618 106.47 52.9294C106.026 52.2779 105.752 51.5226 105.323 50.8599C104.893 50.201 104.234 49.6086 103.449 49.5716C102.624 49.5346 101.906 50.101 101.276 50.6378C100.729 51.0422 100.269 51.5536 99.925 52.1409C99.4844 53.0294 99.5992 54.0734 99.577 55.0619C99.5548 56.1281 99.3289 57.2572 98.5996 58.0421C97.8703 58.8232 96.5264 59.0972 95.7231 58.3901C95.3346 57.9851 95.0578 57.4864 94.9197 56.9425C94.0463 54.3972 93.3195 51.804 92.7429 49.1755C92.6096 49.7752 92.0802 50.549 91.5767 50.1973C91.4641 50.1015 91.3732 49.9829 91.3101 49.8493C90.3698 48.2611 88.6335 47.3059 86.875 46.7321C85.1202 46.162 83.2728 45.8954 81.5365 45.2661C80.5628 44.9125 79.6325 44.4492 78.7636 43.8852C78.5429 44.2103 78.4141 44.5889 78.3906 44.9812C78.3672 45.3734 78.45 45.7647 78.6304 46.1138C78.8255 46.4554 79.128 46.723 79.4909 46.875C79.8537 47.0269 80.2566 47.0548 80.6369 46.9542C81.0219 46.8284 81.3477 46.5618 81.729 46.4285C82.1104 46.299 82.625 46.3619 82.7915 46.7321C82.9544 47.0838 82.7101 47.5096 82.8323 47.8798C83.0137 48.4388 83.8615 48.4832 84.1576 48.9941C84.2447 49.1964 84.2647 49.4213 84.2147 49.6358C84.1648 49.8503 84.0475 50.0431 83.88 50.1862C83.5393 50.464 83.1633 50.6955 82.7619 50.8748C81.518 51.5671 80.6332 52.748 79.5448 53.6662C78.4564 54.588 76.92 55.2581 75.6243 54.6694C75.9315 53.1034 74.0694 51.9558 73.7251 50.3972C73.6103 49.8826 73.6695 49.3384 73.5103 48.8386C73.2771 48.113 72.6329 47.6169 72.1072 47.069C71.4686 46.3963 70.9709 45.6027 70.6434 44.7349C70.316 43.8671 70.1655 42.9425 70.2007 42.0156C70.2303 41.3714 70.3487 40.7161 70.2007 40.0868C70.0563 39.4611 69.5343 38.854 68.8901 38.8799C67.4204 38.9465 65.5656 39.0576 64.7955 37.8026C64.5179 37.3546 64.3994 36.6993 64.7992 36.3551C65.0806 36.1144 65.4953 36.1366 65.8618 36.1737C66.9687 36.281 68.0719 36.3921 69.1789 36.4994C69.9526 36.5735 70.7893 36.6364 71.4557 36.2329C72.122 35.8294 72.4108 34.752 71.7925 34.2745C71.3446 33.9265 70.5375 33.945 70.4043 33.3934C70.2969 32.9306 70.8078 32.4086 70.5301 32.0199C70.3339 31.7459 69.8897 31.82 69.6194 32.0273C69.3836 32.2721 69.1272 32.4963 68.8531 32.6974C68.3237 32.9713 67.6943 32.7085 67.1242 32.5308C66.554 32.3531 65.7914 32.3383 65.5175 32.8677C65.2065 33.4563 65.7877 34.2337 65.4841 34.8261C65.0769 35.6072 63.7071 35.163 63.137 35.8368C62.4854 36.6068 63.5812 37.7619 63.3628 38.7466C63.0816 38.8861 62.769 38.9502 62.4556 38.9327C62.1421 38.9152 61.8386 38.8166 61.5747 38.6467C61.3156 38.4705 61.1093 38.2273 60.9776 37.943C60.8459 37.6588 60.7938 37.3441 60.8269 37.0326C60.8787 36.5883 61.1119 36.1329 60.9564 35.7146C60.7888 35.3915 60.512 35.1384 60.1753 35.0001C59.1017 34.404 58.028 33.8105 56.9544 33.2194C56.6545 33.7747 57.0322 34.4596 57.506 34.8779C57.9762 35.2926 58.5686 35.6072 58.8795 36.1551C59.0764 36.5349 59.1209 36.9755 59.004 37.3869C58.887 37.7984 58.6174 38.1496 58.2502 38.369C58.2037 38.401 58.1508 38.4225 58.0952 38.4321C58.0396 38.4417 57.9826 38.4391 57.9281 38.4245C57.8768 38.3944 57.832 38.3543 57.7964 38.3067C57.7608 38.259 57.7351 38.2047 57.7208 38.1469C57.1543 36.692 56.2991 35.2592 54.9368 34.5003C53.5707 33.7377 51.6122 33.8969 50.7163 35.1741C50.5053 35.4777 50.361 35.8257 50.1758 36.1477C49.1948 37.8544 47.0846 38.6615 45.115 38.6097C44.9224 38.622 44.7304 38.5769 44.5634 38.4801C44.245 38.2617 44.2598 37.7952 44.308 37.4102C44.3783 36.866 44.4449 36.3254 44.5153 35.7812C44.517 35.4489 44.6454 35.1298 44.8744 34.889C45.2409 34.6003 45.7666 34.7817 46.2331 34.7743C46.5851 34.7586 46.9238 34.6346 47.2027 34.4192C47.4817 34.2039 47.6874 33.9077 47.7917 33.5711C47.8855 33.2314 47.8847 32.8725 47.7895 32.5333C47.6942 32.194 47.5081 31.8872 47.2512 31.646C47.0401 31.4461 46.7551 31.1943 46.8661 30.9241C46.9113 30.8496 46.9721 30.7859 47.0443 30.7373C47.1166 30.6887 47.1985 30.6564 47.2845 30.6427C48.1175 30.4021 49.0023 30.3391 49.8204 30.0504C50.6423 29.7653 51.4383 29.1804 51.6345 28.3326C51.6937 28.0734 51.7196 27.7588 51.9529 27.6292C52.0707 27.5819 52.1962 27.5568 52.3231 27.5551C52.7682 27.4913 53.1734 27.2634 53.459 26.9161C53.7447 26.5688 53.8901 26.1272 53.8668 25.6782C54.2593 25.4042 54.8109 25.6078 55.1922 25.9003C55.5698 26.1928 55.9067 26.5778 56.3695 26.7036C57.2321 26.9406 58.0651 26.1742 58.961 26.1705C59.3386 26.1705 59.7273 26.3038 60.079 26.1742C60.4381 26.0447 60.6528 25.6893 60.9268 25.4264C61.2045 25.1599 61.6857 25.0007 61.9412 25.2857C61.8671 24.7489 61.7968 24.2158 61.7227 23.6827C62.1589 23.7926 62.6135 23.8078 63.056 23.7273C63.4986 23.6468 63.9188 23.4726 64.2883 23.2162C63.3554 22.9016 62.4262 22.5869 61.4932 22.2722C61.3952 22.248 61.3048 22.1997 61.2304 22.1315C61.0268 21.9131 61.2304 21.5725 61.3933 21.3245C61.7894 20.7284 61.856 19.7474 61.2045 19.4512C60.7602 19.2476 60.253 19.4919 59.8273 19.7288C59.1461 20.1065 58.4649 20.4878 57.7837 20.8654C57.7208 21.2541 58.1946 21.4762 58.4871 21.7354C58.6653 21.8935 58.7915 22.1018 58.849 22.333C58.9066 22.5642 58.8928 22.8074 58.8094 23.0306C58.7261 23.2538 58.5771 23.4465 58.3821 23.5834C58.1871 23.7202 57.9553 23.7949 57.7171 23.7975C57.8512 23.9726 57.9445 24.1756 57.99 24.3915C58.0354 24.6074 58.032 24.8307 57.9799 25.0451C57.5246 25.0784 57.0655 25.1117 56.6064 25.145C56.5302 25.1603 56.4517 25.1602 56.3754 25.145C56.2992 25.1297 56.2267 25.0996 56.1622 25.0562C56.0141 24.9266 56.0363 24.6971 55.9993 24.5046C55.9383 24.2745 55.8097 24.0679 55.6303 23.9115C55.4508 23.7552 55.2286 23.6561 54.9923 23.6272C54.5207 23.5741 54.0431 23.6182 53.5892 23.7568C53.3918 23.8263 53.1758 23.821 52.9821 23.7419C52.8722 23.6692 52.789 23.5626 52.7451 23.4384C52.6645 23.1845 52.6508 22.9142 52.7053 22.6534C52.7598 22.3927 52.8806 22.1505 53.0561 21.9501C53.4116 21.5553 53.8033 21.1947 54.226 20.8728C55.1839 20.0342 55.888 18.9441 56.2584 17.726C57.0137 17.4076 57.7948 16.9782 58.5538 16.6598C59.1639 16.377 59.8032 16.1623 60.4603 16.0193C61.0788 15.9249 61.7053 15.8951 62.3299 15.9305C63.1814 15.9453 64.0366 15.9601 64.8881 15.9786C65.6482 15.9467 66.4076 16.0559 67.1279 16.3007C67.8276 16.5895 68.4458 17.2151 68.494 17.9704C68.5085 18.0564 68.5008 18.1448 68.4717 18.2271C68.4425 18.3093 68.3928 18.3828 68.3273 18.4405C68.229 18.4949 68.1174 18.5205 68.0053 18.5146C67.2982 18.5368 66.9983 18.7145 66.2912 18.7404C66.7391 19.218 67.2426 19.7215 67.8942 19.8066C69.0419 19.9547 69.8674 18.7663 70.3968 17.7334C70.4158 17.9963 70.5367 18.2414 70.7338 18.4164C70.9309 18.5914 71.1886 18.6824 71.4519 18.6701C71.7356 18.6213 72.0063 18.5155 72.2479 18.3591C74.525 17.1146 77.0757 16.4556 79.6707 16.4414C79.6452 16.2449 79.6936 16.046 79.8064 15.8832C79.9193 15.7204 80.0886 15.6053 80.2815 15.5603C80.8109 15.4566 81.2848 15.912 81.5402 16.3858C81.792 16.8597 81.9512 17.4076 82.3584 17.763C82.7619 18.1184 83.5431 18.0999 83.7023 17.589C83.8577 17.0967 83.3432 16.6746 82.9174 16.3821C82.488 16.0934 82.04 15.5566 82.3288 15.1271C84.5056 14.6421 86.701 14.1609 88.9334 14.0646C89.3128 14.0761 89.6906 14.0106 90.044 13.8721C90.219 13.798 90.3646 13.6682 90.4583 13.5029C90.5521 13.3375 90.5886 13.1459 90.5623 12.9577C90.0752 13.0714 89.5652 13.0377 89.0972 12.8611C88.6292 12.6844 88.2243 12.3727 87.9338 11.9655C90.2254 11.7767 92.6244 11.6101 94.8271 12.1247L96.7559 13.761C96.3894 14.1423 95.9007 14.5014 96.1673 14.8828C96.2552 14.9703 96.3619 15.0368 96.4792 15.0772C96.5966 15.1176 96.7216 15.1309 96.8448 15.116C97.3113 15.1234 97.7777 15.1345 98.2405 15.1345C107.816 24.294 113.71 36.6403 114.811 49.8456C114.034 49.816 113.319 50.8008 113.419 51.6596C113.538 52.6555 114.256 53.4552 114.77 54.3141C114.856 54.4537 114.932 54.5983 115 54.7472L114.93 57.1906Z" fill="#2CB67D"/>
</svg>
