<svg width="115" height="246" viewBox="0 0 115 246" fill="none" xmlns="http://www.w3.org/2000/svg">
<path d="M106.131 154.451C105.946 153.412 105.838 152.361 105.81 151.306C105.81 150.04 104.096 148.919 104.096 148.919C104.096 148.919 103.037 146.462 102.331 146.099C101.625 145.736 99.4458 142.521 99.4458 142.521C99.4207 141.887 99.1905 141.278 98.7899 140.786C98.137 139.926 97.5407 139.023 97.0046 138.084C96.7105 137.724 96.8576 137.471 96.4164 135.373C96.3929 135.264 96.3664 135.158 96.3341 135.058C96.3341 135.011 96.3047 134.969 96.287 134.922C96.7552 134.451 97.0816 133.857 97.2288 133.209C97.376 132.56 97.3381 131.883 97.1194 131.255C97.0401 131.006 96.8959 130.782 96.7017 130.606C96.2047 130.199 95.4106 130.367 94.8988 129.981L95.4429 127.568C95.5723 126.978 95.64 126.232 95.1253 125.913C94.9322 125.821 94.7287 125.753 94.5194 125.709C93.6371 125.414 93.1253 124.479 92.8959 123.58C92.6754 122.713 92.6155 121.813 92.7194 120.925C92.8194 120.069 93.0694 119.237 93.1606 118.379C93.3265 116.791 92.9456 115.194 92.0812 113.854C91.745 113.275 91.2498 112.806 90.6548 112.503C90.1106 112.258 89.4783 112.208 88.9695 111.913C87.8754 111.214 87.9313 109.553 87.0578 108.6C86.1842 107.647 84.6372 107.65 83.3637 107.977C82.0902 108.305 80.8226 108.862 79.5167 108.724C78.6756 108.629 77.8873 108.246 77.0432 108.157C76.8017 108.134 76.5582 108.145 76.3197 108.19V108.163C75.6962 108.275 75.1227 108.623 74.9756 109.216C74.9426 109.357 74.9288 109.502 74.9345 109.647C74.9345 109.992 75.0168 110.352 75.0227 110.683C75.0336 110.814 75.0181 110.946 74.9772 111.071C74.9362 111.196 74.8707 111.312 74.7845 111.411C74.6168 111.591 74.3698 111.686 74.1962 111.871C74.1255 111.942 74.07 112.027 74.033 112.121C73.9961 112.214 73.9786 112.314 73.9815 112.414C73.9815 112.939 74.6345 113.402 75.0727 113.615H75.0903C74.9727 113.733 74.855 113.857 74.7462 113.983C73.4899 115.407 72.7972 117.242 72.7992 119.143C72.8099 120.678 73.2676 122.177 74.1162 123.455C74.9648 124.732 76.1672 125.733 77.5756 126.335L77.5138 126.527C77.39 126.906 77.2456 127.278 77.0815 127.642C76.7772 127.539 76.4542 127.504 76.1352 127.54C75.8161 127.576 75.5087 127.681 75.2344 127.848C74.3933 128.438 72.7492 128.391 72.311 128.282C71.8727 128.173 67.3111 127.594 66.9434 127.739C66.5758 127.884 65.8493 127.235 65.3758 128.102C64.9023 128.969 64.6817 129.438 64.1994 129.656C63.717 129.875 62.8847 130.559 62.9964 130.704C63.1082 130.848 61.7906 131.715 61.7906 131.715C61.7906 131.715 60.6582 132.895 60.0024 133.052C59.3465 133.208 57.9583 134.102 57.9583 134.102L56.3495 135.365C56.3495 135.365 55.1466 135.547 55.5113 134.716C55.876 133.884 54.8525 132.836 54.8525 132.836C54.8525 132.836 52.8084 128.68 52.8084 127.822C52.8084 126.963 51.129 123.302 51.129 123.302L50.9231 123.282L50.829 123.013C50.5202 122.143 50.1202 121.075 49.8143 120.45C49.2261 119.255 48.8643 119.131 48.8643 119.131C48.8643 119.131 41.7821 113.798 37.1822 115.423C32.5823 117.048 45.5791 121.892 46.7467 122.4C47.1555 122.577 47.4497 123.149 47.6555 123.819C46.6194 124.32 45.7472 125.107 45.1409 126.087C45.1409 126.087 47.9526 132.338 48.0261 133.893C48.0997 135.447 49.9614 139.792 49.9614 139.792C49.9614 139.792 50.6555 143.011 54.4142 142.828C54.4142 142.828 59.5994 143.784 60.7318 142.828C61.8641 141.872 62.8847 141.123 63.4347 141.014C63.8392 140.88 64.1946 140.629 64.4552 140.291C64.4552 140.291 62.7406 151.132 61.8994 152.073C61.0582 153.014 53.626 165.185 56.2936 167.362C58.4063 169.003 60.639 170.482 62.9729 171.787C63.1994 171.899 63.8788 170.764 64.8493 169.958C64.8493 170.162 64.8493 170.368 64.8493 170.587C64.867 174.917 65.4376 181.501 66.2258 182.976C67.4022 185.144 66.9199 189.336 66.9199 189.336C67.5384 189.628 68.2101 189.79 68.8934 189.811C68.9287 189.953 68.9699 190.106 69.0081 190.254C69.6522 192.693 70.6963 196.466 71.2286 197.469C72.0316 198.988 72.6139 203.797 72.6139 203.797C72.6139 203.797 73.0904 208.517 72.908 209.18C72.8374 209.431 73.1463 211.396 73.6315 213.9C73.3374 217.29 72.7786 223.824 72.6845 226.187C72.6845 226.231 72.6845 226.275 72.6845 226.317V226.358C72.686 226.384 72.686 226.411 72.6845 226.437C72.6845 226.491 72.6845 226.538 72.6845 226.582C72.6754 226.731 72.6813 226.88 72.7021 227.027C72.7386 227.252 72.7215 227.483 72.6521 227.7C72.444 228.353 72.1793 228.987 71.861 229.594C71.7269 229.892 71.6091 230.197 71.508 230.508C71.2139 230.638 70.8551 230.954 70.6551 231.724C70.2904 233.134 69.7434 237.034 69.7434 237.034C69.7434 237.034 69.5228 239.42 69.0875 239.963C68.6522 240.506 68.2052 243.901 71.3139 244.335C74.4227 244.768 75.7668 242.683 75.7668 242.683L75.658 233.219V233.202C75.7208 233.122 75.775 233.036 75.8197 232.945V232.921C75.8403 232.877 75.8639 232.83 75.8844 232.777L75.9109 232.706L75.958 232.591C75.9563 232.577 75.9563 232.563 75.958 232.55C76.2596 231.643 76.3502 230.68 76.2227 229.733V229.685V229.612C76.2227 229.588 76.2227 229.561 76.2227 229.538V229.39C76.2227 229.373 76.2227 229.352 76.2227 229.334C76.2227 229.271 76.2286 229.206 76.2403 229.14C76.2403 229.14 76.2403 229.116 76.2403 229.104L76.258 228.989V228.939C76.258 228.901 76.258 228.862 76.2815 228.821C76.2804 228.811 76.2804 228.801 76.2815 228.792C76.3109 228.656 76.3462 228.497 76.3844 228.367V228.334L76.4285 228.193C76.4727 228.042 76.5227 227.898 76.5756 227.738V227.709C76.5756 227.662 76.608 227.614 76.6256 227.57V227.553C76.6786 227.408 76.7344 227.258 76.7874 227.134L76.8021 227.095L76.8491 226.977L76.8638 226.942L76.9756 226.679L77.8374 229.349C77.8374 229.349 78.3138 231.337 78.0579 231.806C77.8021 232.275 78.352 234.228 78.7138 234.264L78.3756 236.721C78.1927 238.076 78.0837 239.44 78.0491 240.807C78.0256 240.963 78.0021 241.102 77.9844 241.196C77.7491 242.456 78.3138 244.408 78.3138 244.408C81.1961 247.827 84.6313 244.674 84.6313 244.674C84.6313 244.674 85.0313 242.866 84.6313 242.506C84.2313 242.146 84.4108 240.842 84.4108 240.842C84.4108 240.842 84.5931 237.624 84.6284 235.275C84.6637 232.927 82.7137 230.851 82.7137 230.851L82.6049 230.948C82.249 230.028 81.8432 228.954 81.9284 228.473C82.0755 227.641 81.5255 218.859 81.5255 218.859C81.7287 216.505 81.772 214.139 81.6549 211.779C81.702 211.381 81.7461 210.989 81.7902 210.599C82.0108 208.711 82.1902 207.098 82.2608 206.251V206.151C82.2784 205.924 82.2873 205.761 82.2843 205.685C82.2843 205.39 82.2843 205.054 82.3137 204.685C82.3814 203.67 82.5402 202.54 82.5402 202.54L83.3049 197.876C83.3049 197.876 83.8931 195.599 84.7313 194.336L84.8313 194.177C84.8637 194.121 84.896 194.059 84.9313 193.994L84.946 193.968C84.9784 193.906 85.0137 193.841 85.046 193.773L85.0607 193.746C85.1784 193.513 85.3049 193.245 85.4372 192.95C85.4372 192.926 85.4578 192.906 85.4666 192.882L85.5666 192.658C85.5666 192.628 85.5901 192.599 85.6048 192.569C85.6196 192.54 85.6666 192.419 85.699 192.345C85.7135 192.316 85.7262 192.285 85.7372 192.254C85.7754 192.165 85.8166 192.074 85.8549 191.979L85.9107 191.844C85.9372 191.776 85.9666 191.708 85.996 191.64L86.0666 191.46C86.0872 191.416 86.1048 191.372 86.1225 191.328L86.2019 191.124C86.2019 191.094 86.2284 191.062 86.2401 191.033C86.449 190.51 86.649 189.994 86.8284 189.525C86.8842 189.378 86.9401 189.23 86.9901 189.1C88.8607 189.215 90.1312 189.319 90.1312 189.319C90.1312 189.319 90.7195 185.091 90.5312 182.31C90.4077 180.41 90.7606 178.02 90.993 176.705C91.0195 176.56 91.043 176.43 91.0665 176.312L91.1165 176.354C92.0312 177.076 92.6871 174.69 92.6871 174.69C92.6871 174.69 92.44 172.463 92.0989 169.764L92.0636 169.495C92.5907 169.608 93.1239 169.69 93.6606 169.74C93.6606 169.74 93.9547 169.713 94.3576 169.663C95.4723 170.31 96.6487 170.844 97.8693 171.256L99.8134 167.657C100.179 166.911 100.607 166.198 101.093 165.525C101.681 164.802 103.757 162.489 103.722 162.055C103.687 161.622 104.416 159.126 105.146 158.005C105.875 156.884 106.166 154.63 106.131 154.451ZM98.0252 157.197C97.2576 157.521 96.5282 159.33 96.4929 159.872C96.4576 160.415 95.6517 162.799 94.8135 163.088C94.04 163.353 92.5635 164.716 92.3283 164.935C92.0871 164.955 91.8136 164.988 91.5283 165.035C91.2077 162.755 90.8901 160.867 90.6871 160.486C90.0989 159.4 91.3312 155.931 91.3312 155.931C91.3312 155.931 91.4518 152.427 92.2136 151.595C92.9753 150.763 92.8018 148.666 92.8018 148.666C92.8018 148.666 92.9841 147.798 93.0577 147.403C93.1312 147.008 94.1429 147.403 94.1518 147.403C94.1518 147.403 96.1223 148.486 96.4164 150.111C96.7105 151.737 98.8634 154.557 98.8634 154.557C98.8634 154.557 98.534 155.533 98.8634 156.032C99.1928 156.53 98.7929 156.872 98.0252 157.197Z" fill="url(#paint0_linear)"/>
<path d="M82.4883 231.191C82.4883 231.191 84.5897 233.214 84.5512 235.51C84.5126 237.805 84.3134 240.953 84.3134 240.953C84.3134 240.953 84.1206 242.228 84.5512 242.581C84.9817 242.934 84.5512 244.703 84.5512 244.703C84.5512 244.703 80.8561 247.788 77.7522 244.443C77.7522 244.443 77.1481 242.532 77.3987 241.3C77.6493 240.069 78.3498 234.533 78.3498 234.533L82.4883 231.191Z" fill="#444053"/>
<path d="M71.6314 230.37C71.6314 230.37 70.6636 230.263 70.2777 231.673C69.8919 233.083 69.3099 236.994 69.3099 236.994C69.3099 236.994 69.079 239.38 68.6141 239.924C68.1492 240.468 67.6874 243.864 70.9735 244.296C74.2596 244.727 75.6923 242.643 75.6923 242.643L75.5753 233.163L71.6314 230.37Z" fill="#444053"/>
<path d="M87.2107 187.913C87.2107 187.913 85.2365 193.327 84.3929 194.582C83.5494 195.837 82.9691 198.101 82.9691 198.101L82.2003 202.725C82.0502 203.759 81.9643 204.801 81.943 205.845C81.9789 206.886 80.0406 222.053 80.0406 222.053L76.9685 225.892C76.9685 225.892 75.6164 228.581 75.8348 229.704C76.0531 230.827 75.6882 232.61 75.2365 233.146C75.2365 233.146 75.1647 236.665 75.054 237.448C74.9434 238.231 75.4579 240.463 75.054 240.856C74.6502 241.249 69.2748 241.073 69.1283 240.425C68.9817 239.777 69.7863 236.66 69.7863 236.66L70.262 233.648C70.262 233.648 71.2132 232 70.9948 231.46C70.7765 230.921 71.3957 229.669 71.4316 229.56C71.4675 229.452 72.4576 227.695 72.2751 227.015C72.0927 226.334 73.4268 211.866 73.4268 211.866L77.1928 185.94L87.2107 187.913Z" fill="#AE6E79"/>
<path opacity="0.1" d="M87.2107 187.908C87.2107 187.908 86.9116 188.723 86.5018 189.794C85.8497 191.484 84.9104 193.81 84.3929 194.578C83.5524 195.833 82.9661 198.098 82.9661 198.098L82.1973 202.726C82.0487 203.761 81.9638 204.803 81.943 205.847C81.943 206.258 81.6619 208.877 81.3029 211.895C80.7495 216.509 80.0406 222.059 80.0406 222.059L76.9685 225.898C76.9685 225.898 76.8129 226.192 76.6185 226.655C76.2326 227.535 75.6882 228.963 75.8348 229.7C76.0531 230.811 75.6882 232.603 75.2365 233.143C75.2365 233.143 75.1617 236.663 75.054 237.446C74.9464 238.229 75.4579 240.458 75.054 240.854C74.6502 241.25 69.2748 241.071 69.1283 240.426C68.9817 239.781 69.7863 236.66 69.7863 236.66L70.262 233.645C70.262 233.645 71.2132 231.996 70.9918 231.457C70.7705 230.917 71.3957 229.664 71.4316 229.556C71.4675 229.447 72.4576 227.69 72.2751 227.01C72.1345 226.491 72.8734 217.993 73.2174 213.963C73.334 212.696 73.4088 211.872 73.4088 211.872L76.6484 189.562L76.9117 187.764L77.1749 185.94L87.2107 187.908Z" fill="black"/>
<path d="M83.9196 242.012C83.952 242.41 78.8414 242.988 78.1113 242.555C77.3813 242.121 78.1113 236.748 78.1113 236.748L78.444 234.298C78.0878 234.26 77.5461 232.313 77.7964 231.844C78.0466 231.375 77.5815 229.394 77.5815 229.394L76.7336 226.74L76.2155 225.115C75.3735 223.254 74.1548 217.946 73.3982 213.982C72.9213 211.493 72.6181 209.532 72.6858 209.282C72.8654 208.633 72.3914 203.909 72.3914 203.909C72.3914 203.909 71.8027 199.111 71.0255 197.598C70.4985 196.595 69.4711 192.829 68.8352 190.4C68.5114 189.152 68.2877 188.256 68.2877 188.256C68.2877 188.256 73.7279 187.799 77.028 187.639C78.5441 187.566 79.6098 187.557 79.4861 187.681C79.3625 187.804 79.3301 188.465 79.336 189.42C79.3507 191.895 79.6951 196.247 80.0602 197.418C80.5636 199.04 81.067 203.906 80.8521 204.378C80.6372 204.849 80.7078 207.984 80.7078 207.984C81.0788 209.258 81.2923 210.572 81.3437 211.897C81.4589 214.246 81.4175 216.6 81.2201 218.943C81.2201 218.943 81.7588 227.707 81.6146 228.536C81.4703 229.364 82.7656 231.962 82.7656 232.467C82.7656 232.971 83.1248 236.398 83.1248 236.398C83.1248 236.398 83.8961 241.617 83.9196 242.012Z" fill="#AE6E79"/>
<path opacity="0.1" d="M87.2107 187.713C87.2107 187.713 86.9154 188.446 86.5109 189.407C84.5176 189.299 81.8776 189.186 79.3704 189.17C78.4845 189.17 77.6163 189.17 76.7954 189.196C75.0531 189.244 73.547 189.37 72.5873 189.613C71.3738 189.946 70.1055 190.092 68.8369 190.045C68.5121 188.93 68.2877 188.129 68.2877 188.129C68.2877 188.129 73.7449 187.721 77.0552 187.579L77.3151 185.94L87.2107 187.713Z" fill="black"/>
<path opacity="0.4" d="M111.003 187.585H108.669V185.479H111.003V187.585ZM110.968 184.412H108.704C108.704 181.139 112.101 181.332 112.101 179.261C112.097 178.714 111.856 178.192 111.432 177.808C111.007 177.424 110.434 177.21 109.838 177.213C109.239 177.224 108.668 177.447 108.246 177.837C107.823 178.226 107.583 178.75 107.574 179.299H105.311C105.337 178.218 105.823 177.189 106.665 176.432C107.508 175.675 108.639 175.248 109.819 175.244C110.999 175.24 112.134 175.658 112.982 176.41C113.831 177.161 114.326 178.186 114.361 179.267C114.374 181.849 110.981 182.145 110.981 184.412H110.968Z" fill="#0070C7"/>
<path d="M96.9862 169.921L97.0837 171.13C97.0837 171.13 91.8936 169.15 92.1569 166.717C92.4202 164.283 92.1569 164.558 92.1569 164.558L96.3279 164.971L96.9862 169.921Z" fill="#094067"/>
<path opacity="0.1" d="M96.9862 169.921L97.0837 171.13C97.0837 171.13 91.8936 169.15 92.1569 166.717C92.4202 164.283 92.1569 164.558 92.1569 164.558L96.3279 164.971L96.9862 169.921Z" fill="black"/>
<path d="M76.6474 127.716L77.0446 127.525L78.1605 128.827L77.2481 130.816L75.6923 130.179L76.0534 128.589L76.6474 127.716Z" fill="#4C4981"/>
<path d="M45.2509 126.14C45.8379 125.187 46.6973 124.426 47.7217 123.951C48.746 123.477 49.8898 123.31 51.0101 123.471V127.525H48.5077L46.5496 127.038L45.2509 126.14Z" fill="#4C4981"/>
<path opacity="0.1" d="M45.2509 126.14C45.8379 125.187 46.6973 124.426 47.7217 123.951C48.746 123.477 49.8898 123.31 51.0101 123.471V127.525H48.5077L46.5496 127.038L45.2509 126.14Z" fill="black"/>
<path d="M87.2107 136.327L86.5702 137.001L86.1524 137.441L83.7125 139.997L77.4085 140.689L74.0536 139.815L73.2241 139.598C73.2241 139.598 73.2241 137.958 73.3735 135.991C73.587 133.468 74.0963 130.404 75.3132 129.569C75.9226 129.104 76.4089 128.504 76.7314 127.819C76.9748 127.346 77.1788 126.855 77.3414 126.351C77.3658 126.285 77.3841 126.223 77.4054 126.157C77.6799 125.277 77.8778 124.375 77.9971 123.462C77.9971 123.462 78.8022 123.028 79.9215 122.523C82.8403 121.195 87.8817 119.361 86.128 123.462C85.8703 124.063 85.6503 124.678 85.4692 125.305C85.4418 125.397 85.4174 125.489 85.396 125.578C84.8105 127.86 85.1978 129.245 85.6339 130.009C85.7076 130.141 85.7923 130.267 85.8871 130.386C86.0062 130.546 86.1491 130.687 86.311 130.805L87.0368 135.295L87.0978 135.667L87.2107 136.327Z" fill="#AE6E79"/>
<path opacity="0.1" d="M89.679 153.96L88.5421 156.944C88.5421 156.944 87.6177 156.983 86.1756 157.028C81.308 157.185 70.5826 157.384 70.1039 156.125C69.9966 155.806 69.94 155.471 69.9363 155.134C69.8735 153.217 70.7621 150.272 70.7621 150.272C70.7621 150.272 71.2737 144.38 71.2737 144.124C71.2737 143.868 70.8339 139.74 70.8339 139.74L71.7135 136.428L74.1637 134.697C74.1637 134.697 75.2617 136.392 75.9199 136.537C76.5781 136.681 77.4576 137.497 77.4576 137.497C77.4576 137.497 79.6147 138.822 80.3118 138.084C81.0089 137.347 86.421 134.107 86.421 134.107L89.2751 137.274L89.679 153.96Z" fill="black"/>
<path d="M89.679 154.786L88.5416 157.767C88.5416 157.767 87.6167 157.81 86.174 157.855H86.0334C85.4108 157.876 84.6984 157.897 83.9382 157.912C80.0681 158.002 74.7373 158.026 71.9507 157.611C70.9031 157.46 70.2177 157.244 70.104 156.948C70.0409 156.771 69.9967 156.587 69.9723 156.4C69.9543 156.262 69.9423 156.099 69.9363 155.958C69.8735 154.039 70.7625 151.094 70.7625 151.094C70.7625 151.094 71.2743 145.201 71.2743 144.945C71.2743 144.689 70.8343 140.561 70.8343 140.561L71.7143 137.248L73.3994 136.062L74.1656 135.52C74.4234 135.908 74.7042 136.28 75.0067 136.634C75.2429 136.953 75.559 137.204 75.9226 137.36C76.5841 137.507 77.461 138.32 77.461 138.32C77.461 138.32 79.6191 139.645 80.3165 138.908C80.8463 138.345 84.1387 136.318 85.6592 135.393C86.1261 135.107 86.4285 134.93 86.4285 134.93L86.8116 135.357L89.2839 138.098L89.679 154.786Z" fill="#FAFAFA"/>
<path opacity="0.1" d="M86.388 157.825C81.4558 158.018 70.588 158.258 70.1029 156.716C69.9942 156.323 69.9369 155.912 69.9332 155.498L86.0455 156.534L86.388 157.825Z" fill="black"/>
<path d="M91.3245 174.672L90.7191 175.969C90.7191 175.969 90.6347 176.355 90.527 176.968C90.3 178.288 89.9449 180.669 90.0788 182.567C90.2563 185.343 89.6859 189.557 89.6859 189.557C89.6859 189.557 76.589 188.44 72.7472 189.557C68.9054 190.674 67.0136 189.557 67.0136 189.557C67.0136 189.557 67.4793 185.378 66.3384 183.215C65.5613 181.742 65.0142 175.164 64.9967 170.838C64.9967 168.843 65.0957 167.331 65.343 167.024C66.126 166.052 69.47 156.321 69.47 156.321L70.2326 156.362L72.2699 156.471L83.8534 157.09L85.6724 157.187L85.8645 157.777L91.3245 174.672Z" fill="#444053"/>
<path opacity="0.1" d="M75.8964 174.343C76.2685 174.43 76.6357 174.543 76.9962 174.681C78.3929 175.08 79.8425 174.532 81.2451 174.164C82.9312 173.723 84.6603 173.539 86.388 173.616C86.0793 173.616 85.5882 173.927 85.2853 174.032C84.8884 174.17 84.4855 174.299 84.0827 174.414C83.2917 174.637 82.4889 174.82 81.6803 174.952C80.0479 175.223 78.3959 175.306 76.7492 175.199C75.9964 175.151 74.6908 175.239 74.0469 174.803C74.6035 174.422 75.2528 174.261 75.8964 174.343Z" fill="black"/>
<path opacity="0.1" d="M68.5395 172.03C68.7677 172.065 68.9925 172.113 69.2122 172.173C70.5146 172.46 71.9002 172.207 73.2241 171.953C72.8939 172.338 72.2983 172.503 71.7027 172.608C70.7339 172.799 69.7241 172.827 68.7401 172.692C68.4315 172.644 67.6569 172.558 67.5056 172.31C67.2526 171.944 68.2494 171.994 68.5395 172.03Z" fill="black"/>
<path opacity="0.1" d="M78.1606 168.993C77.4202 169.232 76.6596 169.391 75.8897 169.469C75.2906 169.499 74.6904 169.486 74.0928 169.432L71.1852 169.236L69.7314 169.136C69.5598 169.136 68.8591 169.136 69.2051 168.765C69.3796 168.584 70.3507 168.7 70.6008 168.69C71.0834 168.674 71.568 168.664 72.0546 168.662C73.017 168.662 73.9823 168.662 74.9448 168.725C76.0235 168.781 77.0848 168.868 78.1606 168.993Z" fill="black"/>
<path opacity="0.1" d="M74.8696 169.811C74.3812 169.786 73.752 170.14 73.2493 170.217C72.6868 170.298 72.1201 170.325 71.5542 170.297C70.4345 170.265 69.3284 169.989 68.2877 169.485C70.4797 169.621 72.6775 169.702 74.8696 169.811Z" fill="black"/>
<path opacity="0.1" d="M85.107 152.202C85.4943 152.222 85.8822 152.187 86.2616 152.097C86.6454 152.008 86.9846 151.759 87.2107 151.4C87.0735 151.365 86.9295 151.39 86.8087 151.471C85.6375 152.023 84.3514 152.195 83.097 151.969C83.6985 152.256 84.4692 152.199 85.107 152.202Z" fill="black"/>
<path opacity="0.1" d="M86.2347 150.45C86.9087 150.381 87.5389 150.132 88.0335 149.739C87.0168 149.848 86.0533 150.186 85.0522 150.363C84.1228 150.545 83.1485 150.469 82.2743 150.146C83.4255 150.622 85.0084 150.638 86.2347 150.45Z" fill="black"/>
<path opacity="0.1" d="M83.097 143.974C82.9467 143.996 82.7936 143.958 82.6712 143.869C82.0415 143.513 81.4204 143.141 80.8079 142.754C80.2118 142.375 79.4917 141.99 78.9833 141.512C80.235 142.627 81.4015 143.569 83.097 143.974Z" fill="black"/>
<path opacity="0.1" d="M86.0301 123.678C85.7012 124.523 86.19 122.988 86.0301 123.678C84.7146 124.678 81.6161 127.525 79.8752 127.525C78.6985 127.525 78.3455 127.296 77.3378 126.809C77.6428 125.789 77.8599 124.741 77.9865 123.678C77.9865 123.678 88.4287 117.525 86.0301 123.678Z" fill="black"/>
<path d="M51.01 124.497L47.8931 126.702C47.8931 126.702 47.8667 126.262 47.7877 125.659C47.6326 124.517 47.2843 122.805 46.5321 122.474C45.3878 121.966 32.6477 117.122 37.1666 115.493C41.6855 113.864 48.6189 119.204 48.6189 119.204C48.6189 119.204 48.976 119.328 49.5467 120.52C49.8394 121.147 50.2403 122.214 50.5418 123.086C50.8198 123.873 51.01 124.497 51.01 124.497Z" fill="#AE6E79"/>
<path opacity="0.1" d="M51.0101 124.193L47.8267 126.702C47.8267 126.702 47.7998 126.201 47.7191 125.515C49.2914 124.768 50.2479 123.117 50.5229 122.589C50.8158 123.483 51.0101 124.193 51.0101 124.193Z" fill="black"/>
<path d="M62.2682 131.93L61.589 131.749C61.589 131.749 60.4766 132.919 59.8326 133.074C59.1885 133.229 57.8302 134.11 57.8302 134.11L56.2523 135.363C56.2523 135.363 55.0813 135.544 55.4297 134.719C55.7781 133.894 54.7856 132.858 54.7856 132.858C54.7856 132.858 52.7803 128.743 52.7803 127.883C52.7803 127.023 51.1234 123.411 51.1234 123.411C51.1234 123.411 49.0449 127.456 45.2509 126.168C45.2509 126.168 48.0086 132.357 48.0788 133.897C48.1491 135.436 49.9758 139.729 49.9758 139.729C49.9758 139.729 50.6579 142.916 54.3436 142.737C54.3436 142.737 59.4286 143.682 60.5381 142.737C61.6476 141.792 62.6488 141.049 63.1728 140.94C63.6968 140.832 64.174 140.226 64.174 140.226V135.971L62.2682 131.93Z" fill="#094067"/>
<path opacity="0.1" d="M59.9807 136.908C60.4809 137.53 61.0706 137.979 61.7057 138.221C61.5218 138.162 61.3509 138.037 61.2086 137.857C60.8581 137.494 60.525 137.097 60.187 136.712C59.9136 136.4 59.573 135.88 59.2375 135.753C59.4572 136.174 59.7062 136.562 59.9807 136.908Z" fill="black"/>
<path opacity="0.1" d="M60.2264 138.198C60.438 138.435 60.6093 138.706 60.7338 138.998C60.9445 139.824 60.9318 140.692 60.6971 141.512L59.6422 138.981C59.4586 138.55 59.2749 138.118 59.0546 137.706C58.9578 137.53 58.3502 136.796 58.4203 136.644C58.6073 136.212 60.0294 137.955 60.2264 138.198Z" fill="black"/>
<path opacity="0.1" d="M55.9465 135.753C55.9465 135.753 57.3806 139.468 56.4621 139.866L55.9465 135.753Z" fill="black"/>
<path opacity="0.1" d="M91.3244 174.559L90.7323 175.876C90.7323 175.876 90.6497 176.267 90.5444 176.89C90.4388 176.876 90.3396 176.829 90.2597 176.755C89.3885 176.022 84.2811 170.5 84.0277 165.597C83.8484 161.98 83.9338 158.863 83.9907 157.475C84.0078 157.039 84.0249 156.775 84.0249 156.719C84.0249 156.719 87.9935 151.669 87.5408 149.88C87.0882 148.091 86.0434 138.513 86.0434 138.513L85.8896 137.256L85.6249 135.133L84.9929 129.993L85.6476 130.155C85.7589 130.315 85.8922 130.457 86.0434 130.577L86.7209 135.097L89.0725 137.819L89.4568 154.391L88.375 157.353C88.375 157.353 87.4953 157.395 86.1231 157.439H85.9893L91.3244 174.559Z" fill="black"/>
<path d="M93.4388 147.42C93.4388 147.42 92.4331 147.016 92.3625 147.42C92.2919 147.824 92.1096 148.697 92.1096 148.697C92.1096 148.697 92.289 150.821 91.5215 151.661C90.754 152.502 90.6393 156.049 90.6393 156.049C90.6393 156.049 89.4278 159.561 90.0012 160.659C90.21 161.056 90.5334 163.052 90.8569 165.445C91.0627 166.94 91.2656 168.582 91.445 170.084C91.7714 172.812 92.0155 175.07 92.0155 175.07C92.0155 175.07 91.3656 177.484 90.4658 176.751C89.566 176.018 84.2905 170.497 84.0317 165.594C83.8553 162.151 83.9258 159.16 83.9847 157.685C84.0082 157.06 84.0317 156.707 84.0317 156.707C84.0317 156.707 88.1309 151.658 87.6634 149.867C87.1958 148.075 86.1166 138.5 86.1166 138.5L85.9284 137.02L85.7255 135.428L85.6785 135.078L85.0286 129.993C85.1433 130.02 89.1778 130.947 89.71 131.489C90.2423 132.03 93.5329 132.805 93.5329 132.805C94.0291 132.942 94.4803 133.212 94.8392 133.586C95.1981 133.961 95.4517 134.427 95.5737 134.935C95.606 135.036 95.6295 135.144 95.6531 135.255C96.0853 137.378 95.9471 137.633 96.2412 138.001C96.5352 138.369 93.4388 147.42 93.4388 147.42Z" fill="#094067"/>
<path opacity="0.1" d="M92.1472 169.485C90.4685 169.22 87.9773 168.607 88.0344 167.254C88.0848 165.989 90.0119 165.533 91.4723 165.371C91.7073 166.692 91.939 168.153 92.1472 169.485Z" fill="black"/>
<path d="M96.2517 168.749C96.1909 168.878 95.9477 168.989 95.6011 169.087C94.7879 169.278 93.9619 169.411 93.1295 169.485C93.1295 169.485 87.9612 169.081 88.0342 166.776C88.0889 165.123 90.4237 164.683 91.734 164.585C92.0241 164.558 92.3153 164.546 92.6066 164.549C92.6066 164.549 96.4736 168.277 96.2517 168.749Z" fill="#AE6E79"/>
<path opacity="0.1" d="M96.2515 169.118C96.189 169.257 95.9392 169.378 95.5833 169.485C94.2001 167.557 92.2705 165.082 91.3245 164.864L91.6117 164.588C91.9096 164.559 92.2087 164.546 92.5078 164.549C92.5078 164.549 96.4794 168.604 96.2515 169.118Z" fill="black"/>
<path opacity="0.4" d="M25.2634 189.441H19.9615V184.268H25.2634V189.441ZM25.1861 181.641H20.0447C20.0447 173.6 27.7568 174.071 27.7568 168.98C27.7541 168.314 27.6189 167.655 27.359 167.041C27.099 166.427 26.7195 165.869 26.242 165.4C25.7645 164.932 25.1984 164.561 24.5761 164.309C23.9538 164.057 23.2876 163.929 22.6154 163.933C21.252 163.957 19.9516 164.506 18.9892 165.463C18.0269 166.421 17.4782 167.711 17.4591 169.062H12.3177C12.3519 166.389 13.445 163.836 15.3614 161.953C17.2779 160.071 19.8641 159.011 22.5626 159C25.261 158.99 27.8556 160.03 29.7868 161.898C31.718 163.765 32.8311 166.31 32.8863 168.983C32.8952 175.343 25.1861 176.07 25.1861 181.641Z" fill="#0070C7"/>
<path d="M95.2031 137.398L96.6231 137.619C97.1357 138.568 97.7049 139.482 98.3271 140.356C98.7087 140.855 98.9277 141.469 98.9519 142.109C98.9519 142.109 101.036 145.356 101.695 145.721C102.354 146.085 103.362 148.569 103.362 148.569C103.362 148.569 104.995 149.7 104.995 150.978C105.024 152.043 105.129 153.105 105.308 154.154C105.345 154.336 105.066 156.602 104.371 157.736C103.675 158.87 102.979 161.372 103.016 161.82C103.053 162.267 101.071 164.596 100.517 165.324C100.055 166.005 99.6479 166.726 99.3012 167.48L97.4609 171.13C97.4609 171.13 93.5701 165.106 92.1472 164.778C92.1472 164.778 93.7433 163.172 94.5414 162.879C95.3394 162.587 96.1062 160.193 96.1403 159.632C96.1744 159.07 96.8702 157.258 97.5972 156.945C98.3243 156.631 98.7105 156.288 98.3981 155.775C98.0857 155.261 98.3981 154.282 98.3981 154.282C98.3981 154.282 96.3476 151.434 96.0693 149.804C95.791 148.174 93.9166 147.067 93.9166 147.067L92.8402 144.291L95.2031 137.398Z" fill="#094067"/>
<path opacity="0.1" d="M100.854 151.417C101.642 150.883 102.634 150.581 103.666 150.562C103.005 150.653 102.309 150.77 101.825 151.141C101.635 151.301 101.464 151.476 101.315 151.662C101.15 151.852 99.8052 153.224 99.6058 153.007C99.2725 152.689 100.583 151.603 100.854 151.417Z" fill="black"/>
<path opacity="0.1" d="M97.0837 149.739C97.278 149.72 97.4644 149.642 97.6237 149.514C97.7829 149.385 97.9092 149.211 97.9897 149.008C98.1444 148.6 98.24 148.167 98.2726 147.724C98.3655 146.983 98.4964 146.248 98.6646 145.525C98.7151 145.382 98.7364 145.228 98.727 145.074C98.7175 144.92 98.6776 144.771 98.6101 144.637C98.5405 144.406 98.4463 144.185 98.3298 143.98C98.0961 144.276 98.0286 144.965 97.9326 145.362C97.8132 145.853 97.7041 146.348 97.6003 146.842C97.5458 147.079 97.1148 149.739 97.0837 149.739Z" fill="black"/>
<path opacity="0.1" d="M75.9979 129.207C75.9979 129.207 76.0659 132.535 75.5478 134.054C75.3836 134.527 75.1288 135.399 74.8514 136.377C74.5485 137.462 74.2172 138.677 73.9624 139.628C73.7077 140.58 73.5378 141.218 73.5378 141.218C73.5378 141.218 72.3686 151.161 72.0657 155.899C72.0657 155.982 72.0657 156.068 72.0487 156.147C72.0317 156.413 72.0034 156.691 71.961 156.978C71.2872 161.683 67.4002 168.939 66.0951 169.519C65.6882 169.714 65.3165 169.981 64.9967 170.308C64.9967 168.307 65.093 166.791 65.3336 166.483C66.0951 165.508 69.3479 155.748 69.3479 155.748L70.0897 155.79C70.0727 155.654 70.0613 155.494 70.0557 155.355C69.9962 153.472 70.837 150.582 70.837 150.582C70.837 150.582 71.3211 144.798 71.3211 144.547C71.3211 144.295 70.905 140.243 70.905 140.243L71.7373 136.992L73.3311 135.827C73.5293 133.318 74.0021 130.271 75.1316 129.44C75.6973 128.978 76.1487 128.381 76.4481 127.699C76.6717 127.732 76.264 127.525 76.264 127.525L75.9979 129.207Z" fill="black"/>
<path d="M76.5151 127.641C76.222 127.538 75.9104 127.503 75.6026 127.539C75.2949 127.575 74.9987 127.681 74.7354 127.849C73.9246 128.442 72.3434 128.392 71.9207 128.285C71.4981 128.178 67.1049 127.594 66.7456 127.739C66.3862 127.884 65.6904 127.232 65.2333 128.104C64.7761 128.976 64.5662 129.445 64.1091 129.661C63.652 129.878 62.8412 130.569 62.9591 130.714C63.0769 130.859 61.809 131.728 61.809 131.728L64.3736 140.33C64.3736 140.33 62.7204 151.21 61.9125 152.153C61.1046 153.096 53.9313 165.319 56.4987 167.496C58.5314 169.145 60.6823 170.633 62.9332 171.946C63.2207 172.091 64.2327 170.133 65.6386 169.516C67.0446 168.899 71.4061 160.737 71.6763 156.095C71.9466 151.453 73.1886 141.116 73.1886 141.116C73.1886 141.116 74.7009 135.457 75.2271 133.932C75.7532 132.408 75.6842 129.068 75.6842 129.068L76.5151 127.641Z" fill="#094067"/>
<path d="M88.0335 118.886C88.0319 120.817 87.3163 122.679 86.0244 124.114C84.7324 125.549 82.9554 126.455 81.0354 126.658C80.7657 126.685 80.493 126.702 80.2174 126.702C78.6716 126.702 77.1604 126.244 75.8751 125.385C74.5897 124.526 73.5879 123.306 72.9963 121.877C72.4047 120.449 72.25 118.878 72.5516 117.361C72.8531 115.845 73.5975 114.453 74.6906 113.359C75.7837 112.266 77.1764 111.522 78.6926 111.22C80.2088 110.919 81.7803 111.074 83.2085 111.665C84.6367 112.257 85.8574 113.259 86.7162 114.544C87.5751 115.829 88.0335 117.34 88.0335 118.886Z" fill="#AE6E79"/>
<path opacity="0.1" d="M96.2609 135.085C96.1151 135.277 95.9473 135.452 95.7609 135.604C95.1692 136.078 94.3851 136.478 94.3112 137.227C94.3318 137.47 94.3015 137.715 94.2224 137.945C94.033 138.273 93.5685 138.244 93.1987 138.181C92.8866 138.153 92.5875 138.041 92.3318 137.859C91.9442 137.525 91.9087 136.928 91.6128 136.508C91.4331 136.291 91.2061 136.118 90.9495 136.004C90.693 135.89 90.4137 135.837 90.1335 135.849C89.5802 135.831 89.0299 135.956 88.4766 135.98C88.121 135.998 87.7645 135.974 87.4145 135.908C87.2989 135.891 87.1843 135.867 87.0713 135.837C86.824 135.775 86.5824 135.693 86.3493 135.589C86.2287 135.541 86.1111 135.485 85.9973 135.422C85.6269 135.231 85.2836 134.99 84.9765 134.706C84.4351 134.205 83.9853 133.514 84.0297 132.771C84.0564 132.315 84.2605 131.894 84.3256 131.444C84.5475 130.155 83.6984 128.938 82.7782 128.017C82.4113 127.65 82.0208 127.295 81.6539 126.922C81.0826 126.391 80.6315 125.742 80.3314 125.02C80.0845 124.25 80.0038 123.437 80.0947 122.634C80.1778 121.819 80.2005 121 80.1627 120.182C79.8905 117.283 77.4348 115.061 74.9791 113.853L74.8696 113.797C75.5982 112.954 76.4949 112.276 77.5011 111.806C78.5074 111.336 79.6007 111.086 80.7096 111.071C81.8184 111.056 82.9179 111.277 83.9362 111.72C84.9546 112.162 85.8688 112.816 86.6193 113.639C87.3698 114.462 87.9396 115.436 88.2916 116.496C88.6435 117.556 88.7697 118.679 88.6619 119.791C88.554 120.904 88.2146 121.981 87.6657 122.952C87.1168 123.924 86.3709 124.767 85.4765 125.428C85.4499 125.521 85.4262 125.613 85.4055 125.703C84.8375 127.993 85.2132 129.383 85.6363 130.149C85.7517 130.176 89.811 131.101 90.3465 131.641C90.882 132.18 94.1928 132.953 94.1928 132.953C94.696 133.088 95.1537 133.357 95.5177 133.732C95.8816 134.108 96.1384 134.575 96.2609 135.085Z" fill="black"/>
<path d="M74.2604 111.852C74.4227 111.668 74.6677 111.575 74.8329 111.397C75.3435 110.848 74.8329 109.951 75.0188 109.227C75.2195 108.423 76.217 108.073 77.0493 108.158C77.8815 108.242 78.6607 108.622 79.4929 108.715C80.7856 108.859 82.0369 108.304 83.2971 107.979C84.5573 107.655 86.0801 107.638 86.9478 108.593C87.8155 109.548 87.7564 111.175 88.8366 111.867C89.3353 112.185 89.964 112.22 90.504 112.451C91.0951 112.751 91.5852 113.215 91.9147 113.786C92.7697 115.115 93.1462 116.69 92.9831 118.257C92.8916 119.105 92.6437 119.928 92.5433 120.775C92.4415 121.655 92.5015 122.545 92.7204 123.404C92.9477 124.28 93.4405 125.226 94.323 125.507C94.5269 125.551 94.725 125.619 94.9132 125.708C95.4238 126.024 95.3559 126.766 95.226 127.344L94.7007 129.742C95.2054 130.121 95.9904 129.958 96.4715 130.358C96.6642 130.532 96.8068 130.754 96.8846 131.001C97.1219 131.671 97.1477 132.397 96.9585 133.083C96.7692 133.768 96.374 134.38 95.8251 134.838C95.2349 135.303 94.4528 135.694 94.379 136.424C94.4015 136.663 94.3713 136.903 94.2905 137.128C94.1046 137.45 93.6383 137.42 93.2694 137.359C92.9591 137.331 92.6618 137.222 92.4076 137.044C92.018 136.716 91.9856 136.132 91.6904 135.72C91.5108 135.508 91.2844 135.34 91.0285 135.228C90.7727 135.116 90.4943 135.064 90.2148 135.075C89.66 135.057 89.114 135.18 88.5592 135.206C87.2795 135.258 86.0303 134.812 85.0796 133.962C84.5366 133.469 84.091 132.794 84.1323 132.064C84.1589 131.62 84.3625 131.205 84.4274 130.764C84.6458 129.505 83.8018 128.311 82.8839 127.408C81.9661 126.506 80.8889 125.673 80.4403 124.473C79.8796 122.986 80.4226 121.327 80.2721 119.75C80.0006 116.908 77.554 114.735 75.1015 113.549C74.5555 113.272 73.6259 112.568 74.2604 111.852Z" fill="#444053"/>
<path opacity="0.1" d="M93.781 136.388C93.3875 136.053 93.3547 135.464 93.0566 135.046C92.8752 134.831 92.6466 134.66 92.3882 134.546C92.1299 134.432 91.8487 134.378 91.5662 134.389C91.0058 134.371 90.4513 134.495 89.8939 134.522C88.5967 134.579 87.3294 134.124 86.3675 133.258C85.819 132.76 85.3719 132.073 85.4136 131.336C85.4405 130.883 85.6461 130.463 85.7117 130.019C85.9353 128.739 85.0798 127.528 84.1527 126.614C83.2257 125.699 82.1406 124.855 81.6846 123.638C81.1212 122.134 81.6846 120.452 81.5176 118.85C81.2404 115.969 78.7693 113.766 76.2951 112.564C75.7168 112.283 74.7779 111.569 75.4187 110.844C75.5797 110.657 75.8271 110.562 75.9941 110.382C76.5097 109.828 75.9941 108.916 76.1848 108.185C76.2215 108.039 76.2852 107.902 76.3726 107.779C75.7496 107.895 75.1803 108.244 75.0283 108.836C74.8464 109.571 75.3561 110.48 74.8405 111.036C74.6735 111.217 74.4261 111.312 74.2622 111.495C73.6213 112.221 74.5603 112.937 75.1385 113.215C77.6157 114.418 80.0868 116.623 80.361 119.501C80.5131 121.103 79.9646 122.785 80.531 124.292C80.984 125.506 82.0721 126.365 82.9991 127.268C83.9262 128.171 84.7877 129.391 84.5581 130.67C84.4325 131.103 84.333 131.543 84.26 131.988C84.2183 132.725 84.6684 133.412 85.2169 133.909C86.1773 134.776 87.4439 135.231 88.7403 135.174C89.3007 135.147 89.8522 135.025 90.4126 135.04C90.695 135.03 90.9761 135.084 91.2345 135.197C91.4928 135.311 91.7215 135.482 91.903 135.698C92.2011 136.115 92.2339 136.707 92.6274 137.039C92.8844 137.219 93.1847 137.328 93.4978 137.356C93.8704 137.424 94.3414 137.448 94.5292 137.125C94.5961 136.993 94.625 136.845 94.6127 136.698C94.3127 136.669 94.0259 136.562 93.781 136.388Z" fill="black"/>
<path d="M50.1917 119.298H29.6293V99.1051H50.2065L50.1917 119.298ZM49.8944 88.8519H29.9266C29.9266 57.4729 59.856 59.3067 59.856 39.4549C59.856 28.5202 50.8754 19.76 39.903 19.76C28.9307 19.76 19.953 29.2046 19.953 39.7659H5.87845e-05C-0.00894757 34.5413 1.01703 29.3662 3.01915 24.5376C5.02127 19.7089 7.96016 15.3216 11.6673 11.6272C15.3744 7.9328 19.7769 5.00402 24.6222 3.00877C29.4675 1.01353 34.6604 -0.00891682 39.903 5.85825e-05C61.9429 5.85825e-05 79.806 17.5233 79.806 39.4549C79.806 64.2778 49.8795 67.104 49.8795 88.8519H49.8944Z" fill="#0070C7"/>
<path opacity="0.4" d="M77.5874 90.5017H75.466V88.3957H77.5874V90.5017ZM77.5555 87.3281H75.4863C75.4863 84.058 78.5712 84.2481 78.5712 82.1772C78.5712 81.9064 78.5179 81.6382 78.4144 81.3883C78.3108 81.1383 78.1591 80.9115 77.968 80.7211C77.7769 80.5307 77.5502 80.3804 77.3011 80.2788C77.0519 80.1773 76.7852 80.1267 76.5165 80.1298C75.9723 80.1411 75.4537 80.3648 75.0699 80.7538C74.6861 81.1428 74.4671 81.6667 74.459 82.2153H72.4014C72.4254 81.1344 72.8672 80.1057 73.6327 79.3483C74.3982 78.5909 75.4269 78.1647 76.4995 78.1606C77.5722 78.1564 78.6041 78.5745 79.3754 79.3259C80.1467 80.0772 80.5964 81.1024 80.6288 82.1831C80.6404 84.7541 77.5555 85.0612 77.5555 87.3281Z" fill="#0070C7"/>
<path opacity="0.4" d="M12.603 84.7425H8.78551V80.9949H12.603V84.7425ZM12.5469 79.0784H8.84456C8.84456 73.2463 14.398 73.5853 14.398 69.8938C14.3957 69.4106 14.2981 68.9325 14.1108 68.487C13.9235 68.0414 13.6501 67.6371 13.3063 67.297C12.9625 66.957 12.555 66.6879 12.1071 66.5051C11.6592 66.3223 11.1796 66.2295 10.6957 66.2318C9.71595 66.2516 8.78217 66.6507 8.09143 67.3449C7.40068 68.0391 7.00699 68.9742 6.99341 69.9528H3.29107C3.28324 67.9916 4.05588 66.1075 5.43898 64.7152C6.82208 63.3229 8.70238 62.5363 10.6662 62.5285C12.63 62.5207 14.5165 63.2922 15.9107 64.6735C17.3049 66.0548 18.0926 67.9326 18.1004 69.8938C18.0945 74.5082 12.5469 75.036 12.5469 79.0784Z" fill="#0070C7"/>
<defs>
<linearGradient id="paint0_linear" x1="71.1757" y1="246.025" x2="71.1757" y2="107.747" gradientUnits="userSpaceOnUse">
<stop stop-color="#808080" stop-opacity="0.25"/>
<stop offset="0.54" stop-color="#808080" stop-opacity="0.12"/>
<stop offset="1" stop-color="#808080" stop-opacity="0.1"/>
</linearGradient>
</defs>
</svg>
