<svg width="375" height="353" fill="none" xmlns="http://www.w3.org/2000/svg"><path d="M114.5 316.274C69.7 315.935 19.5 333.95 0 343V-1h375v334.243c-5.667 2.121-21.8 7.806-43 13.575-26.5 7.212-84 10.606-130-10.606-36.8-16.968-73.667-20.362-87.5-19.938z" fill="#0070C7"/><path d="M231.519 117.936c-85.362-2.858-170.603 53.591-202.553 82.173-28.936 19.65-59.078 4.763-68.723 0-30.745-17.268-84.639-73.241-54.256-158.986C-56.034-66.058 92.21-121.976 213.434-82.136c121.225 39.84 146.255 108.089 130.213 157.2-7.179 21.976-26.766 45.73-112.128 42.872z" fill="#FAFAFA"/><path d="M322.006 218.571c34.447-1.162 68.846 21.788 81.739 33.408 11.678 7.988 23.841 1.936 27.734 0 12.407-7.021 34.155-29.777 21.894-64.637-15.326-43.576-75.149-66.309-124.069-50.112-48.92 16.197-59.021 43.944-52.547 63.911 2.897 8.934 10.801 18.592 45.249 17.43zM89.048 279.893c-44.669-1.555-89.274 29.168-105.993 44.724-15.141 10.694-30.914 2.592-35.961 0-16.089-9.399-44.29-39.863-28.391-86.53 19.873-58.335 97.446-88.769 160.881-67.085 63.435 21.683 76.533 58.828 68.138 85.557-3.757 11.961-14.006 24.89-58.674 23.334z" fill="#094067"/><path d="M44.888 205.216c.992.304 1.752.816 2.28 1.536.528.704.792 1.576.792 2.616 0 .928-.248 1.744-.744 2.448-.48.688-1.176 1.224-2.088 1.608-.896.384-1.952.576-3.168.576h-6.384c-.656 0-1.16-.176-1.512-.528-.352-.352-.528-.856-.528-1.512v-12.84c0-.656.176-1.16.528-1.512.352-.352.856-.528 1.512-.528h6.144c1.776 0 3.184.4 4.224 1.2 1.056.784 1.584 1.848 1.584 3.192 0 .864-.232 1.632-.696 2.304-.464.656-1.112 1.136-1.944 1.44zm-7.056-1.488h3.144c.832 0 1.44-.128 1.824-.384.384-.256.576-.664.576-1.224 0-.592-.192-1.024-.576-1.296-.384-.272-.992-.408-1.824-.408h-3.144v3.312zm3.576 6.936c.88 0 1.504-.136 1.872-.408.384-.288.576-.752.576-1.392 0-.64-.192-1.096-.576-1.368-.368-.288-.992-.432-1.872-.432h-3.576v3.6h3.576zm18.127-.456c.369 0 .665.144.889.432.24.288.36.664.36 1.128 0 .64-.313 1.128-.937 1.464-.544.272-1.191.504-1.944.696a8.815 8.815 0 01-2.04.264c-1.312 0-2.456-.248-3.431-.744a5.291 5.291 0 01-2.257-2.136c-.527-.928-.791-2.016-.791-3.264 0-1.184.248-2.24.743-3.168.512-.944 1.216-1.672 2.112-2.184.913-.528 1.937-.792 3.073-.792 1.104 0 2.072.24 2.904.72a4.828 4.828 0 011.92 2.04c.463.88.695 1.912.695 3.096 0 .368-.088.656-.264.864-.16.192-.4.288-.72.288h-6.336c.112.768.36 1.32.744 1.656.384.336.953.504 1.704.504.4 0 .768-.04 1.104-.12.337-.096.712-.224 1.128-.384.24-.096.472-.176.697-.24.24-.08.456-.12.648-.12zm-4.103-5.424c-.56 0-1.009.184-1.345.552-.336.352-.536.872-.6 1.56h3.768c-.096-1.408-.704-2.112-1.824-2.112zm22.42-2.88c1.295 0 2.295.392 3 1.176.703.768 1.055 2.072 1.055 3.912v5.184c0 .656-.208 1.152-.624 1.488-.4.32-.904.48-1.512.48s-1.12-.16-1.536-.48c-.4-.336-.6-.832-.6-1.488v-5.28c0-.64-.112-1.088-.336-1.344-.224-.256-.552-.384-.984-.384-.56 0-1.008.2-1.344.6-.336.4-.504.952-.504 1.656v4.752c0 .656-.2 1.152-.6 1.488-.4.32-.912.48-1.536.48-.608 0-1.12-.16-1.536-.48-.4-.336-.6-.832-.6-1.488v-5.28c0-.64-.112-1.088-.336-1.344-.224-.256-.552-.384-.984-.384-.56 0-1.008.2-1.344.6-.32.4-.48.952-.48 1.656v4.752c0 .656-.208 1.152-.624 1.488-.4.32-.904.48-1.512.48s-1.12-.16-1.536-.48c-.4-.336-.6-.832-.6-1.488v-8.304c0-.624.208-1.096.624-1.416.432-.336.944-.504 1.536-.504.56 0 1.024.152 1.392.456.384.288.584.712.6 1.272.784-1.184 1.984-1.776 3.6-1.776 1.712 0 2.856.696 3.432 2.088.4-.64.936-1.144 1.608-1.512.672-.384 1.432-.576 2.28-.576zM45.68 231.112c.176-.384.424-.672.744-.864.32-.192.672-.288 1.056-.288.576 0 1.096.184 1.56.552.464.368.696.832.696 1.392 0 .272-.072.552-.216.84l-6.336 13.08c-.208.432-.52.768-.936 1.008a2.791 2.791 0 01-1.344.336c-.48 0-.928-.112-1.344-.336a2.281 2.281 0 01-.936-1.008l-6.336-13.08a1.852 1.852 0 01-.192-.84c0-.544.24-1 .72-1.368a2.51 2.51 0 011.608-.576c.384 0 .736.096 1.056.288.336.192.592.48.768.864l4.728 10.224 4.704-10.224zm8.407 16.032c-.608 0-1.12-.16-1.536-.48-.4-.336-.6-.832-.6-1.488v-8.256c0-.656.2-1.144.6-1.464.416-.336.928-.504 1.536-.504s1.112.168 1.512.504c.416.32.624.808.624 1.464v8.256c0 .656-.208 1.152-.624 1.488-.4.32-.904.48-1.512.48zm0-13.872c-.72 0-1.296-.184-1.728-.552-.416-.384-.624-.888-.624-1.512s.208-1.12.624-1.488c.432-.368 1.008-.552 1.728-.552.704 0 1.272.184 1.704.552.432.368.648.864.648 1.488s-.216 1.128-.648 1.512c-.416.368-.984.552-1.704.552zm12.558 1.632c1.408 0 2.456.424 3.144 1.272.688.832 1.032 2.104 1.032 3.816v5.184c0 .608-.192 1.088-.576 1.44-.384.352-.904.528-1.56.528s-1.176-.176-1.56-.528c-.384-.352-.576-.832-.576-1.44v-4.992c0-.704-.128-1.216-.384-1.536-.24-.32-.608-.48-1.104-.48-.64 0-1.152.208-1.536.624-.368.4-.552.944-.552 1.632v4.752c0 .608-.192 1.088-.576 1.44-.384.352-.904.528-1.56.528s-1.176-.176-1.56-.528c-.384-.352-.576-.832-.576-1.44v-8.304c0-.56.2-1.016.6-1.368.4-.368.92-.552 1.56-.552.608 0 1.088.168 1.44.504.368.336.552.776.552 1.32a4.093 4.093 0 011.608-1.392c.656-.32 1.384-.48 2.184-.48zm16.907-4.944c.64 0 1.16.184 1.56.552.416.352.624.808.624 1.368v13.296c0 .608-.192 1.088-.576 1.44-.384.352-.896.528-1.536.528-.592 0-1.08-.152-1.464-.456-.368-.32-.576-.752-.624-1.296-.336.56-.832 1-1.488 1.32-.64.32-1.352.48-2.136.48-1.008 0-1.912-.256-2.712-.768-.784-.528-1.4-1.264-1.848-2.208-.448-.944-.672-2.024-.672-3.24 0-1.216.216-2.28.648-3.192.448-.928 1.064-1.64 1.848-2.136.8-.496 1.712-.744 2.736-.744.752 0 1.44.152 2.064.456.64.304 1.136.712 1.488 1.224v-4.776c0-.56.184-1.008.552-1.344.384-.336.896-.504 1.536-.504zM79.208 244c.752 0 1.328-.256 1.728-.768.4-.512.6-1.248.6-2.208 0-.944-.2-1.664-.6-2.16-.4-.512-.976-.768-1.728-.768-.736 0-1.304.248-1.704.744-.4.496-.6 1.208-.6 2.136 0 .96.2 1.704.6 2.232.416.528.984.792 1.704.792zm14.976 3.192c-1.296 0-2.44-.248-3.432-.744a5.6 5.6 0 01-2.28-2.16c-.528-.928-.792-2.016-.792-3.264 0-1.248.264-2.328.792-3.24a5.443 5.443 0 012.28-2.136c.976-.496 2.12-.744 3.432-.744 1.312 0 2.456.248 3.432.744a5.291 5.291 0 012.256 2.136c.544.912.816 1.992.816 3.24 0 1.248-.272 2.336-.816 3.264a5.442 5.442 0 01-2.256 2.16c-.976.496-2.12.744-3.432.744zm0-3.192c1.52 0 2.28-.992 2.28-2.976s-.76-2.976-2.28-2.976c-1.52 0-2.28.992-2.28 2.976s.76 2.976 2.28 2.976zm10.455-2.592c-.336 0-.624-.112-.864-.336-.224-.224-.368-.544-.432-.96l-1.248-7.464a2.439 2.439 0 01-.024-.384c0-.72.24-1.28.72-1.68.496-.416 1.112-.624 1.848-.624.752 0 1.368.208 1.848.624.48.416.72.984.72 1.704 0 .16-.008.288-.024.384l-1.272 7.44c-.048.416-.192.736-.432.96a1.14 1.14 0 01-.84.336zm0 5.736c-.672 0-1.232-.224-1.68-.672-.432-.448-.648-1-.648-1.656 0-.656.216-1.208.648-1.656.448-.448 1.008-.672 1.68-.672.656 0 1.2.224 1.632.672.448.448.672 1 .672 1.656 0 .656-.224 1.208-.672 1.656-.432.448-.976.672-1.632.672z" fill="#FAFAFA"/><path fill-rule="evenodd" clip-rule="evenodd" d="M37.746 68.21c4.288 4.295 15.008 9.88 23.584 1.288 8.576-8.591 6.432-31.358 6.432-31.358s-22.297-1.718-30.873 6.873c-8.576 8.591-4.288 18.042.857 23.196zm7.986-5.44c1.537-1.37 5.637-4.078 9.742-3.94 4.106.136 5.048-1.003 5.394-2.057.771-2.356-.433-5.63-6.264-7.54-5.83-1.911-12.96.77-14.787 5.912-1.462 4.113 1.13 6.797 2.61 7.626.463.228 1.913.942 3.305 0z" fill="#0070C7"/><path d="M97.332 54.824c1.488.456 2.628 1.224 3.42 2.304.792 1.056 1.188 2.364 1.188 3.924 0 1.392-.372 2.616-1.116 3.672-.72 1.032-1.764 1.836-3.132 2.412-1.344.576-2.928.864-4.752.864h-9.576c-.984 0-1.74-.264-2.268-.792-.528-.528-.792-1.284-.792-2.268V45.68c0-.984.264-1.74.792-2.268.528-.528 1.284-.792 2.268-.792h9.216c2.664 0 4.776.6 6.336 1.8 1.584 1.176 2.376 2.772 2.376 4.788 0 1.296-.348 2.448-1.044 3.456-.696.984-1.668 1.704-2.916 2.16zm-10.584-2.232h4.716c1.248 0 2.16-.192 2.736-.576.576-.384.864-.996.864-1.836 0-.888-.288-1.536-.864-1.944-.576-.408-1.488-.612-2.736-.612h-4.716v4.968zm5.364 10.404c1.32 0 2.256-.204 2.808-.612.576-.432.864-1.128.864-2.088 0-.96-.288-1.644-.864-2.052-.552-.432-1.488-.648-2.808-.648h-5.364v5.4h5.364zm24.023-13.068c.816-.072 1.464.12 1.944.576.48.432.72 1.08.72 1.944 0 .96-.228 1.656-.684 2.088-.432.432-1.224.708-2.376.828l-1.08.108c-1.2.144-2.064.528-2.592 1.152-.504.6-.756 1.428-.756 2.484v6.156c0 .984-.312 1.728-.936 2.232-.6.48-1.356.72-2.268.72-.912 0-1.68-.24-2.304-.72-.6-.504-.9-1.248-.9-2.232V52.808c0-.912.3-1.62.9-2.124.624-.504 1.368-.756 2.232-.756.888 0 1.596.24 2.124.72.552.48.828 1.152.828 2.016v.684c.384-1.056 1.008-1.872 1.872-2.448.888-.576 1.812-.888 2.772-.936l.504-.036zm12.129-.072c2.736 0 4.752.66 6.048 1.98 1.32 1.296 1.98 3.276 1.98 5.94V65.3c0 .912-.276 1.632-.828 2.16-.528.504-1.272.756-2.232.756-.84 0-1.536-.24-2.088-.72-.528-.48-.816-1.128-.864-1.944a3.985 3.985 0 01-1.692 2.016c-.792.48-1.74.72-2.844.72-1.224 0-2.328-.24-3.312-.72-.984-.504-1.764-1.188-2.34-2.052-.552-.888-.828-1.884-.828-2.988 0-1.272.324-2.28.972-3.024.672-.768 1.728-1.32 3.168-1.656 1.44-.336 3.384-.504 5.832-.504h.972v-.432c0-.84-.192-1.44-.576-1.8-.384-.384-1.032-.576-1.944-.576-.984 0-2.424.336-4.32 1.008-.552.192-1.02.288-1.404.288-.6 0-1.08-.216-1.44-.648-.36-.432-.54-.996-.54-1.692 0-.528.108-.96.324-1.296.216-.336.564-.636 1.044-.9.84-.432 1.896-.78 3.168-1.044a18.394 18.394 0 013.744-.396zm-1.008 14.148c.864 0 1.572-.3 2.124-.9.552-.624.828-1.416.828-2.376v-.432h-.576c-1.536 0-2.628.144-3.276.432-.648.264-.972.72-.972 1.368 0 .552.168 1.008.504 1.368.36.36.816.54 1.368.54zm15.832 4.212c-.912 0-1.68-.24-2.304-.72-.6-.504-.9-1.248-.9-2.232V52.88c0-.984.3-1.716.9-2.196.624-.504 1.392-.756 2.304-.756.912 0 1.668.252 2.268.756.624.48.936 1.212.936 2.196v12.384c0 .984-.312 1.728-.936 2.232-.6.48-1.356.72-2.268.72zm0-20.808c-1.08 0-1.944-.276-2.592-.828-.624-.576-.936-1.332-.936-2.268 0-.936.312-1.68.936-2.232.648-.552 1.512-.828 2.592-.828 1.056 0 1.908.276 2.556.828.648.552.972 1.296.972 2.232 0 .936-.324 1.692-.972 2.268-.624.552-1.476.828-2.556.828zm18.837 2.448c2.112 0 3.684.636 4.716 1.908 1.032 1.248 1.548 3.156 1.548 5.724v7.776c0 .912-.288 1.632-.864 2.16-.576.528-1.356.792-2.34.792-.984 0-1.764-.264-2.34-.792-.576-.528-.864-1.248-.864-2.16v-7.488c0-1.056-.192-1.824-.576-2.304-.36-.48-.912-.72-1.656-.72-.96 0-1.728.312-2.304.936-.552.6-.828 1.416-.828 2.448v7.128c0 .912-.288 1.632-.864 2.16-.576.528-1.356.792-2.34.792-.984 0-1.764-.264-2.34-.792-.576-.528-.864-1.248-.864-2.16V52.808c0-.84.3-1.524.9-2.052.6-.552 1.38-.828 2.34-.828.912 0 1.632.252 2.16.756.552.504.828 1.164.828 1.98a6.14 6.14 0 012.412-2.088c.984-.48 2.076-.72 3.276-.72zm21.725 1.872c.264-.6.624-1.044 1.08-1.332.456-.288.96-.432 1.512-.432.792 0 1.5.264 2.124.792.624.528.936 1.164.936 1.908 0 .408-.096.804-.288 1.188l-9.54 19.116c-.288.6-.672 1.044-1.152 1.332-.456.288-.96.432-1.512.432-.792 0-1.5-.264-2.124-.792-.6-.504-.9-1.128-.9-1.872 0-.408.108-.828.324-1.26l2.34-4.716-6.12-12.24c-.192-.432-.288-.816-.288-1.152 0-.768.336-1.416 1.008-1.944.672-.552 1.428-.828 2.268-.828.576 0 1.104.156 1.584.468.504.288.888.732 1.152 1.332l3.816 8.28 3.78-8.28z" fill="#094067"/><path d="M222.782 44.456c.24-.672.624-1.188 1.152-1.548a3.23 3.23 0 011.8-.54c.792 0 1.476.252 2.052.756.6.504.9 1.188.9 2.052 0 .384-.096.864-.288 1.44L221.162 66.2c-.24.672-.684 1.2-1.332 1.584-.624.36-1.32.54-2.088.54s-1.464-.18-2.088-.54a3.001 3.001 0 01-1.296-1.584l-4.68-13.356-4.896 13.356a3.184 3.184 0 01-1.332 1.584c-.624.36-1.308.54-2.052.54-.768 0-1.464-.18-2.088-.54a3.001 3.001 0 01-1.296-1.584l-7.272-19.584a4.143 4.143 0 01-.252-1.368c0-.888.312-1.584.936-2.088a3.433 3.433 0 012.232-.792c.672 0 1.284.18 1.836.54.576.336.984.852 1.224 1.548l4.932 14.184 5.22-14.184c.24-.672.624-1.188 1.152-1.548a3.23 3.23 0 011.8-.54c.648 0 1.236.18 1.764.54.528.36.912.888 1.152 1.584l4.896 14.472 5.148-14.508zm14.924 5.4c2.736 0 4.752.66 6.048 1.98 1.32 1.296 1.98 3.276 1.98 5.94V65.3c0 .912-.276 1.632-.828 2.16-.528.504-1.272.756-2.232.756-.84 0-1.536-.24-2.088-.72-.528-.48-.816-1.128-.864-1.944a3.985 3.985 0 01-1.692 2.016c-.792.48-1.74.72-2.844.72-1.224 0-2.328-.24-3.312-.72-.984-.504-1.764-1.188-2.34-2.052-.552-.888-.828-1.884-.828-2.988 0-1.272.324-2.28.972-3.024.672-.768 1.728-1.32 3.168-1.656 1.44-.336 3.384-.504 5.832-.504h.972v-.432c0-.84-.192-1.44-.576-1.8-.384-.384-1.032-.576-1.944-.576-.984 0-2.424.336-4.32 1.008-.552.192-1.02.288-1.404.288-.6 0-1.08-.216-1.44-.648-.36-.432-.54-.996-.54-1.692 0-.528.108-.96.324-1.296.216-.336.564-.636 1.044-.9.84-.432 1.896-.78 3.168-1.044a18.394 18.394 0 013.744-.396zm-1.008 14.148c.864 0 1.572-.3 2.124-.9.552-.624.828-1.416.828-2.376v-.432h-.576c-1.536 0-2.628.144-3.276.432-.648.264-.972.72-.972 1.368 0 .552.168 1.008.504 1.368.36.36.816.54 1.368.54zm23.103-.36c1.608.096 2.412.816 2.412 2.16 0 .84-.324 1.464-.972 1.872-.648.408-1.572.576-2.772.504l-1.008-.072c-2.16-.168-3.804-.816-4.932-1.944-1.104-1.152-1.656-2.748-1.656-4.788v-6.372h-1.044c-1.92 0-2.88-.792-2.88-2.376 0-1.56.96-2.34 2.88-2.34h1.044v-2.34c0-.912.288-1.632.864-2.16.576-.552 1.356-.828 2.34-.828.984 0 1.764.276 2.34.828.576.528.864 1.248.864 2.16v2.34h1.98c1.92 0 2.88.78 2.88 2.34 0 1.584-.96 2.376-2.88 2.376h-1.98v6.912c0 .456.132.84.396 1.152.288.312.648.48 1.08.504l1.044.072zm18.514-1.332c.552 0 .996.216 1.332.648.36.432.54.996.54 1.692 0 .96-.468 1.692-1.404 2.196-.816.408-1.788.756-2.916 1.044-1.104.264-2.124.396-3.06.396-1.968 0-3.684-.372-5.148-1.116-1.464-.744-2.592-1.812-3.384-3.204-.792-1.392-1.188-3.024-1.188-4.896 0-1.776.372-3.36 1.116-4.752.768-1.416 1.824-2.508 3.168-3.276 1.368-.792 2.904-1.188 4.608-1.188 1.656 0 3.108.36 4.356 1.08 1.248.72 2.208 1.74 2.88 3.06.696 1.32 1.044 2.868 1.044 4.644 0 .552-.132.984-.396 1.296-.24.288-.6.432-1.08.432h-9.504c.168 1.152.54 1.98 1.116 2.484.576.504 1.428.756 2.556.756.6 0 1.152-.06 1.656-.18a20.332 20.332 0 001.692-.576c.36-.144.708-.264 1.044-.36.36-.12.684-.18.972-.18zm-6.156-8.136c-.84 0-1.512.276-2.016.828-.504.528-.804 1.308-.9 2.34h5.652c-.144-2.112-1.056-3.168-2.736-3.168zm22.254-4.248c.816-.072 1.464.12 1.944.576.48.432.72 1.08.72 1.944 0 .96-.228 1.656-.684 2.088-.432.432-1.224.708-2.376.828l-1.08.108c-1.2.144-2.064.528-2.592 1.152-.504.6-.756 1.428-.756 2.484v6.156c0 .984-.312 1.728-.936 2.232-.6.48-1.356.72-2.268.72-.912 0-1.68-.24-2.304-.72-.6-.504-.9-1.248-.9-2.232V52.808c0-.912.3-1.62.9-2.124.624-.504 1.368-.756 2.232-.756.888 0 1.596.24 2.124.72.552.48.828 1.152.828 2.016v.684c.384-1.056 1.008-1.872 1.872-2.448.888-.576 1.812-.888 2.772-.936l.504-.036z" fill="#0070C7"/></svg>