<svg width="375" height="353" viewBox="0 0 375 353" fill="none" xmlns="http://www.w3.org/2000/svg">
<path d="M114.5 316.274C69.7 315.935 19.5 333.95 0 343V-1H375V333.243C369.333 335.364 353.2 341.049 332 346.818C305.5 354.03 248 357.424 202 336.212C165.2 319.244 128.333 315.85 114.5 316.274Z" fill="#0070C7"/>
<path d="M231.519 117.936C146.157 115.078 60.9163 171.527 28.9659 200.109C0.029892 219.759 -30.1119 204.872 -39.7574 200.109C-70.5021 182.841 -124.396 126.868 -94.0127 41.123C-56.034 -66.0584 92.2085 -121.976 213.434 -82.1356C334.659 -42.2957 359.689 25.9526 343.647 75.0638C336.468 97.0402 316.881 120.794 231.519 117.936Z" fill="#FAFAFA"/>
<path d="M322.006 218.571C356.453 217.409 390.852 240.359 403.745 251.979C415.423 259.967 427.586 253.915 431.479 251.979C443.886 244.958 465.634 222.202 453.373 187.342C438.047 143.766 378.224 121.033 329.304 137.23C280.384 153.427 270.283 181.174 276.757 201.141C279.654 210.075 287.558 219.733 322.006 218.571Z" fill="#094067"/>
<path d="M89.0476 279.893C44.3794 278.338 -0.225639 309.061 -16.9447 324.617C-32.0864 335.311 -47.859 327.209 -52.9063 324.617C-68.9945 315.218 -97.196 284.754 -81.2971 238.087C-61.4236 179.752 16.149 149.318 79.584 171.002C143.019 192.685 156.117 229.83 147.722 256.559C143.965 268.52 133.716 281.449 89.0476 279.893Z" fill="#094067"/>
<path d="M44.888 205.216C45.88 205.52 46.64 206.032 47.168 206.752C47.696 207.456 47.96 208.328 47.96 209.368C47.96 210.296 47.712 211.112 47.216 211.816C46.736 212.504 46.04 213.04 45.128 213.424C44.232 213.808 43.176 214 41.96 214H35.576C34.92 214 34.416 213.824 34.064 213.472C33.712 213.12 33.536 212.616 33.536 211.96V199.12C33.536 198.464 33.712 197.96 34.064 197.608C34.416 197.256 34.92 197.08 35.576 197.08H41.72C43.496 197.08 44.904 197.48 45.944 198.28C47 199.064 47.528 200.128 47.528 201.472C47.528 202.336 47.296 203.104 46.832 203.776C46.368 204.432 45.72 204.912 44.888 205.216ZM37.832 203.728H40.976C41.808 203.728 42.416 203.6 42.8 203.344C43.184 203.088 43.376 202.68 43.376 202.12C43.376 201.528 43.184 201.096 42.8 200.824C42.416 200.552 41.808 200.416 40.976 200.416H37.832V203.728ZM41.408 210.664C42.288 210.664 42.912 210.528 43.28 210.256C43.664 209.968 43.856 209.504 43.856 208.864C43.856 208.224 43.664 207.768 43.28 207.496C42.912 207.208 42.288 207.064 41.408 207.064H37.832V210.664H41.408ZM59.5355 210.208C59.9035 210.208 60.1995 210.352 60.4235 210.64C60.6635 210.928 60.7835 211.304 60.7835 211.768C60.7835 212.408 60.4715 212.896 59.8475 213.232C59.3035 213.504 58.6555 213.736 57.9035 213.928C57.1675 214.104 56.4875 214.192 55.8635 214.192C54.5515 214.192 53.4075 213.944 52.4315 213.448C51.4555 212.952 50.7035 212.24 50.1755 211.312C49.6475 210.384 49.3835 209.296 49.3835 208.048C49.3835 206.864 49.6315 205.808 50.1275 204.88C50.6395 203.936 51.3435 203.208 52.2395 202.696C53.1515 202.168 54.1755 201.904 55.3115 201.904C56.4155 201.904 57.3835 202.144 58.2155 202.624C59.0475 203.104 59.6875 203.784 60.1355 204.664C60.5995 205.544 60.8315 206.576 60.8315 207.76C60.8315 208.128 60.7435 208.416 60.5675 208.624C60.4075 208.816 60.1675 208.912 59.8475 208.912H53.5115C53.6235 209.68 53.8715 210.232 54.2555 210.568C54.6395 210.904 55.2075 211.072 55.9595 211.072C56.3595 211.072 56.7275 211.032 57.0635 210.952C57.3995 210.856 57.7755 210.728 58.1915 210.568C58.4315 210.472 58.6635 210.392 58.8875 210.328C59.1275 210.248 59.3435 210.208 59.5355 210.208ZM55.4315 204.784C54.8715 204.784 54.4235 204.968 54.0875 205.336C53.7515 205.688 53.5515 206.208 53.4875 206.896H57.2555C57.1595 205.488 56.5515 204.784 55.4315 204.784ZM77.8513 201.904C79.1473 201.904 80.1473 202.296 80.8513 203.08C81.5553 203.848 81.9073 205.152 81.9073 206.992V212.176C81.9073 212.832 81.6993 213.328 81.2833 213.664C80.8833 213.984 80.3793 214.144 79.7713 214.144C79.1633 214.144 78.6513 213.984 78.2353 213.664C77.8353 213.328 77.6353 212.832 77.6353 212.176V206.896C77.6353 206.256 77.5233 205.808 77.2993 205.552C77.0753 205.296 76.7473 205.168 76.3153 205.168C75.7553 205.168 75.3073 205.368 74.9713 205.768C74.6353 206.168 74.4673 206.72 74.4673 207.424V212.176C74.4673 212.832 74.2673 213.328 73.8672 213.664C73.4673 213.984 72.9553 214.144 72.3313 214.144C71.7233 214.144 71.2113 213.984 70.7953 213.664C70.3953 213.328 70.1953 212.832 70.1953 212.176V206.896C70.1953 206.256 70.0833 205.808 69.8593 205.552C69.6353 205.296 69.3073 205.168 68.8753 205.168C68.3153 205.168 67.8673 205.368 67.5312 205.768C67.2113 206.168 67.0513 206.72 67.0513 207.424V212.176C67.0513 212.832 66.8433 213.328 66.4273 213.664C66.0273 213.984 65.5233 214.144 64.9153 214.144C64.3073 214.144 63.7953 213.984 63.3793 213.664C62.9793 213.328 62.7793 212.832 62.7793 212.176V203.872C62.7793 203.248 62.9873 202.776 63.4033 202.456C63.8353 202.12 64.3473 201.952 64.9393 201.952C65.4993 201.952 65.9633 202.104 66.3313 202.408C66.7153 202.696 66.9153 203.12 66.9313 203.68C67.7153 202.496 68.9153 201.904 70.5313 201.904C72.2433 201.904 73.3873 202.6 73.9633 203.992C74.3633 203.352 74.8993 202.848 75.5713 202.48C76.2433 202.096 77.0033 201.904 77.8513 201.904ZM45.68 231.112C45.856 230.728 46.104 230.44 46.424 230.248C46.744 230.056 47.096 229.96 47.48 229.96C48.056 229.96 48.576 230.144 49.04 230.512C49.504 230.88 49.736 231.344 49.736 231.904C49.736 232.176 49.664 232.456 49.52 232.744L43.184 245.824C42.976 246.256 42.664 246.592 42.248 246.832C41.832 247.056 41.384 247.168 40.904 247.168C40.424 247.168 39.976 247.056 39.56 246.832C39.144 246.592 38.832 246.256 38.624 245.824L32.288 232.744C32.16 232.488 32.096 232.208 32.096 231.904C32.096 231.36 32.336 230.904 32.816 230.536C33.296 230.152 33.832 229.96 34.424 229.96C34.808 229.96 35.16 230.056 35.48 230.248C35.816 230.44 36.072 230.728 36.248 231.112L40.976 241.336L45.68 231.112ZM54.0871 247.144C53.4791 247.144 52.9671 246.984 52.5511 246.664C52.1511 246.328 51.9511 245.832 51.9511 245.176V236.92C51.9511 236.264 52.1511 235.776 52.5511 235.456C52.9671 235.12 53.4791 234.952 54.0871 234.952C54.6951 234.952 55.1991 235.12 55.5991 235.456C56.0151 235.776 56.2231 236.264 56.2231 236.92V245.176C56.2231 245.832 56.0151 246.328 55.5991 246.664C55.1991 246.984 54.6951 247.144 54.0871 247.144ZM54.0871 233.272C53.3671 233.272 52.7911 233.088 52.3591 232.72C51.9431 232.336 51.7351 231.832 51.7351 231.208C51.7351 230.584 51.9431 230.088 52.3591 229.72C52.7911 229.352 53.3671 229.168 54.0871 229.168C54.7911 229.168 55.3591 229.352 55.7911 229.72C56.2231 230.088 56.4391 230.584 56.4391 231.208C56.4391 231.832 56.2231 232.336 55.7911 232.72C55.3751 233.088 54.8071 233.272 54.0871 233.272ZM66.6451 234.904C68.0531 234.904 69.1011 235.328 69.7891 236.176C70.4771 237.008 70.8211 238.28 70.8211 239.992V245.176C70.8211 245.784 70.6291 246.264 70.2451 246.616C69.8611 246.968 69.3411 247.144 68.6851 247.144C68.0291 247.144 67.5091 246.968 67.1251 246.616C66.7411 246.264 66.5491 245.784 66.5491 245.176V240.184C66.5491 239.48 66.4211 238.968 66.1651 238.648C65.9251 238.328 65.5571 238.168 65.0611 238.168C64.4211 238.168 63.9091 238.376 63.5251 238.792C63.1571 239.192 62.9731 239.736 62.9731 240.424V245.176C62.9731 245.784 62.7811 246.264 62.3971 246.616C62.0131 246.968 61.4931 247.144 60.8371 247.144C60.1811 247.144 59.6611 246.968 59.2771 246.616C58.8931 246.264 58.7011 245.784 58.7011 245.176V236.872C58.7011 236.312 58.9011 235.856 59.3011 235.504C59.7011 235.136 60.2211 234.952 60.8611 234.952C61.4691 234.952 61.9491 235.12 62.3011 235.456C62.6691 235.792 62.8531 236.232 62.8531 236.776C63.2691 236.168 63.8051 235.704 64.4611 235.384C65.1171 235.064 65.8451 234.904 66.6451 234.904ZM83.5524 229.96C84.1924 229.96 84.7124 230.144 85.1124 230.512C85.5284 230.864 85.7364 231.32 85.7364 231.88V245.176C85.7364 245.784 85.5444 246.264 85.1604 246.616C84.7764 246.968 84.2644 247.144 83.6244 247.144C83.0324 247.144 82.5444 246.992 82.1604 246.688C81.7924 246.368 81.5844 245.936 81.5364 245.392C81.2004 245.952 80.7044 246.392 80.0484 246.712C79.4084 247.032 78.6964 247.192 77.9124 247.192C76.9044 247.192 76.0004 246.936 75.2004 246.424C74.4164 245.896 73.8004 245.16 73.3524 244.216C72.9044 243.272 72.6804 242.192 72.6804 240.976C72.6804 239.76 72.8964 238.696 73.3284 237.784C73.7764 236.856 74.3924 236.144 75.1764 235.648C75.9764 235.152 76.8884 234.904 77.9124 234.904C78.6644 234.904 79.3524 235.056 79.9764 235.36C80.6164 235.664 81.1124 236.072 81.4644 236.584V231.808C81.4644 231.248 81.6484 230.8 82.0164 230.464C82.4004 230.128 82.9124 229.96 83.5524 229.96ZM79.2084 244C79.9604 244 80.5364 243.744 80.9364 243.232C81.3364 242.72 81.5364 241.984 81.5364 241.024C81.5364 240.08 81.3364 239.36 80.9364 238.864C80.5364 238.352 79.9604 238.096 79.2084 238.096C78.4724 238.096 77.9044 238.344 77.5044 238.84C77.1044 239.336 76.9044 240.048 76.9044 240.976C76.9044 241.936 77.1044 242.68 77.5044 243.208C77.9204 243.736 78.4884 244 79.2084 244ZM94.1844 247.192C92.8884 247.192 91.7444 246.944 90.7524 246.448C89.7764 245.936 89.0164 245.216 88.4724 244.288C87.9444 243.36 87.6804 242.272 87.6804 241.024C87.6804 239.776 87.9444 238.696 88.4724 237.784C89.0164 236.856 89.7764 236.144 90.7524 235.648C91.7284 235.152 92.8724 234.904 94.1844 234.904C95.4964 234.904 96.6404 235.152 97.6164 235.648C98.5924 236.144 99.3444 236.856 99.8724 237.784C100.416 238.696 100.688 239.776 100.688 241.024C100.688 242.272 100.416 243.36 99.8724 244.288C99.3444 245.216 98.5924 245.936 97.6164 246.448C96.6404 246.944 95.4964 247.192 94.1844 247.192ZM94.1844 244C95.7044 244 96.4644 243.008 96.4644 241.024C96.4644 239.04 95.7044 238.048 94.1844 238.048C92.6644 238.048 91.9044 239.04 91.9044 241.024C91.9044 243.008 92.6644 244 94.1844 244ZM104.639 241.408C104.303 241.408 104.015 241.296 103.775 241.072C103.551 240.848 103.407 240.528 103.343 240.112L102.095 232.648C102.079 232.552 102.071 232.424 102.071 232.264C102.071 231.544 102.311 230.984 102.791 230.584C103.287 230.168 103.903 229.96 104.639 229.96C105.391 229.96 106.007 230.168 106.487 230.584C106.967 231 107.207 231.568 107.207 232.288C107.207 232.448 107.199 232.576 107.183 232.672L105.911 240.112C105.863 240.528 105.719 240.848 105.479 241.072C105.255 241.296 104.975 241.408 104.639 241.408ZM104.639 247.144C103.967 247.144 103.407 246.92 102.959 246.472C102.527 246.024 102.311 245.472 102.311 244.816C102.311 244.16 102.527 243.608 102.959 243.16C103.407 242.712 103.967 242.488 104.639 242.488C105.295 242.488 105.839 242.712 106.271 243.16C106.719 243.608 106.943 244.16 106.943 244.816C106.943 245.472 106.719 246.024 106.271 246.472C105.839 246.92 105.295 247.144 104.639 247.144Z" fill="#FAFAFA"/>
<path fill-rule="evenodd" clip-rule="evenodd" d="M37.7464 68.2094C42.0343 72.505 52.7541 78.0893 61.3299 69.4981C69.9057 60.9069 67.7618 38.1403 67.7618 38.1403C67.7618 38.1403 45.4646 36.422 36.8888 45.0132C28.3129 53.6044 32.6009 63.0547 37.7464 68.2094ZM45.7319 62.7706C47.2687 61.3997 51.3686 58.692 55.4744 58.8291C59.5801 58.9662 60.5222 57.8268 60.8675 56.7727C61.6392 54.417 60.4353 51.1434 54.6045 49.2324C48.7738 47.3215 41.6436 50.0036 39.8169 55.1447C38.3555 59.2576 40.9477 61.9423 42.4265 62.7706C42.8904 62.9991 44.3402 63.7132 45.7319 62.7706Z" fill="#0070C7"/>
<path d="M97.332 54.824C98.82 55.28 99.96 56.048 100.752 57.128C101.544 58.184 101.94 59.492 101.94 61.052C101.94 62.444 101.568 63.668 100.824 64.724C100.104 65.756 99.06 66.56 97.692 67.136C96.348 67.712 94.764 68 92.94 68H83.364C82.38 68 81.624 67.736 81.096 67.208C80.568 66.68 80.304 65.924 80.304 64.94V45.68C80.304 44.696 80.568 43.94 81.096 43.412C81.624 42.884 82.38 42.62 83.364 42.62H92.58C95.244 42.62 97.356 43.22 98.916 44.42C100.5 45.596 101.292 47.192 101.292 49.208C101.292 50.504 100.944 51.656 100.248 52.664C99.552 53.648 98.58 54.368 97.332 54.824ZM86.748 52.592H91.464C92.712 52.592 93.624 52.4 94.2 52.016C94.776 51.632 95.064 51.02 95.064 50.18C95.064 49.292 94.776 48.644 94.2 48.236C93.624 47.828 92.712 47.624 91.464 47.624H86.748V52.592ZM92.112 62.996C93.432 62.996 94.368 62.792 94.92 62.384C95.496 61.952 95.784 61.256 95.784 60.296C95.784 59.336 95.496 58.652 94.92 58.244C94.368 57.812 93.432 57.596 92.112 57.596H86.748V62.996H92.112ZM116.135 49.928C116.951 49.856 117.599 50.048 118.079 50.504C118.559 50.936 118.799 51.584 118.799 52.448C118.799 53.408 118.571 54.104 118.115 54.536C117.683 54.968 116.891 55.244 115.739 55.364L114.659 55.472C113.459 55.616 112.595 56 112.067 56.624C111.563 57.224 111.311 58.052 111.311 59.108V65.264C111.311 66.248 110.999 66.992 110.375 67.496C109.775 67.976 109.019 68.216 108.107 68.216C107.195 68.216 106.427 67.976 105.803 67.496C105.203 66.992 104.903 66.248 104.903 65.264V52.808C104.903 51.896 105.203 51.188 105.803 50.684C106.427 50.18 107.171 49.928 108.035 49.928C108.923 49.928 109.631 50.168 110.159 50.648C110.711 51.128 110.987 51.8 110.987 52.664V53.348C111.371 52.292 111.995 51.476 112.859 50.9C113.747 50.324 114.671 50.012 115.631 49.964L116.135 49.928ZM128.264 49.856C131 49.856 133.016 50.516 134.312 51.836C135.632 53.132 136.292 55.112 136.292 57.776V65.3C136.292 66.212 136.016 66.932 135.464 67.46C134.936 67.964 134.192 68.216 133.232 68.216C132.392 68.216 131.696 67.976 131.144 67.496C130.616 67.016 130.328 66.368 130.28 65.552C129.944 66.416 129.38 67.088 128.588 67.568C127.796 68.048 126.848 68.288 125.744 68.288C124.52 68.288 123.416 68.048 122.432 67.568C121.448 67.064 120.668 66.38 120.092 65.516C119.54 64.628 119.264 63.632 119.264 62.528C119.264 61.256 119.588 60.248 120.236 59.504C120.908 58.736 121.964 58.184 123.404 57.848C124.844 57.512 126.788 57.344 129.236 57.344H130.208V56.912C130.208 56.072 130.016 55.472 129.632 55.112C129.248 54.728 128.6 54.536 127.688 54.536C126.704 54.536 125.264 54.872 123.368 55.544C122.816 55.736 122.348 55.832 121.964 55.832C121.364 55.832 120.884 55.616 120.524 55.184C120.164 54.752 119.984 54.188 119.984 53.492C119.984 52.964 120.092 52.532 120.308 52.196C120.524 51.86 120.872 51.56 121.352 51.296C122.192 50.864 123.248 50.516 124.52 50.252C125.792 49.988 127.04 49.856 128.264 49.856ZM127.256 64.004C128.12 64.004 128.828 63.704 129.38 63.104C129.932 62.48 130.208 61.688 130.208 60.728V60.296H129.632C128.096 60.296 127.004 60.44 126.356 60.728C125.708 60.992 125.384 61.448 125.384 62.096C125.384 62.648 125.552 63.104 125.888 63.464C126.248 63.824 126.704 64.004 127.256 64.004ZM143.088 68.216C142.176 68.216 141.408 67.976 140.784 67.496C140.184 66.992 139.884 66.248 139.884 65.264V52.88C139.884 51.896 140.184 51.164 140.784 50.684C141.408 50.18 142.176 49.928 143.088 49.928C144 49.928 144.756 50.18 145.356 50.684C145.98 51.164 146.292 51.896 146.292 52.88V65.264C146.292 66.248 145.98 66.992 145.356 67.496C144.756 67.976 144 68.216 143.088 68.216ZM143.088 47.408C142.008 47.408 141.144 47.132 140.496 46.58C139.872 46.004 139.56 45.248 139.56 44.312C139.56 43.376 139.872 42.632 140.496 42.08C141.144 41.528 142.008 41.252 143.088 41.252C144.144 41.252 144.996 41.528 145.644 42.08C146.292 42.632 146.616 43.376 146.616 44.312C146.616 45.248 146.292 46.004 145.644 46.58C145.02 47.132 144.168 47.408 143.088 47.408ZM161.925 49.856C164.037 49.856 165.609 50.492 166.641 51.764C167.673 53.012 168.189 54.92 168.189 57.488V65.264C168.189 66.176 167.901 66.896 167.325 67.424C166.749 67.952 165.969 68.216 164.985 68.216C164.001 68.216 163.221 67.952 162.645 67.424C162.069 66.896 161.781 66.176 161.781 65.264V57.776C161.781 56.72 161.589 55.952 161.205 55.472C160.845 54.992 160.293 54.752 159.549 54.752C158.589 54.752 157.821 55.064 157.245 55.688C156.693 56.288 156.417 57.104 156.417 58.136V65.264C156.417 66.176 156.129 66.896 155.553 67.424C154.977 67.952 154.197 68.216 153.213 68.216C152.229 68.216 151.449 67.952 150.873 67.424C150.297 66.896 150.009 66.176 150.009 65.264V52.808C150.009 51.968 150.309 51.284 150.909 50.756C151.509 50.204 152.289 49.928 153.249 49.928C154.161 49.928 154.881 50.18 155.409 50.684C155.961 51.188 156.237 51.848 156.237 52.664C156.861 51.752 157.665 51.056 158.649 50.576C159.633 50.096 160.725 49.856 161.925 49.856ZM183.65 51.728C183.914 51.128 184.274 50.684 184.73 50.396C185.186 50.108 185.69 49.964 186.242 49.964C187.034 49.964 187.742 50.228 188.366 50.756C188.99 51.284 189.302 51.92 189.302 52.664C189.302 53.072 189.206 53.468 189.014 53.852L179.474 72.968C179.186 73.568 178.802 74.012 178.322 74.3C177.866 74.588 177.362 74.732 176.81 74.732C176.018 74.732 175.31 74.468 174.686 73.94C174.086 73.436 173.786 72.812 173.786 72.068C173.786 71.66 173.894 71.24 174.11 70.808L176.45 66.092L170.33 53.852C170.138 53.42 170.042 53.036 170.042 52.7C170.042 51.932 170.378 51.284 171.05 50.756C171.722 50.204 172.478 49.928 173.318 49.928C173.894 49.928 174.422 50.084 174.902 50.396C175.406 50.684 175.79 51.128 176.054 51.728L179.87 60.008L183.65 51.728Z" fill="#094067"/>
<path d="M222.782 44.456C223.022 43.784 223.406 43.268 223.934 42.908C224.486 42.548 225.086 42.368 225.734 42.368C226.526 42.368 227.21 42.62 227.786 43.124C228.386 43.628 228.686 44.312 228.686 45.176C228.686 45.56 228.59 46.04 228.398 46.616L221.162 66.2C220.922 66.872 220.478 67.4 219.83 67.784C219.206 68.144 218.51 68.324 217.742 68.324C216.974 68.324 216.278 68.144 215.654 67.784C215.03 67.4 214.598 66.872 214.358 66.2L209.678 52.844L204.782 66.2C204.518 66.872 204.074 67.4 203.45 67.784C202.826 68.144 202.142 68.324 201.398 68.324C200.63 68.324 199.934 68.144 199.31 67.784C198.686 67.4 198.254 66.872 198.014 66.2L190.742 46.616C190.574 46.136 190.49 45.68 190.49 45.248C190.49 44.36 190.802 43.664 191.426 43.16C192.074 42.632 192.818 42.368 193.658 42.368C194.33 42.368 194.942 42.548 195.494 42.908C196.07 43.244 196.478 43.76 196.718 44.456L201.65 58.64L206.87 44.456C207.11 43.784 207.494 43.268 208.022 42.908C208.574 42.548 209.174 42.368 209.822 42.368C210.47 42.368 211.058 42.548 211.586 42.908C212.114 43.268 212.498 43.796 212.738 44.492L217.634 58.964L222.782 44.456ZM237.706 49.856C240.442 49.856 242.458 50.516 243.754 51.836C245.074 53.132 245.734 55.112 245.734 57.776V65.3C245.734 66.212 245.458 66.932 244.906 67.46C244.378 67.964 243.634 68.216 242.674 68.216C241.834 68.216 241.138 67.976 240.586 67.496C240.058 67.016 239.77 66.368 239.722 65.552C239.386 66.416 238.822 67.088 238.03 67.568C237.238 68.048 236.29 68.288 235.186 68.288C233.962 68.288 232.858 68.048 231.874 67.568C230.89 67.064 230.11 66.38 229.534 65.516C228.982 64.628 228.706 63.632 228.706 62.528C228.706 61.256 229.03 60.248 229.678 59.504C230.35 58.736 231.406 58.184 232.846 57.848C234.286 57.512 236.23 57.344 238.678 57.344H239.65V56.912C239.65 56.072 239.458 55.472 239.074 55.112C238.69 54.728 238.042 54.536 237.13 54.536C236.146 54.536 234.706 54.872 232.81 55.544C232.258 55.736 231.79 55.832 231.406 55.832C230.806 55.832 230.326 55.616 229.966 55.184C229.606 54.752 229.426 54.188 229.426 53.492C229.426 52.964 229.534 52.532 229.75 52.196C229.966 51.86 230.314 51.56 230.794 51.296C231.634 50.864 232.69 50.516 233.962 50.252C235.234 49.988 236.482 49.856 237.706 49.856ZM236.698 64.004C237.562 64.004 238.27 63.704 238.822 63.104C239.374 62.48 239.65 61.688 239.65 60.728V60.296H239.074C237.538 60.296 236.446 60.44 235.798 60.728C235.15 60.992 234.826 61.448 234.826 62.096C234.826 62.648 234.994 63.104 235.33 63.464C235.69 63.824 236.146 64.004 236.698 64.004ZM259.801 63.644C261.409 63.74 262.213 64.46 262.213 65.804C262.213 66.644 261.889 67.268 261.241 67.676C260.593 68.084 259.669 68.252 258.469 68.18L257.461 68.108C255.301 67.94 253.657 67.292 252.529 66.164C251.425 65.012 250.873 63.416 250.873 61.376V55.004H249.829C247.909 55.004 246.949 54.212 246.949 52.628C246.949 51.068 247.909 50.288 249.829 50.288H250.873V47.948C250.873 47.036 251.161 46.316 251.737 45.788C252.313 45.236 253.093 44.96 254.077 44.96C255.061 44.96 255.841 45.236 256.417 45.788C256.993 46.316 257.281 47.036 257.281 47.948V50.288H259.261C261.181 50.288 262.141 51.068 262.141 52.628C262.141 54.212 261.181 55.004 259.261 55.004H257.281V61.916C257.281 62.372 257.413 62.756 257.677 63.068C257.965 63.38 258.325 63.548 258.757 63.572L259.801 63.644ZM278.315 62.312C278.867 62.312 279.311 62.528 279.647 62.96C280.007 63.392 280.187 63.956 280.187 64.652C280.187 65.612 279.719 66.344 278.783 66.848C277.967 67.256 276.995 67.604 275.867 67.892C274.763 68.156 273.743 68.288 272.807 68.288C270.839 68.288 269.123 67.916 267.659 67.172C266.195 66.428 265.067 65.36 264.275 63.968C263.483 62.576 263.087 60.944 263.087 59.072C263.087 57.296 263.459 55.712 264.203 54.32C264.971 52.904 266.027 51.812 267.371 51.044C268.739 50.252 270.275 49.856 271.979 49.856C273.635 49.856 275.087 50.216 276.335 50.936C277.583 51.656 278.543 52.676 279.215 53.996C279.911 55.316 280.259 56.864 280.259 58.64C280.259 59.192 280.127 59.624 279.863 59.936C279.623 60.224 279.263 60.368 278.783 60.368H269.279C269.447 61.52 269.819 62.348 270.395 62.852C270.971 63.356 271.823 63.608 272.951 63.608C273.551 63.608 274.103 63.548 274.607 63.428C275.111 63.284 275.675 63.092 276.299 62.852C276.659 62.708 277.007 62.588 277.343 62.492C277.703 62.372 278.027 62.312 278.315 62.312ZM272.159 54.176C271.319 54.176 270.647 54.452 270.143 55.004C269.639 55.532 269.339 56.312 269.243 57.344H274.895C274.751 55.232 273.839 54.176 272.159 54.176ZM294.413 49.928C295.229 49.856 295.877 50.048 296.357 50.504C296.837 50.936 297.077 51.584 297.077 52.448C297.077 53.408 296.849 54.104 296.393 54.536C295.961 54.968 295.169 55.244 294.017 55.364L292.937 55.472C291.737 55.616 290.873 56 290.345 56.624C289.841 57.224 289.589 58.052 289.589 59.108V65.264C289.589 66.248 289.277 66.992 288.653 67.496C288.053 67.976 287.297 68.216 286.385 68.216C285.473 68.216 284.705 67.976 284.081 67.496C283.481 66.992 283.181 66.248 283.181 65.264V52.808C283.181 51.896 283.481 51.188 284.081 50.684C284.705 50.18 285.449 49.928 286.313 49.928C287.201 49.928 287.909 50.168 288.437 50.648C288.989 51.128 289.265 51.8 289.265 52.664V53.348C289.649 52.292 290.273 51.476 291.137 50.9C292.025 50.324 292.949 50.012 293.909 49.964L294.413 49.928Z" fill="#0070C7"/>
</svg>
