<svg width="375" height="812" viewBox="0 0 375 812" fill="none" xmlns="http://www.w3.org/2000/svg">
<g clip-path="url(#clip0)">
<rect width="375" height="812" fill="#0070C7"/>
<path d="M376.713 -16.8363C410.448 16.0657 442.732 60.176 431.85 89.1008C421.331 118.387 368.007 132.85 329.556 133.934C291.468 135.019 268.615 122.364 211.301 119.11C154.35 115.495 62.5757 120.557 32.1051 84.4006C1.63448 47.883 32.4678 -29.8524 82.5266 -66.37C132.585 -103.249 201.87 -98.5488 254.468 -85.1711C307.066 -71.7934 342.615 -49.7382 376.713 -16.8363Z" fill="#FAFAFA"/>
<path d="M191.133 323.178C156.135 311.339 126.06 268.649 132.263 234.015C138.126 199.185 180.267 172.411 215.705 150.587C251.216 129.03 279.9 113.029 314.687 112.31C349.812 111.786 390.576 126.954 421.605 162.507C452.635 198.06 474.003 254.264 453.144 280.21C432.285 306.156 369.467 301.771 318.062 308.951C266.389 316.202 226.13 335.017 191.133 323.178Z" fill="#094067"/>
<path d="M12.2954 845.782C-32.7025 794.58 -41.3757 698.625 0.484413 649.008C41.9832 598.766 134.015 594.86 210.773 592.681C287.399 590.995 347.993 591.891 404.238 622.831C460.845 654.398 511.986 716.239 528.768 801.67C545.551 887.102 527.844 996.619 470.58 1018.83C413.316 1041.05 316.988 976.091 228.23 940.142C138.977 904.06 57.2933 896.984 12.2954 845.782Z" fill="#094067"/>
<path d="M102.584 516.393C47.3169 514.469 -7.87241 552.482 -28.5587 571.729C-47.2933 584.961 -66.8086 574.937 -73.0536 571.729C-92.9592 560.1 -127.853 522.408 -108.181 464.667C-83.5919 392.49 12.3877 354.834 90.8751 381.663C169.363 408.492 185.568 454.451 175.181 487.523C170.533 502.322 157.852 518.318 102.584 516.393Z" fill="#094067"/>
</g>
<defs>
<clipPath id="clip0">
<rect width="375" height="812" fill="white"/>
</clipPath>
</defs>
</svg>
