<svg width="14" height="18" fill="none" xmlns="http://www.w3.org/2000/svg"><path fill-rule="evenodd" clip-rule="evenodd" d="M6.868 0S-.004 5.89 0 10.801c.004 4.912 3.936 6.39 6.883 6.392 2.456.002 7.121-1.467 7.117-6.38C13.996 5.902 6.868 0 6.868 0zm3.387 14.182c.992-.661 1.746-1.667 1.745-3.367 0-.768-.29-1.721-.878-2.816-.578-1.076-1.374-2.155-2.211-3.136a30.866 30.866 0 00-2.019-2.14A30.21 30.21 0 004.976 4.83c-.805.978-1.572 2.055-2.129 3.13C2.281 9.055 2 10.017 2 10.8c.002 1.838.697 2.826 1.515 3.421.913.664 2.18.971 3.37.972.909.001 2.285-.288 3.37-1.011z" fill="#FAFAFA"/></svg>