<svg width="16" height="12" fill="none" xmlns="http://www.w3.org/2000/svg"><path d="M1 9.4H0a1 1 0 001 1v-1zm4.2 0l.707-.707A1 1 0 005.2 8.4v1zm5.6 0v-1a1 1 0 00-.707.293l.707.707zm4.2 0v1a1 1 0 001-1h-1zm0-4.2h1a1 1 0 00-1-1v1zm-4.2 0l-.707.707a1 1 0 00.707.293v-1zm-5.6 0v1a1 1 0 00.707-.293L5.2 5.2zM1 5.2v-1a1 1 0 00-1 1h1zM5.2 0a1 1 0 000 2V0zm5.6 2a1 1 0 100-2v2zM1 10.4h4.2v-2H1v2zm4.2-1l-.707.708.002.001.002.002.006.006.018.018a5.207 5.207 0 00.269.243c.176.15.427.352.73.554.575.383 1.48.868 2.48.868v-2c-.4 0-.895-.215-1.37-.532a5.692 5.692 0 01-.725-.577l.001.001c0 .001.001.001-.706.708zM8 11.8c1 0 1.905-.485 2.48-.868a7.712 7.712 0 001-.797l.017-.018.006-.006.002-.002h.001v-.001L10.8 9.4l-.707-.707.001-.001-.005.005a5.692 5.692 0 01-.718.57C8.895 9.585 8.399 9.8 8 9.8v2zm2.8-1.4H15v-2h-4.2v2zm5.2-1V5.2h-2v4.2h2zm-1-5.2h-4.2v2H15v-2zm-4.2 1a180.874 180.874 0 00.706-.708l-.003-.003-.006-.006-.018-.017a6.756 6.756 0 00-.27-.244 7.699 7.699 0 00-.73-.554C9.906 3.285 9.002 2.8 8 2.8v2c.4 0 .895.216 1.37.532a5.694 5.694 0 01.725.577h-.001v-.001L10.8 5.2zM8 2.8c-1 0-1.905.485-2.48.868a7.692 7.692 0 00-1.017.815l-.006.006-.002.002-.001.001c0 .001-.001.001.706.708l.707.708h-.001v.001a.788.788 0 01.04-.038 5.694 5.694 0 01.684-.539C7.105 5.016 7.6 4.8 8 4.8v-2zM5.2 4.2H1v2h4.2v-2zM0 5.2v4.2h2V5.2H0zm9-1.4V1H7v2.8h2zM8 0H5.2v2H8V0zm0 2h2.8V0H8v2z" fill="#FAFAFA"/></svg>