<svg width="26" height="26" viewBox="0 0 26 26" fill="none" xmlns="http://www.w3.org/2000/svg">
<path fill-rule="evenodd" clip-rule="evenodd" d="M11.6146 0.557582C12.3886 -0.185862 13.6115 -0.18586 14.3855 0.557587L25.3854 11.1231C25.7781 11.5002 26 12.0211 26 12.5655V24C26 25.1046 25.1046 26 24 26H16.6666C15.5621 26 14.6666 25.1046 14.6666 24V19.1392H11.3333V24C11.3333 25.1046 10.4379 26 9.33331 26H2C0.89543 26 0 25.1046 0 24V12.5655C0 12.0211 0.221931 11.5002 0.614565 11.1231L11.6146 0.557582ZM4 13.4176V22H7.33331V17.1392C7.33331 16.0346 8.22874 15.1392 9.33331 15.1392H16.6666C17.7712 15.1392 18.6666 16.0346 18.6666 17.1392V22H22V13.4176L13 4.77313L4 13.4176Z" fill="#FAFAFA"/>
</svg>
