<svg width="12" height="19" fill="none" xmlns="http://www.w3.org/2000/svg"><path fill-rule="evenodd" clip-rule="evenodd" d="M1.154 2.306C2.058 1.026 3.57 0 5.857 0c2.229 0 3.752.855 4.686 2.1.898 1.198 1.171 2.646 1.171 3.757 0 1.169-.302 1.988-.81 2.658a6.111 6.111 0 01-.74.79l-.228.207c-.159.143-.303.275-.457.429-.29.29-.463.582-.562.82-.05.12-.08.223-.098.302-.015.068-.018.106-.019.114 0 .001 0 .001 0 0v1.992a1 1 0 01-1 1H3.914a1 1 0 01-1-1v-1.992c0 .001 0 .001 0 0 0-.008-.003-.046-.018-.114a1.81 1.81 0 00-.098-.302 2.577 2.577 0 00-.562-.82 12.378 12.378 0 00-.458-.43 32.71 32.71 0 01-.227-.207 6.111 6.111 0 01-.74-.79C.302 7.845 0 7.027 0 5.858c0-.898.287-2.323 1.154-3.551zm1.634 1.153C2.198 4.295 2 5.3 2 5.857c0 .775.184 1.158.404 1.448.127.168.288.33.504.53.053.05.113.104.177.161.172.157.374.34.565.53.96.962 1.264 2.056 1.264 2.65v.993H6.8v-.992c0-.595.303-1.69 1.264-2.65.191-.191.393-.374.566-.53l.176-.162c.217-.2.377-.362.505-.53.22-.29.403-.673.403-1.448 0-.831-.212-1.811-.771-2.557C8.42 2.603 7.514 2 5.857 2c-1.597 0-2.515.675-3.069 1.46zm.126 12.162a1 1 0 011-1H7.8a1 1 0 110 2H3.914a1 1 0 01-1-1zM3.886 18a1 1 0 011-1h1.943a1 1 0 010 2H4.886a1 1 0 01-1-1z" fill="#0070C7"/></svg>