<svg width="14" height="34" fill="none" xmlns="http://www.w3.org/2000/svg"><path d="M5 2h1-1zm4 0h1-1zm0 23H8a1 1 0 001 1v-1zm4 0l.8.6A1 1 0 0013 24v1zm-6 8l-.8.6a1 1 0 001.6 0L7 33zm-6-8v-1a1 1 0 00-.8 1.6L1 25zm4 0v1a1 1 0 001-1H5zM5 2c1 0 1 .001 1 .002v.006a.885.885 0 01-.006.09.352.352 0 01-.014.062c-.012.036-.026.05-.023.047.003-.003.051-.052.203-.102C6.316 2.053 6.58 2 7 2V0C5.846 0 5.046.29 4.543.793a1.881 1.881 0 00-.46.735A1.653 1.653 0 004 1.996v.002C4 1.999 4 2 5 2zm2 0c.42 0 .684.053.84.105.151.05.2.1.203.102.003.003-.011-.011-.023-.047a.352.352 0 01-.018-.105A.742.742 0 018 2.004v-.002C8 2.001 8 2 9 2s1-.001 1-.002v-.002-.004-.009a1.09 1.09 0 00-.014-.167 1.652 1.652 0 00-.069-.288 1.881 1.881 0 00-.46-.735C8.953.289 8.154 0 7 0v2zm1 0v23h2V2H8zm1 24h4v-2H9v2zm3.2-1.6l-6 8 1.6 1.2 6-8-1.6-1.2zm-4.4 8l-6-8-1.6 1.2 6 8 1.6-1.2zM1 26h4v-2H1v2zm5-1V2H4v23h2z" fill="#FAFAFA"/></svg>