<svg width="34" height="26" fill="none" xmlns="http://www.w3.org/2000/svg"><path fill-rule="evenodd" clip-rule="evenodd" d="M14.537 2.09C16.462.821 18.733 0 21.09 0c3.383 0 6.595 1.686 8.92 4.03C32.336 6.373 34 9.605 34 13c0 3.395-1.664 6.626-3.989 8.971-2.325 2.344-5.537 4.03-8.92 4.03-2.358 0-4.629-.823-6.554-2.09a2 2 0 012.199-3.341c1.406.925 2.924 1.43 4.355 1.43 2.07 0 4.313-1.064 6.08-2.846C28.936 17.374 30 15.106 30 13c0-2.105-1.064-4.374-2.83-6.154C25.405 5.065 23.163 4 21.09 4c-1.43 0-2.948.505-4.354 1.43a2 2 0 01-2.2-3.34z" fill="#FAFAFA"/><path fill-rule="evenodd" clip-rule="evenodd" d="M8.863 6.08a2 2 0 01.012 2.829L6.8 11h14.29a2 2 0 010 4H6.8l2.075 2.092a2 2 0 01-2.84 2.817l-5.455-5.5a2 2 0 010-2.817l5.454-5.5a2 2 0 012.829-.012z" fill="#FAFAFA"/></svg>