<svg width="14" height="14" fill="none" xmlns="http://www.w3.org/2000/svg"><path d="M1 13l-.742-.106A.75.75 0 001 13.75V13zm12 0v.75a.75.75 0 00.742-.856L13 13zm-11.258.106a6.785 6.785 0 011.38-3.133C3.95 8.954 5.18 8.15 7 8.15v-1.5c-2.339 0-3.975 1.063-5.042 2.377a8.281 8.281 0 00-1.7 3.867l1.484.212zM7 8.15c1.821 0 3.051.804 3.878 1.823a6.784 6.784 0 011.38 3.133l1.485-.212a8.282 8.282 0 00-1.7-3.867C10.975 7.713 9.338 6.65 7 6.65v1.5zm0-.8c.587 0 1.45-.17 2.188-.701.777-.56 1.362-1.485 1.362-2.849h-1.5c0 .876-.348 1.35-.738 1.631A2.38 2.38 0 017 5.85v1.5zm3.55-3.55c0-1.364-.585-2.29-1.362-2.849A3.877 3.877 0 007 .25v1.5c.347 0 .883.11 1.312.419.39.28.738.755.738 1.631h1.5zM7 .25c-.587 0-1.45.17-2.188.701-.777.56-1.362 1.485-1.362 2.849h1.5c0-.876.348-1.35.738-1.631A2.38 2.38 0 017 1.75V.25zM3.45 3.8c0 1.364.585 2.29 1.362 2.849A3.877 3.877 0 007 7.35v-1.5a2.38 2.38 0 01-1.312-.419c-.39-.28-.738-.755-.738-1.631h-1.5zM1 13.75h12v-1.5H1v1.5z" fill="#0070C7"/></svg>