<svg width="16" height="13" fill="none" xmlns="http://www.w3.org/2000/svg"><path fill-rule="evenodd" clip-rule="evenodd" d="M3.507.78C4.984.411 6.855 0 8 0c1.145 0 3.016.411 4.492.78a70.889 70.889 0 012.735.745l.044.013.016.004L15 2.5l.287-.958a1 1 0 01.7 1.123l-1.556 9.333a1 1 0 01-.987.836H2.556a1 1 0 01-.987-.836L.014 2.665a1 1 0 01.699-1.123L1 2.5l-.287-.958.016-.004.044-.013a43.395 43.395 0 01.769-.222A70.91 70.91 0 013.507.78zM2.18 3.5l.355 2.13c.986-.284 2.283-.23 3.686.705.63.42 1.277.432 1.898.244a3.857 3.857 0 001.507-.897c.489-.489 1.38-1.1 2.45-1.129a2.767 2.767 0 011.503.39l.24-1.443H2.18zm11 3.842c-.44-.735-.84-.795-1.05-.79-.369.01-.8.255-1.09.544a5.85 5.85 0 01-2.342 1.398c-1.051.317-2.348.33-3.586-.495-1.005-.67-1.79-.567-2.243-.37l.534 3.205h9.194l.582-3.492z" fill="#FAFAFA"/></svg>